<svg id="account_settings" width="60" height="57" xmlns="http://www.w3.org/2000/svg" viewBox="0 0 67 64"><defs><style>.cls-1{fill:#3856a3;fill-rule:evenodd;}</style></defs><title>account_settings</title><path class="cls-1" d="M62.87,54.54H52.38a1,1,0,0,1,0-2H62.87A2.17,2.17,0,0,0,65,50.4V12.48H2V50.4a2.17,2.17,0,0,0,2.17,2.17H14.62a1,1,0,0,1,0,2H4.13A4.14,4.14,0,0,1,0,50.4V4.14A4.14,4.14,0,0,1,4.13,0H62.87A4.14,4.14,0,0,1,67,4.14V50.4A4.14,4.14,0,0,1,62.87,54.54ZM65,4.14A2.17,2.17,0,0,0,62.87,2H4.13A2.17,2.17,0,0,0,2,4.14v6.37H65ZM5.18,5.26h0a1,1,0,1,1-1,1A1,1,0,0,1,5.19,5.26Zm3.13,0h0a1,1,0,1,1-1,1A1,1,0,0,1,8.31,5.26Zm3.15,0h0a1,1,0,1,1-1,1A1,1,0,0,1,11.47,5.26Zm4.21,0H61.82a1,1,0,0,1,0,2H15.67a1,1,0,0,1,0-2ZM21,34.82V29.37a12.52,12.52,0,1,1,25,0v5.45a4.14,4.14,0,0,1,3.15,4V48.3a15.67,15.67,0,1,1-31.34,0V38.83A4.14,4.14,0,0,1,21,34.82Zm23.08-5.45a10.56,10.56,0,1,0-21.12,0V34.7h2.24V29.37a8.32,8.32,0,1,1,16.64,0V34.7h2.24ZM19.8,48.3a13.7,13.7,0,1,0,27.4,0h0V38.83A2.17,2.17,0,0,0,45,36.66h-6.3a1,1,0,1,1,0-2h1.12V29.37a6.36,6.36,0,1,0-12.72,0V34.7h7.41a1,1,0,0,1,0,2H22a2.17,2.17,0,0,0-2.16,2.17Zm13.7-5.19a4.13,4.13,0,0,1,1,8.15V54.6a1,1,0,1,1-2,0V51.26a4.13,4.13,0,0,1,1-8.15Zm0,6.31a2.18,2.18,0,1,0-2.17-2.17A2.18,2.18,0,0,0,33.5,49.42Z"/></svg>