<svg id="activity_log" width="64" height="53" xmlns="http://www.w3.org/2000/svg" viewBox="0 0 64.01 53"><defs><style>.cls-1{fill:#3858a4;fill-rule:evenodd;}</style></defs><title>activity_log</title><path class="cls-1" d="M61.24,43.12a.34.34,0,0,0-.33.24,13,13,0,0,1-2,3.52.35.35,0,0,0,0,.41,2.83,2.83,0,0,1-1,3.84l-2.54,1.5A2.72,2.72,0,0,1,54,53a2.75,2.75,0,0,1-2.41-1.39.34.34,0,0,0-.37-.18,11.68,11.68,0,0,1-4,0,.35.35,0,0,0-.37.17h0a2.77,2.77,0,0,1-3.79,1l-2.54-1.5a2.76,2.76,0,0,1-1.29-1.71,2.8,2.8,0,0,1-.08-.87H8.43a1.22,1.22,0,0,1,0-2.44h3A5.25,5.25,0,0,1,16.47,42h1.6l1.2-4.52H2.81A2.85,2.85,0,0,1,0,34.66v-31A3.64,3.64,0,0,1,3.61,0H53.39A3.64,3.64,0,0,1,57,3.67V26l.9.55a2.83,2.83,0,0,1,1,3.84.38.38,0,0,0,0,.41,12.37,12.37,0,0,1,2,3.53.35.35,0,0,0,.33.23A2.81,2.81,0,0,1,64,37.33v3A2.8,2.8,0,0,1,61.24,43.12ZM16.48,44.48h0a2.79,2.79,0,0,0-2.53,1.63H38.86a13.23,13.23,0,0,1-.94-1.63ZM34.93,42a2.87,2.87,0,0,1-.6-1.72v-2.8H21.68L20.48,42ZM54.6,3.67a1.21,1.21,0,0,0-1.21-1.22H3.61a1.21,1.21,0,0,0-1.2,1.22V7.34H54.6Zm0,6.11H2.41V34.66a.4.4,0,0,0,.4.4l32.7,0a2.7,2.7,0,0,1,1.64-.55.35.35,0,0,0,.32-.24,12.86,12.86,0,0,1,2-3.53.33.33,0,0,0,0-.4,2.9,2.9,0,0,1-.26-2.14,2.68,2.68,0,0,1,1.29-1.7L43.05,25h0a2.73,2.73,0,0,1,3.76,1,.33.33,0,0,0,.36.16,12.2,12.2,0,0,1,4,0,.34.34,0,0,0,.36-.16,2.74,2.74,0,0,1,3.05-1.22Zm7,27.6v0a.35.35,0,0,0-.36-.34,2.81,2.81,0,0,1-2.57-1.89,10.48,10.48,0,0,0-1.61-2.86,2.83,2.83,0,0,1-.25-3.16.37.37,0,0,0,0-.29.34.34,0,0,0-.17-.22L54.12,27.1h0a.34.34,0,0,0-.47.12,2.82,2.82,0,0,1-2.83,1.45,9.11,9.11,0,0,0-3.21,0,2.78,2.78,0,0,1-2.85-1.37.35.35,0,0,0-.3-.17.31.31,0,0,0-.19,0l-2.54,1.49a.32.32,0,0,0-.17.22.45.45,0,0,0,0,.28,2.86,2.86,0,0,1-.25,3.18,9.93,9.93,0,0,0-1.62,2.85A2.78,2.78,0,0,1,37.1,37h0a.35.35,0,0,0-.33.37v3a.37.37,0,0,0,.36.37,2.73,2.73,0,0,1,2.54,1.76,10.49,10.49,0,0,0,1.63,2.85,2.9,2.9,0,0,1,.25,3.18.32.32,0,0,0,0,.27.36.36,0,0,0,.17.23l2.54,1.49a.36.36,0,0,0,.49-.13A2.76,2.76,0,0,1,47.58,49a9.55,9.55,0,0,0,3.2,0,2.79,2.79,0,0,1,2.86,1.35h0a.35.35,0,0,0,.49.14L56.63,49a.36.36,0,0,0,.17-.23.32.32,0,0,0,0-.27,2.85,2.85,0,0,1,.26-3.18,10.42,10.42,0,0,0,1.61-2.85,2.77,2.77,0,0,1,2.59-1.81.37.37,0,0,0,.36-.37Zm-12.44,7a5.55,5.55,0,1,1,5.47-5.55A5.51,5.51,0,0,1,49.18,44.37Zm0-8.66a3.11,3.11,0,0,0,0,6.21v0a3.1,3.1,0,0,0,0-6.19ZM37,28.06a1.19,1.19,0,0,1-1.69,0,1.24,1.24,0,0,1,0-1.72l3.61-3.67L35.32,19a1.24,1.24,0,0,1,0-1.74,1.19,1.19,0,0,1,1.7,0l4.5,4.56a1.26,1.26,0,0,1,0,1.73Zm-9.7-.84-.06.09a1.19,1.19,0,0,1-1.66.38A1.23,1.23,0,0,1,25.22,26l4.45-7.92h0a1.19,1.19,0,0,1,1.65-.45l.06,0a1.24,1.24,0,0,1,.42,1.68Zm-9.24-4.58,3.61,3.72a1.23,1.23,0,0,1,0,1.72h0a1.19,1.19,0,0,1-1.7,0l-4.48-4.56a1.24,1.24,0,0,1,0-1.73L20,17.23a1.2,1.2,0,0,1,1.71,0,1.25,1.25,0,0,1,0,1.74ZM5.22,3.67A1.22,1.22,0,1,1,4,4.89,1.21,1.21,0,0,1,5.22,3.67Zm4,0A1.22,1.22,0,1,1,8,4.89,1.21,1.21,0,0,1,9.24,3.67Zm4,0A1.22,1.22,0,1,1,12,4.89,1.21,1.21,0,0,1,13.25,3.67Z"/></svg>