<?xml version="1.0" encoding="utf-8"?>
<!-- Generator: Adobe Illustrator 22.1.0, SVG Export Plug-In . SVG Version: 6.00 Build 0)  -->
<svg width="79" height="72" version="1.1" id="sf" xmlns="http://www.w3.org/2000/svg" xmlns:xlink="http://www.w3.org/1999/xlink" x="0px" y="0px"
	 viewBox="0 0 79 72" style="enable-background:new 0 0 79 72;" xml:space="preserve">
<style type="text/css">
	.st0{fill-rule:evenodd;clip-rule:evenodd;fill:#1B7FB9;}
	.st1{fill:#1B7FB9;}
</style>
<path class="st0" d="M21.8,0.5C9.8,0.5,0,10.3,0,22.2C0,34.2,9.8,44,21.8,44c12,0,21.8-9.8,21.8-21.8C43.5,10.3,33.7,0.5,21.8,0.5z
	 M21.8,40C12,40,4,32,4,22.2c0-9.8,8-17.8,17.8-17.8c9.8,0,17.8,8,17.8,17.8C39.5,32,31.5,40,21.8,40z"/>
<path class="st1" d="M20.9,18.7c0-2.9-1.3-4.3-3.9-4.3c-2.7,0-4,1.4-4,4.1c0,0.7,0.1,1.3,0.2,1.7c0.2,0.6,0.5,1.2,1,1.7
	c0.2,0.2,0.7,0.7,1.5,1.4l1.6,1.4c0.5,0.4,0.8,0.8,1,1.1c0.2,0.4,0.3,0.8,0.3,1.4c0,1.2-0.5,1.8-1.4,1.8c-1,0-1.6-0.8-1.6-2.5v-1.3
	H13v1.8c0,1.5,0.3,2.6,0.9,3.4c0.7,0.8,1.8,1.2,3.3,1.2c2.9,0,4.4-1.4,4.4-4.3c0-1.2-0.2-2.1-0.6-2.8c-0.3-0.5-1-1.2-2-2.1l-1.6-1.4
	c-1-0.9-1.6-1.7-1.6-2.5c0-1,0.4-1.5,1.2-1.5c0.9,0,1.3,0.8,1.3,2.3v1h2.7V18.7z"/>
<path class="st1" d="M24.3,14.6v16.6h2.9v-7.3h4.4v-2.4h-4.4v-4.2H32v-2.6H24.3z"/>
<path class="st0" d="M56.8,28.5c-12,0-21.8,9.8-21.8,21.8c0,12,9.8,21.8,21.8,21.8c12,0,21.8-9.8,21.8-21.8
	C78.5,38.3,68.7,28.5,56.8,28.5z M56.8,68C47,68,39,60,39,50.2c0-9.8,8-17.8,17.8-17.8c9.8,0,17.8,8,17.8,17.8
	C74.5,60,66.5,68,56.8,68z"/>
<path class="st1" d="M50.8,47.4c0-0.9,0-1.7-0.1-2.3c-0.2-2-1.6-3-4.1-3c-2.2,0-3.5,0.8-4,2.5c-0.2,0.6-0.2,1.7-0.2,3.3v5.4
	c0,1.1,0,1.9,0.1,2.3c0.1,0.9,0.3,1.6,0.7,2.1c0.7,0.9,1.8,1.4,3.5,1.4c2.2,0,3.5-0.8,3.9-2.5c0.2-0.6,0.2-1.7,0.2-3.3v-0.5H48v1.6
	c0,1-0.1,1.6-0.2,1.9c-0.2,0.4-0.5,0.6-1.1,0.6c-0.7,0-1.1-0.3-1.3-1c-0.1-0.3-0.1-0.9-0.1-1.8v-7.1c0-0.9,0-1.5,0.1-1.8
	c0.2-0.6,0.6-0.9,1.3-0.9c0.5,0,0.9,0.2,1.1,0.5c0.1,0.3,0.2,0.9,0.2,1.9v0.9h2.9V47.4z"/>
<path class="st1" d="M58.1,58.9h2.9V42.3h-2.9V49h-2.5v-6.8h-2.9v16.7h2.9v-7.5h2.5V58.9z"/>
<path class="st1" d="M63.4,42.3v16.7h2.9v-7.4h4.4v-2.4h-4.4v-4.3h4.9v-2.6H63.4z"/>
</svg>
