<?xml version="1.0" encoding="utf-8"?>
<!-- Generator: Adobe Illustrator 22.1.0, SVG Export Plug-In . SVG Version: 6.00 Build 0)  -->
<svg width="65" height="68" version="1.1" id="admin_x5F_guides" xmlns="http://www.w3.org/2000/svg" xmlns:xlink="http://www.w3.org/1999/xlink" x="0px"
	 y="0px" viewBox="0 0 65 68" style="enable-background:new 0 0 65 68;" xml:space="preserve">
<style type="text/css">
	.st0{fill-rule:evenodd;clip-rule:evenodd;fill:#3855A2;}
</style>
<path class="st0" d="M63.1,66.1c-1.2,1.2-2.9,1.9-4.7,1.9H6.6c-1.8,0-3.4-0.7-4.7-1.9C0.7,64.8,0,63.1,0,61.4V19.9
	c0-1.8,0.7-3.4,1.9-4.7c1.2-1.2,2.9-1.9,4.7-1.9h6.8V1.1C13.4,0.5,14,0,14.6,0H58c0.3,0,0.6,0.1,0.8,0.3c0.2,0.2,0.3,0.5,0.3,0.8
	v22.4c3.4,0.4,5.9,3.2,5.9,6.6v31.3C65,63.1,64.3,64.8,63.1,66.1z M13.4,15.5H6.6c-1.2,0-2.3,0.5-3.1,1.3c-0.8,0.8-1.3,1.9-1.3,3.1
	v41.5c0,1.2,0.5,2.3,1.3,3.1c0.8,0.8,1.9,1.3,3.1,1.3h0.9V30.1c0-3.5,2.6-6.3,5.9-6.6V15.5z M56.8,2.2H15.6v21.3h41.2V2.2z
	 M62.8,30.1c0-1.2-0.5-2.3-1.3-3.1c-0.8-0.8-1.9-1.3-3.1-1.3H14.1c-1.2,0-2.3,0.5-3.1,1.3c-0.8,0.8-1.3,2-1.3,3.1v35.7h48.7
	c1.2,0,2.3-0.5,3.1-1.3c0.8-0.8,1.3-2,1.3-3.1V30.1z M50.2,37.9l-1.1,0.9c-1.3,1-1.4,1.8-1.4,2.5c0,0.6,0.2,1.4,0.5,2.4
	c0.1,0.4,0.3,0.9,0.5,1.5c1.3,3.3,3.3,8.4-1.6,13.6c-1.8,1.9-3.8,2.3-5.3,2.3c-0.1,0-0.1,0-0.2,0c-0.1,0-0.3,0-0.4,0
	c-0.2,0-0.4,0-0.5,0c-1.1,0-2.9,0.5-4.1,1.8c-0.2,0.2-0.5,0.3-0.8,0.3h0c-0.3,0-0.6-0.1-0.8-0.4c-1.1-1.3-2.8-1.7-3.9-1.7
	c-1.7,0-4,0-6.2-2.3c-2.2-2.3-3.2-4.7-3.2-7.3c0-2.2,0.8-4.3,1.5-6.1l0.1-0.2c1.3-3.4,1.6-4.7-0.4-6.3l-1.1-0.9
	c-0.2-0.2-0.4-0.5-0.4-0.8c0-0.3,0.1-0.6,0.3-0.8l4.9-5.6c0.4-0.4,1-0.5,1.5-0.2c3.7,2.7,6.3,1.4,7.3,0.7c0.4-0.3,0.9-0.3,1.3,0
	c1,0.7,3.6,2,7.3-0.7c0.5-0.3,1.1-0.3,1.5,0.2l4.9,5.6c0.2,0.2,0.3,0.5,0.3,0.8C50.6,37.5,50.4,37.7,50.2,37.9z M44.4,33
	c-2.9,1.7-5.9,1.9-8.4,0.5c-2.5,1.4-5.5,1.2-8.4-0.5l-3.5,4l0.2,0.1c3.5,2.8,2.3,5.9,1.1,8.9l-0.1,0.2c-1.3,3.4-2.7,6.9,1.2,11
	c1.6,1.6,3,1.6,4.6,1.6c1.7,0,3.4,0.6,4.8,1.7c1.4-1.1,3.1-1.7,4.9-1.7c0.2,0,0.4,0,0.5,0c0.1,0,0.2,0,0.3,0c0.1,0,0.1,0,0.2,0
	c1.2-0.1,2.5-0.3,3.8-1.6c3.9-4.2,2.5-7.9,1.2-11.2c-0.2-0.6-0.4-1.1-0.6-1.5c-0.5-1.3-0.6-2.3-0.6-3.2c0-1.6,0.7-3,2.3-4.2l0.2-0.1
	L44.4,33z M40.3,48.8l0.6,3.7c0.1,0.4-0.1,0.8-0.4,1.1c-0.3,0.2-0.8,0.3-1.2,0.1L36,51.9l-3.3,1.7c-0.4,0.2-0.8,0.2-1.2-0.1
	c-0.3-0.2-0.5-0.7-0.4-1.1l0.6-3.7L29,46.2c-0.3-0.3-0.4-0.7-0.3-1.1c0.1-0.4,0.5-0.7,0.9-0.8l3.7-0.5l1.7-3.4
	c0.2-0.4,0.6-0.6,1-0.6c0.4,0,0.8,0.2,1,0.6l1.7,3.4l3.7,0.5h0c0.4,0.1,0.8,0.4,0.9,0.8c0.1,0.4,0,0.8-0.3,1.1L40.3,48.8z
	 M37.8,45.9c-0.4-0.1-0.7-0.3-0.8-0.6L36,43.4l-0.9,1.9c-0.2,0.3-0.5,0.6-0.8,0.6l-2.1,0.3l1.5,1.5c0.3,0.3,0.4,0.6,0.3,1l-0.4,2
	l1.8-1c0.3-0.2,0.7-0.2,1,0l1.8,1l-0.4-2c-0.1-0.4,0.1-0.7,0.3-1l1.5-1.5L37.8,45.9z M20.1,5.5h13c0.6,0,1.1,0.5,1.1,1.1
	c0,0.6-0.5,1.1-1.1,1.1h-13c-0.6,0-1.1-0.5-1.1-1.1C19,6,19.5,5.5,20.1,5.5z M20.1,9.7h32.4c0.6,0,1.1,0.5,1.1,1.1
	c0,0.6-0.5,1.1-1.1,1.1H20.1c-0.6,0-1.1-0.5-1.1-1.1C19,10.2,19.5,9.7,20.1,9.7z M20.1,13.8h32.4c0.6,0,1.1,0.5,1.1,1.1
	c0,0.6-0.5,1.1-1.1,1.1H20.1c-0.6,0-1.1-0.5-1.1-1.1C19,14.3,19.5,13.8,20.1,13.8z M20.1,18h32.4c0.6,0,1.1,0.5,1.1,1.1
	s-0.5,1.1-1.1,1.1H20.1c-0.6,0-1.1-0.5-1.1-1.1S19.5,18,20.1,18z"/>
</svg>
