<svg id="affiliate" width="37" height="31" xmlns="http://www.w3.org/2000/svg" viewBox="0 0 36 31"><defs><style>.cls-1{fill:#fff;fill-rule:evenodd;}</style></defs><title>affiliate</title><path class="cls-1" d="M35.28,11.44,32.4,14.3l-4.14,4.12,1.13,1.12a2.5,2.5,0,0,1,0,3.54,2.55,2.55,0,0,1-1.68.73A2.48,2.48,0,0,1,27,25.48a2.51,2.51,0,0,1-1.68.72,2.48,2.48,0,0,1-.73,1.67,2.53,2.53,0,0,1-1.68.73,2.51,2.51,0,0,1-.73,1.67,2.55,2.55,0,0,1-3.57,0l-3.08-3.06-1.28,1.28a2.25,2.25,0,0,1-1.58.64,2.21,2.21,0,0,1-1.57-.64l-.42-.42A2.2,2.2,0,0,1,10,26.73a2.2,2.2,0,0,1-1.35-.64l-.42-.41a2.2,2.2,0,0,1-.64-1.35,2.21,2.21,0,0,1-1.35-.63l-.42-.42a2.15,2.15,0,0,1-.64-1.34,2.22,2.22,0,0,1-1.36-.64l-.41-.41a2.18,2.18,0,0,1-.66-1.57,2.16,2.16,0,0,1,.66-1.56l.93-.93L2.2,14.52l-2-2.12a1.29,1.29,0,0,1,0-1.5c.32-.32,1-.49,1.33-.18l2.14,2.13L19.92,28.94c.35.35.56.35.9,0s.17-.72-.17-1.07L16.24,23.5c-.32-.32-.14-1,.18-1.32s1-.5,1.33-.18l4.41,4.37a.85.85,0,0,0,.62.26c.24,0,.11.09.28-.08a.68.68,0,0,0,0-1.07L18.65,21.1c-.31-.31-.14-1,.18-1.32s1-.49,1.33-.17L24.57,24a.9.9,0,0,0,1.25.17c.17-.16-.09-.21-.09-.44a.88.88,0,0,0-.26-.63l-4.4-4.37a1,1,0,0,1,.17-1.32c.32-.32,1-.5,1.33-.18L27,21.58c.35.35.73.52,1.08.18s.35-.55,0-.9l-1.71-1.7L17.09,10l-3.26-.31-.23,1.12c-.41,2-2.75,3-4.79,2.57A3.75,3.75,0,0,1,5.86,9l.38-1.83a6.72,6.72,0,0,1,7.89-5.23h0l8.06,1.44a2.33,2.33,0,0,1,.57-.91L24.48.71A2.47,2.47,0,0,1,28,.71L35.28,8A2.43,2.43,0,0,1,35.28,11.44ZM5.78,17.71l-1.2,1.2a.59.59,0,0,0,0,.83l.42.41a.6.6,0,0,0,.84,0L7,19Zm2.42,2.4L7,21.3a.59.59,0,0,0,0,.83l.42.42a.6.6,0,0,0,.84,0l1.2-1.2Zm2.41,2.39L9.4,23.7a.58.58,0,0,0-.17.41.59.59,0,0,0,.17.42l.42.41a.6.6,0,0,0,.84,0l1.2-1.19ZM13,24.9l-1.2,1.19a.57.57,0,0,0,0,.83l.41.42a.6.6,0,0,0,.84,0l1.21-1.2ZM22.41,6.22l-1-1L13.84,3.84h0a4.51,4.51,0,0,0-5.63,3.6L7.82,9.27a1.64,1.64,0,0,0,.23,1.41,1.39,1.39,0,0,0,1.08.73A1.64,1.64,0,0,0,11.29,10l.37-1.75a1.47,1.47,0,0,1,1.16-.82h.07l4.73.23a.78.78,0,0,1,.5.23l8.63,8.83,3-3Zm11.36,3L26.8,2a.8.8,0,0,0-.58-.24.78.78,0,0,0-.58.24L24.09,3.57a.82.82,0,0,0,0,1.16l7.38,7.41,2.13-1.93a.84.84,0,0,0,.24-.58C33.84,9.41,33.93,9.38,33.77,9.23Zm-2.21,1a.82.82,0,1,1,.82-.82A.82.82,0,0,1,31.56,10.27Z"/></svg>