<svg id="affiliate_status" width="74" height="48" xmlns="http://www.w3.org/2000/svg" viewBox="0 0 74 48"><defs><style>.cls-1{fill:#2075bb;fill-rule:evenodd;}</style></defs><title>affiliate_status</title><path class="cls-1" d="M73.49,24l-9,4.37-4,3.62A44.27,44.27,0,0,1,50,39.12L32.57,47.61a3.94,3.94,0,0,1-1.68.39,4.21,4.21,0,0,1-1.26-.21,3.83,3.83,0,0,1-2.21-1.95A3.68,3.68,0,0,1,27,43.78l-1.65.81a3.79,3.79,0,0,1-1.68.39,3.84,3.84,0,0,1-3.46-2.14,3.87,3.87,0,0,1-.33-2.3l-.5,0A3.85,3.85,0,0,1,16,38.43a3.81,3.81,0,0,1,.76-4.4,3.76,3.76,0,0,1-1.62-1.68,3.71,3.71,0,0,1-.18-2.92,3.81,3.81,0,0,1,2-2.2L23.53,24a.91.91,0,0,1,1.21.42.9.9,0,0,1-.43,1.2l-6.65,3.24a2.08,2.08,0,0,0-1,1.17,1.94,1.94,0,0,0,.09,1.53,2,2,0,0,0,1.17,1,2,2,0,0,0,1.54-.09l4.49-2.19,8-3.92a.92.92,0,0,1,1.21.42A.91.91,0,0,1,32.75,28L20.22,34.12,18.49,35a2,2,0,0,0-.92,2.7,2,2,0,0,0,2.71.92L22,37.75,25.63,36,36,30.94a.9.9,0,1,1,.79,1.62l-14,6.82A2,2,0,1,0,24.57,43l4.8-2.33L38.91,36a.91.91,0,0,1,1.21.42.9.9,0,0,1-.43,1.2L30,42.39a2.06,2.06,0,0,0-1,1.16A2,2,0,0,0,29,45.09a2.09,2.09,0,0,0,1.17,1,1.92,1.92,0,0,0,1.54-.1l17.45-8.48a42.67,42.67,0,0,0,10.1-6.86l3.57-3.24L52.23,5.88a.9.9,0,0,1,.42-1.2L61.76.24a.94.94,0,0,1,.7,0A.87.87,0,0,1,63,.65L73.91,22.76A.9.9,0,0,1,73.49,24ZM61.74,2.26,54.26,5.9,64.37,26.44l7.47-3.63Zm-19,13.15-7-2.38a12.29,12.29,0,0,1-5.4,6.46,10.16,10.16,0,0,1-4.91,1.19,15.68,15.68,0,0,1-5-.9.9.9,0,1,1,.59-1.7c3.32,1.13,6.17,1.08,8.47-.15,3.64-1.93,4.8-6.21,4.82-6.26a1,1,0,0,1,.45-.57.93.93,0,0,1,.73-.06l7.87,2.66c1.6.56,2.88.53,3.76-.07a4.31,4.31,0,0,0,1.5-2.76l-18-6.18A5.35,5.35,0,0,0,26.53,5l-.94.45a7.25,7.25,0,0,1-5.52.32l-1-.35L11.36,27.83a.91.91,0,0,1-.85.6.69.69,0,0,1-.31-.06L.61,25.1A.89.89,0,0,1,.05,24L8.1.6A.9.9,0,0,1,8.55.09a.94.94,0,0,1,.7,0l9.58,3.24a1.19,1.19,0,0,1,.22.12L20.66,4a5.38,5.38,0,0,0,4.11-.22l.94-.46A7.3,7.3,0,0,1,31.16,3L49.88,9.39a.9.9,0,0,1,.6.88c0,.13-.12,3.3-2.36,4.84C46.73,16.06,44.92,16.16,42.73,15.41ZM17.37,4.75l-.18-.09L9.52,2.05,2.07,23.68,10,26.37,17.4,4.77Z" transform="translate(0 0)"/></svg>