<svg id="affiliate" width="60" height="70" xmlns="http://www.w3.org/2000/svg" viewBox="0 0 60 70"><defs><style>.cls-1{fill:#1c7eb9;fill-rule:evenodd;}</style></defs><title>affiliate</title><path class="cls-1" d="M60,70H48.61V58.64H53.1V49H31.16v9.69h4.53V70H24.31V58.64h4.56V49h-22v9.69h4.47V70H0V58.64H4.63v-12H28.87V37.74H11.32a6.26,6.26,0,0,1-6.26-6.25V6.25A6.26,6.26,0,0,1,11.32,0H48.7A6.25,6.25,0,0,1,55,6.25V31.49a6.25,6.25,0,0,1-6.26,6.25H31.16v8.92H55.39v12H60ZM2.29,60.92v6.79H9.1V60.92ZM17,2.29H11.32a4,4,0,0,0-4,4v4.94H17Zm0,11.18H7.35v18a4,4,0,0,0,4,4H17ZM52.67,6.25a4,4,0,0,0-4-4H19.29v8.9H52.67Zm-4,29.21a4,4,0,0,0,4-4v-18H19.29v22ZM26.6,60.92v6.79h6.8V60.92Zm31.11,0H50.9v6.79h6.81Z"/></svg>