<?xml version="1.0" encoding="utf-8"?>
<!-- Generator: Adobe Illustrator 22.1.0, SVG Export Plug-In . SVG Version: 6.00 Build 0)  -->
<svg width="60" height="60" version="1.1" id="alerts" xmlns="http://www.w3.org/2000/svg" xmlns:xlink="http://www.w3.org/1999/xlink" x="0px" y="0px"
	 viewBox="0 0 67 67" style="enable-background:new 0 0 67 67;" xml:space="preserve">
<style type="text/css">
	.st0{fill:#2075BB;}
	.st1{fill-rule:evenodd;clip-rule:evenodd;fill:#2075BB;}
</style>
<path class="st0" d="M47.3,67H5.6C4,67,3,67,2.2,66.6c-0.8-0.4-1.4-1-1.8-1.8C0,64,0,63,0,61.4V5.6C0,4,0,3,0.4,2.2
	c0.4-0.8,1-1.4,1.8-1.8C3,0,4,0,5.6,0h55.8C63,0,64,0,64.8,0.4c0.8,0.4,1.4,1,1.8,1.8C67,3,67,4,67,5.6v41.7c0,0.2,0,0.3,0,0.4
	c0,0,0,0,0,0c0,0.5,0,0.8-0.1,1.1c-0.1,0.4-0.3,0.8-0.5,1.2c-0.3,0.4-0.6,0.7-1.1,1.2L51.3,65.4c-0.5,0.5-0.8,0.8-1.2,1.1
	c-0.4,0.2-0.7,0.4-1.2,0.5C48.5,67,48.2,67,47.7,67c0,0,0,0,0,0C47.6,67,47.5,67,47.3,67z M5.6,2.7c-1.2,0-1.9,0-2.2,0.1
	C3.1,2.9,2.9,3.1,2.8,3.4C2.7,3.7,2.7,4.5,2.7,5.6v55.8c0,1.2,0,1.9,0.1,2.2c0.1,0.3,0.3,0.5,0.6,0.6c0.3,0.1,1,0.1,2.2,0.1h40.8
	V49.9c0-0.9,0-1.4,0.3-2c0.3-0.5,0.7-0.9,1.2-1.2c0.6-0.3,1.1-0.3,2-0.3h14.5V5.6c0-1.2,0-1.9-0.1-2.2c-0.1-0.2-0.3-0.5-0.6-0.6
	c-0.3-0.1-1.1-0.1-2.2-0.1H5.6z M49.1,49.1c0,0.2,0,0.5,0,0.8v13.9c0.1-0.1,0.2-0.2,0.3-0.3l14.1-14.1c0.1-0.1,0.2-0.2,0.3-0.3H49.9
	C49.6,49.1,49.2,49.1,49.1,49.1z M49.1,49L49.1,49L49.1,49z"/>
<path class="st0" d="M25.9,38.4l9.2,17H16.5L25.9,38.4 M25.9,33.9L13,57.5h25.8L25.9,33.9L25.9,33.9z"/>
<path class="st0" d="M24.8,43.5H27V50h-2.1V43.5z"/>
<path class="st0" d="M24.8,51H27v2.1h-2.1V51z"/>
<path class="st1" d="M10,12h48v3H10V12z"/>
<path class="st1" d="M10,22h28v3H10V22z"/>
</svg>
