<?xml version="1.0" encoding="utf-8"?>
<!-- Generator: Adobe Illustrator 22.1.0, SVG Export Plug-In . SVG Version: 6.00 Build 0)  -->
<svg width="74" height="74" version="1.1" id="analysis" xmlns="http://www.w3.org/2000/svg" xmlns:xlink="http://www.w3.org/1999/xlink" x="0px" y="0px"
	 viewBox="0 0 74 74" style="enable-background:new 0 0 74 74;" xml:space="preserve">
<style type="text/css">
	.st0{fill-rule:evenodd;clip-rule:evenodd;fill:#3C81C0;}
</style>
<path class="st0" d="M72.8,16.1H40.7l4.4-3c0.3-0.2,0.5-0.6,0.5-1V2.4V1.2c0-0.6-0.5-1.2-1.2-1.2H29c-0.6,0-1.2,0.5-1.2,1.2v1.2v9.7
	c0,0.4,0.2,0.8,0.5,1l4.7,3H1.2c-0.6,0-1.2,0.5-1.2,1.2v55.6C0,73.5,0.5,74,1.2,74H37h35.8c0.6,0,1.2-0.5,1.2-1.2V17.2
	C74,16.6,73.5,16.1,72.8,16.1z M35.8,63.6h-28v-7h28L35.8,63.6L35.8,63.6z M35.8,48.2h-28v-7h28L35.8,48.2L35.8,48.2z M35.8,32.8
	h-28v-7h28L35.8,32.8L35.8,32.8z M35.8,23.5H6.7c-0.6,0-1.2,0.5-1.2,1.2v9.3c0,0.6,0.5,1.2,1.2,1.2h29.1v3.9H6.7
	c-0.6,0-1.2,0.5-1.2,1.2v9.3c0,0.6,0.5,1.2,1.2,1.2h29.1v3.9H6.7c-0.6,0-1.2,0.5-1.2,1.2v9.3c0,0.6,0.5,1.2,1.2,1.2h29.1v5.7H2.3
	V18.4h33.5V23.5z M37,15.8l-6.8-4.4V2.4V2.3h13.1v0.1v9.1L37,15.8z M38.2,25.8h5.7v7h-5.7V25.8z M38.2,41.2h16.2v7H38.2V41.2z
	 M38.2,56.7h25.5v7H38.2V56.7z M71.7,71.7H38.2V66h26.6c0.6,0,1.2-0.5,1.2-1.2v-9.3c0-0.6-0.5-1.2-1.2-1.2H38.2v-3.9h17.4
	c0.6,0,1.2-0.5,1.2-1.2v-9.3c0-0.6-0.5-1.2-1.2-1.2H38.2v-3.9H45c0.6,0,1.2-0.5,1.2-1.2v-9.3c0-0.6-0.5-1.2-1.2-1.2h-6.9v-5.1h33.5
	V71.7L71.7,71.7z"/>
</svg>
