<svg id="analytics" width="61" height="61" xmlns="http://www.w3.org/2000/svg" viewBox="0 0 61 61"><defs><style>.cls-1{fill:#3c81c0;fill-rule:evenodd;}</style></defs><title>analytics1</title><path class="cls-1" d="M55.88,10.24a5.05,5.05,0,0,1-2.59-.71L35.55,27.3a5.12,5.12,0,1,1-8.84,0l-3.79-3.78a5.09,5.09,0,0,1-5.15,0L9.55,31.74a5.06,5.06,0,0,1,.69,2.57,5.14,5.14,0,1,1-2.55-4.43l8.22-8.23a5.05,5.05,0,0,1-.69-2.56,5.12,5.12,0,1,1,10.24,0,5,5,0,0,1-.69,2.55l3.81,3.79a5.11,5.11,0,0,1,5.11,0L51.44,7.66a5.12,5.12,0,1,1,4.44,2.58ZM5.12,31.82a2.49,2.49,0,1,0,2.49,2.49A2.48,2.48,0,0,0,5.12,31.82ZM20.34,16.6a2.49,2.49,0,1,0,2.49,2.49A2.48,2.48,0,0,0,20.34,16.6ZM31.13,27.38a2.49,2.49,0,1,0,2.49,2.49A2.49,2.49,0,0,0,31.13,27.38ZM55.88,2.63a2.49,2.49,0,1,0,2.49,2.49A2.48,2.48,0,0,0,55.88,2.63ZM3.8,44.47H6.44v13.9H19V33h2.64V58.37h8.8V40.66h2.63V58.37H54.56V21.62H57.2V58.37H61V61H0V58.37H3.8Z"/></svg>