<?xml version="1.0" encoding="utf-8"?>
<!-- Generator: Adobe Illustrator 22.1.0, SVG Export Plug-In . SVG Version: 6.00 Build 0)  -->
<svg width="22" height="27" version="1.1" id="audit" xmlns="http://www.w3.org/2000/svg" xmlns:xlink="http://www.w3.org/1999/xlink" x="0px" y="0px"
	 viewBox="0 0 24 29" style="enable-background:new 0 0 24 29;" xml:space="preserve">
<style type="text/css">
	.st0{fill:#FFFFFF;}
</style>
<path class="st0" d="M5,6.1c-0.1,0-0.3,0.1-0.3,0.3v1.5C4.8,8,4.9,8.1,5,8.1h12.1c0.1,0,0.3-0.1,0.3-0.3V6.4c0-0.1-0.1-0.3-0.3-0.3
	H5z M10.9,10.7H5c-0.1,0-0.3,0.1-0.3,0.3v1.5c0,0.1,0.1,0.3,0.3,0.3h5.8c0.1,0,0.3-0.1,0.3-0.3v-1.5C11.1,10.8,11,10.7,10.9,10.7z
	 M9.3,25.1H2.3V2.9h17.7V13c0,0.1,0.1,0.3,0.3,0.3H22c0.1,0,0.3-0.1,0.3-0.3V1.7c0-0.6-0.5-1-1-1H1c-0.6,0-1,0.5-1,1v24.7
	c0,0.6,0.5,1,1,1h8.3c0.1,0,0.3-0.1,0.3-0.3v-1.8C9.6,25.2,9.5,25.1,9.3,25.1z M23.2,22.3h-4.5v-1.2c1.5-0.4,2.5-1.8,2.5-3.4
	c0-1.9-1.6-3.5-3.5-3.5s-3.5,1.6-3.5,3.5c0,1.6,1.1,2.9,2.5,3.4v1.2h-4.5c-0.3,0-0.5,0.2-0.5,0.5v4.8c0,0.3,0.2,0.5,0.5,0.5h11.1
	c0.3,0,0.5-0.2,0.5-0.5v-4.8C23.7,22.6,23.5,22.3,23.2,22.3z M16.1,17.8c0-0.9,0.7-1.6,1.6-1.6c0.9,0,1.6,0.7,1.6,1.6
	c0,0.9-0.7,1.6-1.6,1.6C16.8,19.4,16.1,18.7,16.1,17.8z M21.8,26.2h-8.2v-1.9h8.2V26.2z"/>
</svg>
