<svg id="avatar" width="52" height="65" xmlns="http://www.w3.org/2000/svg" viewBox="0 0 51.94 64.81"><defs><style>.cls-1{fill:#2075bb;fill-rule:evenodd;}</style></defs><title>avatar_profile</title><path class="cls-1" d="M16.3,48.14l-10.55,4A9,9,0,0,0,0,60.49v3.24a1.08,1.08,0,0,0,1.08,1.08H50.85a1.08,1.08,0,0,0,1.09-1.08V60.49a9,9,0,0,0-5.75-8.33l-10.56-4a3.26,3.26,0,0,1-2.09-3V43a3.09,3.09,0,0,1,1.05-2.38,12,12,0,0,0,4.35-9.24A4.34,4.34,0,0,0,42,30.07,4.3,4.3,0,0,0,43.29,27V23.77a4.32,4.32,0,0,0-1.46-3.25C43,15.58,41.66,10.08,37,8.23,35.16,2.5,29,0,22.94,0,12.78,0,7.77,10.31,10.42,20.28a4.27,4.27,0,0,0-1.77,3.49V27a4.29,4.29,0,0,0,1.27,3.06A4.37,4.37,0,0,0,13,31.33a12,12,0,0,0,4.34,9.24A3.06,3.06,0,0,1,18.39,43v2.17a3.23,3.23,0,0,1-2.09,3Zm2.44-9.22a10,10,0,0,1-3.59-8.25c0-.11,0-.23,0-.34a1.08,1.08,0,0,0-1.09-1.16H13A2.16,2.16,0,0,1,10.81,27V23.77a2.16,2.16,0,0,1,.63-1.54A2.2,2.2,0,0,1,13,21.6a1.08,1.08,0,1,0,0-2.16,4.43,4.43,0,0,0-.51.06c-2.15-8.56,1.8-17.34,10.48-17.34,5.22,0,10.93,2.16,12.08,7.16.17.72.82.79,1.16.92,3.54,1.39,4.32,5.51,3.62,9.31a3.46,3.46,0,0,0-.84-.11,1.08,1.08,0,1,0,0,2.16,2.17,2.17,0,0,1,2.17,2.16V27A2.17,2.17,0,0,1,39,29.16h-1.1a1.11,1.11,0,0,0-.8.35,1.07,1.07,0,0,0-.28.82c0,.1,0,.22,0,.33a10,10,0,0,1-3.59,8.25,5.27,5.27,0,0,0-1.81,4v2.17a5.43,5.43,0,0,0,3.48,5l10.56,4a6.79,6.79,0,0,1,4.35,6.31v2.16H2.16V60.49a6.79,6.79,0,0,1,4.36-6.31l10.55-4a5.42,5.42,0,0,0,3.49-5V43a5.25,5.25,0,0,0-1.82-4Z"/></svg>