<svg id="award" width="75" height="75" xmlns="http://www.w3.org/2000/svg" viewBox="0 0 75 75"><defs><style>.cls-1{fill:#2075bb;fill-rule:evenodd;}</style></defs><title>award</title><path class="cls-1" d="M73.73,19.87,56,37.59a23.29,23.29,0,1,1-37,0L1.27,19.87A4.31,4.31,0,0,1,0,16.8V3.43A3.44,3.44,0,0,1,3.43,0H71.57A3.44,3.44,0,0,1,75,3.43V16.8A4.31,4.31,0,0,1,73.73,19.87ZM16.58,51.71A20.92,20.92,0,1,0,37.5,30.79,20.94,20.94,0,0,0,16.58,51.71Zm24.82-23L53.57,16.58H21.43L33.6,28.75a23.21,23.21,0,0,1,7.8,0ZM3.43,2.37A1.05,1.05,0,0,0,2.37,3.43V16.8A2,2,0,0,0,3,18.2L20.53,35.78a23.3,23.3,0,0,1,10.35-6.4l-13.06-13a1.34,1.34,0,0,1-.2-.21L4.18,2.68A1.06,1.06,0,0,0,3.43,2.37Zm3.78,0L19.06,14.21H55.94L67.79,2.37ZM72.63,16.8V3.43a1.06,1.06,0,0,0-1.81-.75L57.38,16.12a1.34,1.34,0,0,1-.2.21L44.12,29.38a23.3,23.3,0,0,1,10.35,6.4L72.05,18.2a2,2,0,0,0,.58-1.4ZM23.53,47v.16a1.19,1.19,0,1,1-2.37,0V47a1.19,1.19,0,0,1,2.37,0Zm-.64,4.74A14.63,14.63,0,0,0,37.5,66.32a1.18,1.18,0,0,1,0,2.36,17,17,0,0,1-17-17,1.18,1.18,0,0,1,2.36,0Zm9,1.84-1.14,3.81a1.18,1.18,0,0,1-2.27-.68l3-10a3.5,3.5,0,0,1,3.36-2.5h.46a3.48,3.48,0,0,1,3.36,2.5l3,10a1.18,1.18,0,0,1-.79,1.47,1.33,1.33,0,0,1-.34.05,1.18,1.18,0,0,1-1.13-.84l-1.15-3.81Zm4.5-6.16a1.15,1.15,0,0,0-1.1-.81h-.46a1.13,1.13,0,0,0-1.09.81l-1.14,3.79h4.92Zm7,2.63h1V49a1.19,1.19,0,1,1,2.37,0v1h1a1.19,1.19,0,1,1,0,2.37h-1v1a1.19,1.19,0,1,1-2.37,0v-1h-1a1.19,1.19,0,1,1,0-2.37Zm9.41,5.09A1.18,1.18,0,0,1,54,56.29v.16a1.19,1.19,0,0,1-2.37,0v-.16A1.18,1.18,0,0,1,52.82,55.11Zm-.71-3.4A14.63,14.63,0,0,0,37.5,37.11a1.19,1.19,0,0,1,0-2.37,17,17,0,0,1,17,17,1.18,1.18,0,0,1-2.36,0Z"/></svg>