<svg id="balance" width="50" height="37" xmlns="http://www.w3.org/2000/svg" viewBox="0 0 50 37"><defs><style>.cls-1{fill:#2075bb;fill-rule:evenodd;}</style></defs><title>balance </title><path class="cls-1" d="M46.49,37h-43A3.54,3.54,0,0,1,0,33.45V3.55A3.54,3.54,0,0,1,3.51,0h43A3.54,3.54,0,0,1,50,3.55v29.9A3.54,3.54,0,0,1,46.49,37ZM48.33,3.55a1.85,1.85,0,0,0-1.84-1.87h-43A1.86,1.86,0,0,0,1.67,3.55v29.9a1.86,1.86,0,0,0,1.84,1.87h43a1.85,1.85,0,0,0,1.84-1.87ZM36.67,24.39h9.16v6.72H36.67Zm1.66,5h5.84V26.07H38.33ZM30.83,5.89h15V16h-15ZM32.5,14.3H44.17V7.57H32.5ZM35,31.11H25.83V24.39H35Zm-1.67-5H27.5v3.36h5.83ZM15,24.39h9.17v6.72H15Zm1.67,5H22.5V26.07H16.67Zm6.66-16.82a.82.82,0,0,1-.83-.84.87.87,0,0,1,.24-.59.86.86,0,0,1,1.19,0,.92.92,0,0,1,.24.59.94.94,0,0,1-.24.6A.87.87,0,0,1,23.33,12.61ZM20,10.93a.84.84,0,0,1,0,1.68H18.33a.84.84,0,0,1,0-1.68Zm3.33-2.52h-7.5a.84.84,0,0,1,0-1.68h7.5a.84.84,0,1,1,0,1.68Zm-7.5,3.36a.83.83,0,0,1-.83.84h-.83a.84.84,0,1,1,0-1.68H15A.84.84,0,0,1,15.83,11.77ZM12.5,8.41H5A.84.84,0,0,1,5,6.73h7.5a.84.84,0,0,1,0,1.68ZM5,10.93h.83a.84.84,0,1,1,0,1.68H5a.84.84,0,0,1,0-1.68Zm4.17,1.68a.84.84,0,1,1,0-1.68h1.66a.84.84,0,1,1,0,1.68Zm4.16,18.5H4.17V24.39h9.16Zm-1.66-5H5.83v3.36h5.84Z"/></svg>