<?xml version="1.0" encoding="utf-8"?>
<!-- Generator: Adobe Illustrator 22.1.0, SVG Export Plug-In . SVG Version: 6.00 Build 0)  -->
<svg width="63" height="72" version="1.1" id="bell" xmlns="http://www.w3.org/2000/svg" xmlns:xlink="http://www.w3.org/1999/xlink" x="0px" y="0px"
	 viewBox="0 0 63 72" style="enable-background:new 0 0 63 72;" xml:space="preserve">
<style type="text/css">
	.st0{fill-rule:evenodd;clip-rule:evenodd;fill:#1982B8;}
</style>
<path class="st0" d="M62.9,60.6c-0.1,0.5-0.5,0.8-1,0.9l-12.4,2.1c-2.3,0.4-4.4,0.7-6.4,1c-2.3,4.5-6.7,7.4-11.6,7.4
	c-4.9,0-9.3-2.9-11.6-7.3c-2-0.3-4.1-0.6-6.4-1L1.1,61.5c-0.5-0.1-0.9-0.4-1-0.9c-0.1-0.5,0-1,0.3-1.3c5.8-5.8,8.7-13,8.7-21.3V26.2
	c0.1-8.3,5.8-14.6,11.5-17.3c1.3-0.6,2.7-1.1,4.1-1.5V6.5c0-3.6,2.9-6.5,6.5-6.5s6.5,2.9,6.5,6.5v0.8c1.5,0.4,3.1,0.9,4.6,1.6
	c5.2,2.4,11.2,8.3,11.1,17.3V38c0,8.1,3.1,15.3,9.2,21.3C63,59.6,63.1,60.1,62.9,60.6z M31.5,69.4c3.3,0,6.4-1.6,8.4-4.3
	c-2.9,0.3-5.7,0.5-8.4,0.5c-2.7,0-5.4-0.2-8.4-0.5C25.1,67.7,28.2,69.4,31.5,69.4z M35.2,6.5c0-2.2-1.8-3.9-3.9-3.9
	s-3.9,1.8-3.9,3.9v0.3c2.6-0.4,5.2-0.4,7.8-0.1V6.5z M50.9,38V26.2c0-7.2-4.8-12.7-9.6-14.9c-1.6-0.7-3.3-1.3-5-1.6c0,0,0,0-0.1,0
	C33,9,29.6,9,26.3,9.7c0,0,0,0,0,0c-1.6,0.4-3.1,0.9-4.6,1.5c-5,2.3-10,7.8-10,14.9V38c0,8.2-2.6,15.4-7.8,21.4l10,1.7
	c2.5,0.4,4.8,0.8,7,1.1c0,0,0,0,0,0c0.9,0.1,1.9,0.2,2.8,0.3c0,0,0.1,0,0.1,0c0.8,0.1,1.6,0.1,2.4,0.2c0.2,0,0.3,0,0.5,0
	c0.7,0,1.4,0.1,2,0.1c0.1,0,0.3,0,0.4,0c1.6,0.1,3.2,0.1,4.8,0c0.1,0,0.3,0,0.4,0c0.7,0,1.4-0.1,2.1-0.1c0.2,0,0.3,0,0.5,0
	c0.8-0.1,1.6-0.1,2.4-0.2c0,0,0,0,0,0c0.9-0.1,1.8-0.2,2.8-0.3c0,0,0,0,0,0c2.2-0.3,4.5-0.6,7-1.1l10-1.7
	C53.7,53.2,50.9,45.9,50.9,38z M38.6,17.2c-4.4-2-9.7-2-14.1,0c-2.3,1.1-6.2,4.2-6.2,9c0,0.7-0.6,1.3-1.3,1.3c0,0,0,0,0,0
	c-0.7,0-1.3-0.6-1.3-1.3c0-6.1,4.9-10,7.8-11.3c5-2.3,11.2-2.3,16.3,0c0.7,0.3,0.9,1.1,0.6,1.7C40,17.2,39.2,17.5,38.6,17.2z"/>
</svg>
