<svg id="book" width="57" height="78" xmlns="http://www.w3.org/2000/svg" viewBox="0 0 56.8 77.49"><defs><style>.cls-1{fill:#1c7eb9;fill-rule:evenodd;}</style></defs><title>book</title><path class="cls-1" d="M52.59,70.6H19.13v4.72a2.13,2.13,0,0,1-1.08,1.88,2.16,2.16,0,0,1-2.17,0l-3.47-2-3.48,2a2.09,2.09,0,0,1-1.08.29,2.11,2.11,0,0,1-1.08-.29,2.14,2.14,0,0,1-1.09-1.88V70.6H4.43A4.43,4.43,0,0,1,0,66.18V1.28A1.28,1.28,0,0,1,1.28,0H47.2a4.22,4.22,0,0,1,4.21,4.21V6.29h1.18a4.21,4.21,0,0,1,4.21,4.2V66.4A4.21,4.21,0,0,1,52.59,70.6Zm-44.34,4,3.08-1.77a2.19,2.19,0,0,1,2.16,0l3.08,1.77V64.32H8.25ZM2.56,66.18A1.87,1.87,0,0,0,4.43,68H5.68V64.32H2.56Zm46.29-62A1.65,1.65,0,0,0,47.2,2.56H2.56V61.75H47.2a1.64,1.64,0,0,0,1.65-1.64Zm5.39,6.28a1.65,1.65,0,0,0-1.65-1.64H51.41V60.11a4.22,4.22,0,0,1-4.21,4.21H19.13V68H52.59a1.65,1.65,0,0,0,1.65-1.64ZM44,55.41H33.25a1.29,1.29,0,1,1,0-2.57H44a1.29,1.29,0,0,1,0,2.57Zm0-5.07H28.86a1.28,1.28,0,0,1,0-2.56H44a1.28,1.28,0,1,1,0,2.56Zm0-8.14H41.24a1.28,1.28,0,1,1,0-2.56H44a1.28,1.28,0,0,1,0,2.56ZM40.3,23.34H11.12A2.14,2.14,0,0,1,9,21.21V13.48a2.14,2.14,0,0,1,2.14-2.13H40.3a2.14,2.14,0,0,1,2.13,2.13V21.2A2.14,2.14,0,0,1,40.3,23.34Zm-.43-9.43H11.54v6.87H39.87ZM24.3,39.64H35.21a1.28,1.28,0,1,1,0,2.56H24.3a1.28,1.28,0,1,1,0-2.56Zm0,8.14h7.3c.7,0-7.33.57-7.33,1.28s8,1.28,7.33,1.28H24.3a1.28,1.28,0,1,1,0-2.56Zm0,5.06h3.13a1.29,1.29,0,0,1,0,2.57H24.3a1.29,1.29,0,0,1,0-2.57Z"/></svg>