<?xml version="1.0" encoding="utf-8"?>
<!-- Generator: Adobe Illustrator 22.1.0, SVG Export Plug-In . SVG Version: 6.00 Build 0)  -->
<svg width="52" heihgt="76" version="1.1" id="burn" xmlns="http://www.w3.org/2000/svg" xmlns:xlink="http://www.w3.org/1999/xlink" x="0px" y="0px"
	 viewBox="0 0 52 76" style="enable-background:new 0 0 52 76;" xml:space="preserve">
<style type="text/css">
	.st0{fill-rule:evenodd;clip-rule:evenodd;fill:#4A8BC5;}
</style>
<path class="st0" d="M13.4,75.8c0.2,0.1,0.4,0.2,0.6,0.2c0.6,0,1-0.5,1-1c0-0.1,0-0.3-0.1-0.4C8.5,53.4,18,43.3,22,40.1
	c-0.3,13.6,7.1,23.8,7.4,24.3c0.3,0.3,0.7,0.5,1.1,0.4c2.1-0.6,5.4-2.7,7.4-4.1c-0.6,5.5-2.9,14-2.9,14.1c-0.1,0.5,0.2,1.1,0.7,1.3
	c0.3,0.1,0.6,0,0.9-0.2c0.5-0.3,11.1-8.6,14.5-22.5c3.5-14-6.2-27.7-6.6-28.2c-0.3-0.5-1-0.6-1.4-0.2c-0.3,0.2-0.5,0.6-0.4,0.9
	c0.4,6.9-1.3,13.8-4.7,19.9c0.6-3.7,1-9.1,0.3-17C36.8,8.8,18.6,0.2,18.4,0.1c-0.5-0.2-1.1,0-1.4,0.5c-0.1,0.2-0.1,0.4-0.1,0.6
	c1.1,8.2-0.9,11.8-6,21.4c-2.1,3.9-4.6,8.7-7.7,15.2C-7.8,60.7,13.2,75.7,13.4,75.8z M5.1,38.6c3.1-6.4,5.6-11.2,7.7-15.1
	c4.8-9,7-13.1,6.4-20.6c4.4,2.6,15.9,10.8,17.1,25.9c1.1,13.6-0.7,19.4-1.8,21.6c-0.2,0.4-0.4,0.7-0.6,1c-0.4,0.4-0.4,1.1,0,1.5
	c0.4,0.4,1,0.4,1.4,0c5.9-6.5,9.3-14.8,9.6-23.5c2.6,4.7,6.7,14.1,4.4,23.4c-2.3,9.1-8,15.8-11.3,19.1c0.9-3.8,2.3-9.9,2.3-13.4
	c0-0.6-0.5-1-1-1c-0.2,0-0.4,0.1-0.6,0.2c-0.1,0-4.9,3.6-7.9,4.8C29,60,23.2,50.1,24.2,38.1c0-0.6-0.4-1.1-0.9-1.1
	c-0.2,0-0.4,0-0.6,0.1c-0.2,0.1-16.8,9.8-10.5,35C7.1,67.5-3,55.5,5.1,38.6L5.1,38.6z"/>
</svg>
