<svg id="buy_sf" width="60" height="63" xmlns="http://www.w3.org/2000/svg" viewBox="0 0 59.67 63.01"><defs><style>.cls-1,.cls-2{fill:#fff;}.cls-1{fill-rule:evenodd;}</style></defs><title>buy_sf</title><path class="cls-1" d="M57.62,62.49V50a2.12,2.12,0,0,0-.6-1.47,2.06,2.06,0,0,0-1.46-.61,2,2,0,0,0-1.45.61A2.08,2.08,0,0,0,53.5,50v2.08a1.07,1.07,0,0,1-.3.74,1,1,0,0,1-1.75-.74V49a2.12,2.12,0,0,0-.61-1.48,2,2,0,0,0-1.45-.61,2.06,2.06,0,0,0-1.46.61,2.16,2.16,0,0,0-.6,1.48v3.12a1.07,1.07,0,0,1-.3.74,1,1,0,0,1-.73.3,1,1,0,0,1-1-1V47.91a2.08,2.08,0,0,0-.6-1.48,2,2,0,0,0-2.91,0,2.08,2.08,0,0,0-.6,1.48v4.16a1,1,0,0,1-1,1,1,1,0,0,1-.73-.3,1.07,1.07,0,0,1-.3-.74V37.49A2.12,2.12,0,0,0,38.5,36,2.06,2.06,0,0,0,37,35.41a2,2,0,0,0-1.45.61A2.08,2.08,0,0,0,35,37.49V55.2a1,1,0,0,1-.21.63,1,1,0,0,1-.55.38,1.07,1.07,0,0,1-.66-.05,1.12,1.12,0,0,1-.5-.44L31,52.11a2.07,2.07,0,0,0-.52-.62,2.12,2.12,0,0,0-.72-.36,2.15,2.15,0,0,0-1.57.21,2.1,2.1,0,0,0-1,1.27,2.14,2.14,0,0,0,.2,1.59L31.88,62,30.1,63l-4.44-7.77a4.62,4.62,0,0,1-.41-1.09H19a7.49,7.49,0,0,1,.54,2.76v5.57H17.5V56.91a5.43,5.43,0,0,0-.73-2.67l-2.22-3.71a1.11,1.11,0,0,1,0-1.06l4.63-8.11a2.15,2.15,0,0,0,.21-1.59,2.06,2.06,0,0,0-2.52-1.48,2.14,2.14,0,0,0-.72.37,2.22,2.22,0,0,0-.53.61L9.44,50.09l-1.78-1,.66-1.15a7.28,7.28,0,0,1-.08-1V28.61A3.06,3.06,0,0,0,7,29.93L2.92,39a9.34,9.34,0,0,0-.86,3.93V62.49H0V42.91a11.18,11.18,0,0,1,1-4.8l4.12-9a5.14,5.14,0,0,1,1.25-1.7,5,5,0,0,1,1.82-1.05v-19a7.32,7.32,0,0,1,2.11-5.15A7.14,7.14,0,0,1,15.44,0H38.07a7.14,7.14,0,0,1,5.09,2.14,7.32,7.32,0,0,1,2.11,5.15v37a4.11,4.11,0,0,1,1.47,1.46,4.06,4.06,0,0,1,4.67-.44,4.28,4.28,0,0,1,1.51,1.48,4,4,0,0,1,2.64-1A4.09,4.09,0,0,1,58.47,47a4.2,4.2,0,0,1,1.21,3v12.5ZM28.81,47.91a1,1,0,0,0,.73-.31,1.05,1.05,0,0,0,0-1.47,1,1,0,0,0-.73-.31H24.7a1,1,0,0,0-.73.31,1.05,1.05,0,0,0,0,1.47,1,1,0,0,0,.73.31ZM43.22,7.29a5.25,5.25,0,0,0-1.51-3.68,5.11,5.11,0,0,0-3.64-1.53H15.44A5.11,5.11,0,0,0,11.8,3.61a5.25,5.25,0,0,0-1.51,3.68V44.43l3.54-6.2a4.15,4.15,0,0,1,2.5-1.94,4.06,4.06,0,0,1,3.12.41,4.13,4.13,0,0,1,1.21,1.07A4.2,4.2,0,0,1,21,42.4L16.63,50l1.25,2.09h7.37A4.13,4.13,0,0,1,26.56,50H24.7a3.07,3.07,0,0,1-2.19-.92,3.15,3.15,0,0,1,0-4.41,3.07,3.07,0,0,1,2.19-.92h4.11a3,3,0,0,1,2.18.92,3.11,3.11,0,0,1,.6,3.55,3.24,3.24,0,0,1-.86,1.08,4.08,4.08,0,0,1,2.06,1.78l.14.24V37.49a4.19,4.19,0,0,1,1.2-2.94,4.08,4.08,0,0,1,5.82,0,4.2,4.2,0,0,1,1.21,2.94V44.3a4.11,4.11,0,0,1,2.06-.56ZM31.58,34.73l-4.3,2.62a1.05,1.05,0,0,1-1.05,0l-4.3-2.62a13.61,13.61,0,0,1-6.49-11.6V16.66a1,1,0,0,1,.15-.54.94.94,0,0,1,.41-.38l10.29-5.21a.93.93,0,0,1,.46-.12,1,1,0,0,1,.47.12l10.29,5.21a.94.94,0,0,1,.41.38,1,1,0,0,1,.15.54v6.47a13.81,13.81,0,0,1-1.74,6.66A13.48,13.48,0,0,1,31.58,34.73ZM36,17.31l-9.26-4.69L17.5,17.31v5.82A11.5,11.5,0,0,0,23,33l3.76,2.28L30.52,33A11.5,11.5,0,0,0,36,23.13ZM22.64,4.17h8.23V6.25H22.64Zm-4.12,0h2.06V6.25H18.52Z" transform="translate(-0.01)"/><path class="cls-2" d="M26.46,21c0-1.63-.75-2.44-2.23-2.44A2,2,0,0,0,22,20.86a3.62,3.62,0,0,0,.11,1,2.66,2.66,0,0,0,.57,1,11.49,11.49,0,0,0,.87.8l.87.77A2.67,2.67,0,0,1,25,25a1.51,1.51,0,0,1,.19.79c0,.67-.26,1-.78,1s-.88-.48-.88-1.43v-.76H22v1a2.86,2.86,0,0,0,.53,1.89,2.33,2.33,0,0,0,1.85.66,2.15,2.15,0,0,0,2.45-2.4,3.11,3.11,0,0,0-.36-1.6A5.76,5.76,0,0,0,25.32,23l-.92-.8a2,2,0,0,1-.88-1.43c0-.56.23-.83.67-.83s.73.43.73,1.3v.54h1.54Z" transform="translate(-0.01)"/><path class="cls-2" d="M28.35,18.67V28H30V23.87h2.47V22.52H30v-2.4h2.72V18.67Z" transform="translate(-0.01)"/></svg>