<svg id="certifications" width="64" height="65" xmlns="http://www.w3.org/2000/svg" viewBox="0 0 64 65"><defs><style>.cls-1{fill:#2075bb;fill-rule:evenodd;}</style></defs><title>certifications</title><path class="cls-1" d="M58.7,39.51v1.05H56.58V39.51a5.23,5.23,0,0,0-5.3-5.27V32.13a5.23,5.23,0,0,0,5.3-5.27V25.81H58.7v1.05A5.23,5.23,0,0,0,64,32.13v2.11A5.23,5.23,0,0,0,58.7,39.51Zm-1.06-8.85a7.32,7.32,0,0,1-2.54,2.53,7.21,7.21,0,0,1,2.54,2.52,7.32,7.32,0,0,1,2.55-2.52A7.44,7.44,0,0,1,57.64,30.66ZM54.46,18.44v1H52.34v-1a5.23,5.23,0,0,0-5.29-5.27V11.06a5.23,5.23,0,0,0,5.29-5.27v-1h2.12v1a5.23,5.23,0,0,0,5.3,5.27v2.11A5.23,5.23,0,0,0,54.46,18.44ZM53.4,9.59a7.21,7.21,0,0,1-2.54,2.52,7.32,7.32,0,0,1,2.54,2.53A7.44,7.44,0,0,1,56,12.11,7.32,7.32,0,0,1,53.4,9.59ZM40.9,15.7a12.41,12.41,0,0,1-3.07,6.74l-2.44,2.84L36,26.86,40.48,25a.1.1,0,0,1,.1-.11,3.28,3.28,0,0,1,4.14,1.9l6,16.12a3.16,3.16,0,0,1-1.58,3.9L44.5,49.09l1.91,4.53h3.5a3,3,0,0,1,3,2l1,2.52L36.24,65l-1.06-2.63a3,3,0,0,1,.74-3.48l2.54-2.42-1.9-5.8L31.26,50,.85,62.58,0,60.68l19.18-7.9L15.58,42,.74,47.93l-.74-2L25.85,35.5l.75-3.58a3.16,3.16,0,0,1,1.48-2.11l-.64-1.58L24,27.92a13.8,13.8,0,0,1-6.89-2.64l-5-.52a6,6,0,0,1-4.87-3.9,5.8,5.8,0,0,1,3.07-7.16l-.53-1.37v-.11a3.07,3.07,0,0,1,1.91-4L34,.21a3.07,3.07,0,0,1,4,1.9l.32.94a5.31,5.31,0,0,1,3.6.32,9.27,9.27,0,0,1,1.27.84A5.51,5.51,0,0,1,44,12ZM37.3,60.47a1.45,1.45,0,0,0-.21,1.16l.31.63L51,56.89l-.22-.63a1,1,0,0,0-1-.63H45.46L40.9,57.1Zm6.78-6.74-1.7-3.9-1.8.84a2.32,2.32,0,0,1-1.69.32l1.37,4Zm-17.91-16L21.93,39.4l2.76,8.22-2,.63-2.65-8-2.44.95,3.6,10.75,8.58-3.58ZM28,36.24l3.92,11.69,7.21.85a1.34,1.34,0,0,0,.64-.11l8.37-4.11a.92.92,0,0,0,.53-1.26l-.53-1.37-5,1.69-.64-2L47.36,40l-1.27-3.37L41,38.35l-.64-2,5-1.69-1.27-3.37L38.89,33l-.64-2,5.19-1.68-.84-2.22a1.06,1.06,0,0,0-1.38-.52L29.35,31.61a1.08,1.08,0,0,0-.63.73ZM11.13,15.8a3.63,3.63,0,0,0-1.81,4.53,3.56,3.56,0,0,0,3.18,2.43l2.23.21a15.23,15.23,0,0,1-2.12-3.59ZM38.46,9.9,36.13,3a1,1,0,0,0-.53-.63,1.14,1.14,0,0,0-.85,0l-22.35,8a1,1,0,0,0-.53,1.37l2.75,7a11.59,11.59,0,0,0,9.75,7.27l4.66.42L30.09,29l3.82-1.58-1-2.53,3.29-3.79A11.51,11.51,0,0,0,38.46,9.9Zm2.65-4.63a4.19,4.19,0,0,0-2-.21l1.38,4.1a16,16,0,0,1,.63,3.06l1.27-1.58a3.43,3.43,0,0,0,.53-.84A3.47,3.47,0,0,0,41.11,5.27ZM31.47,18.75c4.66-4.63-.11-12.32-.21-12.32l1.8-1.16c.32.31,5.72,9.16-.11,15ZM7.84,25.81v1.05a5.23,5.23,0,0,0,5.3,5.27v2.11a5.23,5.23,0,0,0-5.3,5.27v1.05H5.72V39.51a5.23,5.23,0,0,0-5.3-5.27V32.13a5.23,5.23,0,0,0,5.3-5.27V25.81Zm-3.6,7.38a7.21,7.21,0,0,1,2.54,2.52,7.3,7.3,0,0,1,2.54-2.52,7.41,7.41,0,0,1-2.54-2.53A7.32,7.32,0,0,1,4.24,33.19Z"/></svg>