<?xml version="1.0" encoding="utf-8"?>
<!-- Generator: Adobe Illustrator 22.1.0, SVG Export Plug-In . SVG Version: 6.00 Build 0)  -->
<svg width="66" height="74" version="1.1" id="communications" xmlns="http://www.w3.org/2000/svg" xmlns:xlink="http://www.w3.org/1999/xlink" x="0px"
	 y="0px" viewBox="0 0 66 74" style="enable-background:new 0 0 66 74;" xml:space="preserve">
<style type="text/css">
	.st0{fill-rule:evenodd;clip-rule:evenodd;fill:#1982B8;}
</style>
<path class="st0" d="M58.6,63v8.4c0,0.7-0.4,1.3-1,1.6c-0.2,0.1-0.4,0.1-0.6,0.1c-0.4,0-0.9-0.2-1.2-0.5l-9.5-9.5l-37.8,0
	c-4.6,0-8.4-3.8-8.4-8.4V8.4C0,3.8,3.8,0,8.4,0h49.1c4.6,0,8.4,3.8,8.4,8.4v46.3C65.9,59,62.7,62.5,58.6,63z M63.8,8.4
	c0-3-3.2-6.2-6.2-6.2H8.2c-3,0-6.3,3.2-6.3,6.2v46.3c0,3,3.4,5.9,6.3,5.9h38.1c0.5,0,0.9,0.5,1.3,0.8l8.9,9.2v-8.4
	c0-1,0.8-1.8,1.8-1.8H59c2.6,0,4.8-3,4.8-5.9V8.4z M54.3,27.9H11.6c-0.9,0-1.7-0.3-1.7-1.3c0-0.9,0.8-1.3,1.7-1.3h42.7
	c0.9,0,1.7,0.3,1.7,1.3C56,27.6,55.2,27.9,54.3,27.9z M54.3,18.5H11.6c-0.9,0-1.7-0.3-1.7-1.3c0-0.9,0.8-1.3,1.7-1.3h42.7
	c0.9,0,1.7,0.3,1.7,1.3C56,18.1,55.2,18.5,54.3,18.5z"/>
<path class="st0" d="M45.3,46.9H11.6c-0.9,0-1.7-0.3-1.7-1.3c0-0.9,0.8-1.3,1.7-1.3h33.7c0.9,0,1.7,0.3,1.7,1.3
	C47,46.5,46.2,46.9,45.3,46.9z M54.3,37.4H11.6c-0.9,0-1.7-0.3-1.7-1.3s0.8-1.3,1.7-1.3h42.7c0.9,0,1.7,0.3,1.7,1.3
	S55.2,37.4,54.3,37.4z"/>
</svg>
