<svg id="copy" width="25" height="27" xmlns="http://www.w3.org/2000/svg" viewBox="0 0 24.39 26.68"><defs><style>.cls-1{fill:#2cb5b2;}</style></defs><title>copy</title><path class="cls-1" d="M8.25,20.56H2.12A1.53,1.53,0,0,1,.58,19V1.84A1.53,1.53,0,0,1,2.12.32H17a1.53,1.53,0,0,1,1.54,1.52v6.1a1.54,1.54,0,0,1-3.07,0V3.37H3.62V17.51h4.6a1.53,1.53,0,1,1,0,3Z" transform="translate(-0.58 -0.32)"/><path class="cls-1" d="M23.43,27H9A1.53,1.53,0,0,1,7.5,25.48V8.75A1.54,1.54,0,0,1,9,7.22H23.43A1.54,1.54,0,0,1,25,8.75V25.48A1.53,1.53,0,0,1,23.43,27ZM10.57,24H21.9V10.27H10.57Z" transform="translate(-0.58 -0.32)"/></svg>