<svg id="dashboard" width="29" height="29" xmlns="http://www.w3.org/2000/svg" viewBox="0 0 28.18 28.19"><defs><style>.cls-1{fill:#fff;fill-rule:evenodd;}</style></defs><title>dashboard</title><path class="cls-1" d="M25.79,28.19h-5.4A2.4,2.4,0,0,1,18,25.8V20.4A2.4,2.4,0,0,1,20.39,18h5.4a2.39,2.39,0,0,1,2.39,2.39v5.4A2.4,2.4,0,0,1,25.79,28.19Zm.4-7.8a.4.4,0,0,0-.4-.4h-5.4a.4.4,0,0,0-.41.4v5.4a.41.41,0,0,0,.41.4h5.4a.4.4,0,0,0,.4-.4Zm-.4-3.74h-5.4A2.4,2.4,0,0,1,18,14.26V8.86a2.4,2.4,0,0,1,2.4-2.39h5.4a2.39,2.39,0,0,1,2.39,2.39v5.4A2.4,2.4,0,0,1,25.79,16.65Zm.4-7.8a.4.4,0,0,0-.4-.4h-5.4a.4.4,0,0,0-.41.4v5.4a.41.41,0,0,0,.41.4h5.4a.4.4,0,0,0,.4-.4ZM14.26,28.18H8.86a2.4,2.4,0,0,1-2.4-2.39v-5.4A2.4,2.4,0,0,1,8.86,18h5.4a2.39,2.39,0,0,1,2.39,2.39v5.4A2.4,2.4,0,0,1,14.26,28.18Zm.39-7.78a.39.39,0,0,0-.4-.4H8.85a.4.4,0,0,0-.41.4v5.4a.41.41,0,0,0,.41.4h5.4a.41.41,0,0,0,.4-.4Zm-1.5-3.76H3.49A3.5,3.5,0,0,1,0,13.14V3.49A3.5,3.5,0,0,1,3.49,0h9.66a3.49,3.49,0,0,1,3.49,3.49v9.66A3.49,3.49,0,0,1,13.15,16.64Zm1.5-13.15A1.5,1.5,0,0,0,13.15,2H3.49A1.51,1.51,0,0,0,2,3.49v9.65a1.51,1.51,0,0,0,1.5,1.51h9.66a1.51,1.51,0,0,0,1.5-1.51Z"/></svg>