<svg id="earnings" width="75" height="77" xmlns="http://www.w3.org/2000/svg" viewBox="0 0 74.42 75.55"><defs><style>.cls-1{fill:#1c7eb9;fill-rule:evenodd;}</style></defs><title>earnings</title><path class="cls-1" d="M74.05,66.85a1.25,1.25,0,0,1-.92.37h-43A15.89,15.89,0,0,1,0,60,16,16,0,0,1,9.5,45.39V18.86a1.31,1.31,0,0,1,1.24-1.38h0l18.55-5.35L40.56.84a1.31,1.31,0,0,1,1.85,0l4.91,4.88L60.52,1a1.34,1.34,0,0,1,1.77,1.24V17.48H73.13a1.35,1.35,0,0,1,1.29,1.38V65.93A1.25,1.25,0,0,1,74.05,66.85ZM6.48,50.56a13.38,13.38,0,0,0,9.41,22.82h0A13.36,13.36,0,1,0,6.48,50.56ZM20.19,17.48h3.74L25.45,16ZM41.49,3.57,27.64,17.48H55.46Zm18.18.56L49.4,7.75l9.79,9.73h.48ZM71.8,34H63.23a8.48,8.48,0,0,0,0,17H71.8Zm0,19.6H63.23a11.12,11.12,0,0,1,0-22.23H71.8V20.12H12.12V44.48A15.24,15.24,0,0,1,15.93,44,16,16,0,0,1,31.15,64.58H71.8Zm-12-6.8a4.64,4.64,0,1,1,5-1A4.65,4.65,0,0,1,59.83,46.75Zm3.78-4.3a2,2,0,1,0-3.42,1.43,2,2,0,0,0,2.18.43A2,2,0,0,0,63.61,42.45Z" transform="translate(0 -0.45)"/></svg>