<svg id="earnings" data-name="earnings" width="67" height="66" xmlns="http://www.w3.org/2000/svg" viewBox="0 0 67 66"><defs><style>.cls-1{fill:#3c81c0;fill-rule:evenodd;}</style></defs><title>earnings</title><path class="cls-1" d="M67,43.83A22.25,22.25,0,0,1,28.51,59H13.09a6,6,0,0,1-3.74-10.7,6,6,0,0,1,0-9.39,6,6,0,0,1,0-9.39,6,6,0,0,1,3.74-10.7H16.5a6,6,0,0,1,0-6.78H6A6,6,0,1,1,6,0H38.08a6,6,0,0,1,6,6A5.9,5.9,0,0,1,43,9.39H53.52a6,6,0,1,1,0,12H50.11a5.84,5.84,0,0,1,.59,1.07A22.21,22.21,0,0,1,67,43.83ZM13.09,56.35H26.4a22.45,22.45,0,0,1-3.14-6.78H13.09a3.39,3.39,0,1,0,0,6.78Zm0-9.39h9.64a21.66,21.66,0,0,1-.22-3.13,22,22,0,0,1,.3-3.66H13.09a3.4,3.4,0,1,0,0,6.79Zm0-9.39H23.41a22,22,0,0,1,3.37-6.79H13.09a3.4,3.4,0,1,0,0,6.79Zm0-16.18a3.39,3.39,0,1,0,0,6.78H29a22.24,22.24,0,0,1,15.74-6.52c.64,0,1.26,0,1.88.08a3.38,3.38,0,0,0-1.48-.34Zm25-18.78H6A3.39,3.39,0,1,0,6,9.39H38.08a3.39,3.39,0,1,0,0-6.78ZM53.52,18.78a3.39,3.39,0,1,0,0-6.78H21.46a3.39,3.39,0,1,0,0,6.78H53.52Zm-8.77,5.48A19.57,19.57,0,1,0,64.38,43.83,19.62,19.62,0,0,0,44.75,24.26Zm17,19.57a16.91,16.91,0,0,1-2,8,1.31,1.31,0,0,1-1.16.69,1.37,1.37,0,0,1-.61-.15,1.3,1.3,0,0,1-.54-1.76A14.33,14.33,0,0,0,51,30.89a1.31,1.31,0,1,1,1.14-2.35,17,17,0,0,1,9.65,15.29Zm-15-14.35h-.08a1.31,1.31,0,1,1,0-2.61h.08a1.31,1.31,0,1,1,0,2.61Zm-7.66,29a1.32,1.32,0,0,1-1.18.74,1.44,1.44,0,0,1-.57-.13,17.09,17.09,0,0,1-7-6.15,16.89,16.89,0,0,1-.7-17.1A1.31,1.31,0,1,1,32,37.1a14.33,14.33,0,0,0,6.49,19.67A1.3,1.3,0,0,1,39.14,58.51Zm3.58-.34h.07a1.31,1.31,0,1,1,0,2.61H42.7a1.31,1.31,0,1,1,0-2.61Z"/></svg>