<svg id="edit" width="21" height="21" xmlns="http://www.w3.org/2000/svg" viewBox="0 0 21 21"><defs><style>.cls-1{fill:#12b2ad;fill-rule:evenodd;}</style></defs><title>edit</title><path class="cls-1" d="M20.23,6.34l-.93.93L13.73,1.7l.93-.93a2.63,2.63,0,0,1,3.72,0l1.85,1.86A2.61,2.61,0,0,1,20.23,6.34Zm-13,11.13a.66.66,0,0,0,.93.93L18.38,8.19l-.93-.92ZM2.6,12.83a.65.65,0,0,0,0,.93.64.64,0,0,0,.92,0L13.73,3.55l-.92-.92ZM14.66,4.48,4.45,14.69a1.31,1.31,0,1,0,1.86,1.85L16.52,6.34ZM6.31,19.33a1.88,1.88,0,0,1-.52-1.13,1.9,1.9,0,0,1-.41,0,2.61,2.61,0,0,1-2.62-2.62,2.43,2.43,0,0,1,0-.38,2,2,0,0,1-1.12-.55s0-.07-.07-.1L0,21l6.39-1.6A.5.5,0,0,0,6.31,19.33Z"/></svg>