<svg id="empty_pic" width="125" height="156" xmlns="http://www.w3.org/2000/svg" viewBox="0 0 125 156"><defs><style>.cls-1{fill:#c3dfdf;fill-rule:evenodd;}</style></defs><title>empty_pic</title><path class="cls-1" d="M39.24,115.87l-25.4,9.67A21.59,21.59,0,0,0,0,145.6v7.8A2.6,2.6,0,0,0,2.61,156H122.4a2.6,2.6,0,0,0,2.6-2.6v-7.8a21.58,21.58,0,0,0-13.84-20.06l-25.4-9.67a7.83,7.83,0,0,1-5-7.28v-5.2a7.43,7.43,0,0,1,2.53-5.75A28.93,28.93,0,0,0,93.72,75.4,10.41,10.41,0,0,0,104.19,65V57.2a10.34,10.34,0,0,0-3.52-7.8c2.73-11.91-.41-25.13-11.69-29.59C84.63,6,69.72,0,55.21,0,30.75,0,18.71,24.83,25.08,48.8a10.34,10.34,0,0,0-4.27,8.4V65A10.41,10.41,0,0,0,31.28,75.4,28.91,28.91,0,0,0,41.75,97.64a7.45,7.45,0,0,1,2.52,5.75v5.2a7.83,7.83,0,0,1-5,7.28Zm5.87-22.2a24.13,24.13,0,0,1-8.65-19.86c0-.26,0-.55,0-.8a2.6,2.6,0,0,0-2.61-2.81H31.22A5.2,5.2,0,0,1,26,65V57.2a5.16,5.16,0,0,1,5.2-5.2,2.6,2.6,0,1,0,0-5.2c-.41,0-.82.06-1.22.12C24.81,26.34,34.33,5.2,55.21,5.2c12.57,0,26.3,5.2,29.08,17.24.41,1.72,2,1.9,2.78,2.21,8.52,3.35,10.41,13.26,8.72,22.4a8.09,8.09,0,0,0-2-.26,2.6,2.6,0,1,0,0,5.2,5.2,5.2,0,0,1,5.2,5.2V65a5.2,5.2,0,0,1-5.2,5.2H91.12A2.59,2.59,0,0,0,88.52,73c0,.25,0,.54,0,.8a24.09,24.09,0,0,1-8.64,19.86,12.61,12.61,0,0,0-4.37,9.73v5.2a13.1,13.1,0,0,0,8.38,12.15l25.41,9.66a16.35,16.35,0,0,1,10.48,15.2v5.2H5.21v-5.2a16.36,16.36,0,0,1,10.48-15.2l25.41-9.66a13.1,13.1,0,0,0,8.38-12.15v-5.2a12.62,12.62,0,0,0-4.37-9.72Z"/></svg>