<?xml version="1.0" encoding="utf-8"?>
<!-- Generator: Adobe Illustrator 22.1.0, SVG Export Plug-In . SVG Version: 6.00 Build 0)  -->
<svg width="27" height="27" version="1.1" id="settings" xmlns="http://www.w3.org/2000/svg" xmlns:xlink="http://www.w3.org/1999/xlink" x="0px" y="0px"
	 viewBox="0 0 29 29" style="enable-background:new 0 0 29 29;" xml:space="preserve">
<style type="text/css">
	.st0{fill:#FFFFFF;}
</style>
<path class="st0" d="M24.5,19c2.4-5.6-0.3-12.1-5.9-14.4c-3.2-1.3-6.8-1.1-9.7,0.6L7.6,2.8c4.2-2.4,9.5-2.4,13.7,0
	c6.2,3.6,8.5,11.2,5.7,17.6l1.8,1.1l-5.7,3L22.8,18L24.5,19L24.5,19z M4.2,10.4C1.9,16,4.5,22.5,10.1,24.9c3.2,1.3,6.8,1.1,9.7-0.6
	l1.4,2.4c-4.2,2.4-9.5,2.4-13.7,0C1.3,23.1-1,15.4,1.8,9L0,8l5.7-3L6,11.4L4.2,10.4L4.2,10.4z M16.3,18.6l-3.9-3.9l-3.9,3.9
	l-1.9-1.9l5.8-5.8l3.9,3.9l3.9-3.9l1.9,1.9L16.3,18.6L16.3,18.6z"/>
</svg>
