<svg id="faq" width="73" height="69" xmlns="http://www.w3.org/2000/svg" viewBox="0 0 72.77 68.73"><defs><style>.cls-1{fill:#1c7eb9;fill-rule:evenodd;}</style></defs><title>faq</title><path class="cls-1" d="M55.27,16.86a3.79,3.79,0,0,1-1.75,2.85c-.28.24-.8.66-.8.82a1.11,1.11,0,0,1-1.12,1.13h0a1.13,1.13,0,0,1-1.14-1.11A3.39,3.39,0,0,1,52.06,18c.57-.48.94-.81.94-1.12a1.13,1.13,0,0,0-2.25,0,1.14,1.14,0,1,1-2.27,0,3.4,3.4,0,1,1,6.79,0Zm-3.65,5.85a1.11,1.11,0,0,0-1.11,1.14h0A1.11,1.11,0,0,0,51.62,25a1.14,1.14,0,0,0,0-2.28ZM17.27,45.46a1.14,1.14,0,1,0,0,2.27h.09a1.14,1.14,0,1,0,0-2.27Zm3.94,0a1.14,1.14,0,0,0,0,2.27h.1a1.14,1.14,0,1,0,0-2.27ZM72.77,5.73V32a5.46,5.46,0,0,1-5.45,5.49H37.85a6.19,6.19,0,0,0-.55.48l-.3.27-4.17,3.81a1.16,1.16,0,0,1-1.93-.84V29.16H5.52a3.26,3.26,0,0,0-3.25,3.23V58.67a3.2,3.2,0,0,0,3.25,3.17H35.45a1.14,1.14,0,0,1,.76.32l3.4,3.14V41a1.14,1.14,0,0,1,2.27,0V67.87a1.12,1.12,0,0,1-.67,1,1.2,1.2,0,0,1-.45.09,1.14,1.14,0,0,1-.77-.31l-5-4.57H5.52A5.48,5.48,0,0,1,0,58.67V32.39a5.53,5.53,0,0,1,5.52-5.5H30.9V5.73A5.51,5.51,0,0,1,36.43.27H67.32A5.43,5.43,0,0,1,72.77,5.73Zm-2.27,0a3.17,3.17,0,0,0-3.18-3.19H36.43a3.24,3.24,0,0,0-3.26,3.19V38.64l2.28-2.07c.11-.09.23-.18.31-.26a2.87,2.87,0,0,1,2.67-1.09H67.32A3.19,3.19,0,0,0,70.5,32V5.73Z" transform="translate(0 -0.27)"/></svg>