<?xml version="1.0" encoding="utf-8"?>
<!-- Generator: Adobe Illustrator 22.1.0, SVG Export Plug-In . SVG Version: 6.00 Build 0)  -->
<svg width="65" height="64" version="1.1" baseProfile="basic" id="fee" xmlns="http://www.w3.org/2000/svg" xmlns:xlink="http://www.w3.org/1999/xlink"
	 x="0px" y="0px" viewBox="0 0 65 64" xml:space="preserve">
<style type="text/css">
	.st0{fill-rule:evenodd;clip-rule:evenodd;fill:#3C81C0;}
</style>
<path class="st0" d="M39.1,46.3c0.5,0.4,0.8,1,1.1,1.6L52,41c0.9-0.5,1.9-0.7,2.9-0.5c0.4,0.1,0.7,0.2,1.1,0.4
	c0.8,0.4,1.4,1,1.8,1.7c0.4,0.6,0.6,1.4,0.6,2.1c0,1.5-0.8,2.9-2.1,3.7L35.8,61.1C35,61.6,34,61.9,33,61.9H15.8
	c-0.7,0-1.3-0.1-2-0.4l-3.1-1.2V64H0V40.5h10.7V44l2.7-1.6c0.8-0.5,1.8-0.8,2.8-0.8H18L0.2,31.3l10.7-18.5l21.7,12.5l21.7-12.5
	L65,31.3L39.1,46.3z M8.6,42.7H2.1v19.2h6.4V42.7z M16.2,43.7c-0.6,0-1.2,0.2-1.7,0.5l-3.8,2.3V58l3.9,1.5c0.4,0.1,0.8,0.2,1.2,0.2
	H33c0.6,0,1.2-0.2,1.7-0.5l20.5-12.7c0.7-0.4,1.1-1.1,1.1-1.9c0-0.4-0.1-0.8-0.3-1.1c-0.2-0.4-0.5-0.7-0.9-0.8
	c-0.2-0.1-0.4-0.1-0.5-0.2c-0.5-0.1-1,0-1.5,0.2l-12.8,7.4c0,0.1,0,0.1,0,0.2c-0.5,1.9-2.2,3.2-4.1,3.2c-0.6-0.1-1.2-0.2-1.7-0.3
	l-11.1-3l0.6-2.1l11.1,3c0.5,0.1,1.1,0.2,1.2,0.2c1,0,1.8-0.7,2-1.6c0-0.3,0.1-0.5,0.1-0.8c-0.1-0.9-0.7-1.6-1.5-1.8l-1.9-0.5
	L29,45.2l-5.2-1.4c-0.3-0.1-0.6-0.1-0.8-0.1H16.2z M11.7,15.8L3.1,30.5l19.2,11.1H23c0.5,0,0.9,0.1,1.4,0.2l2.7,0.7l-3.3-5.7
	c-2.1,0.6-4.4-0.1-5.7-1.8c-1.4-1.7-1.5-4.1-0.4-6c1.5-2.5,4.7-3.4,7.3-2c0.7,0.4,1.3,1,1.8,1.7l3.8-2.2L11.7,15.8z M24.8,29.8
	c-0.3-0.4-0.6-0.7-1-0.9c-1.5-0.9-3.5-0.4-4.4,1.2c-0.4,0.7-0.5,1.6-0.3,2.4c0.4,1.5,1.9,2.5,3.5,2.3L21,32L24.8,29.8z M53.5,15.8
	L23.9,32.8L30,43.3l6.8,1.8l25.3-14.6L53.5,15.8z M43,37c-0.5,0-0.9-0.1-1.4-0.2c-1.4-0.4-2.5-1.3-3.2-2.5l0,0
	c-1.2-2.1-0.9-4.7,0.8-6.4c1.7-1.7,4.4-2.1,6.4-0.9c2.1,1.2,3.1,3.7,2.5,6C47.5,35.4,45.4,37,43,37z M45.8,30.1
	c-0.6-1.1-1.9-1.7-3.2-1.6c-1.3,0.2-2.3,1.1-2.7,2.3c-0.4,1.4,0.2,2.9,1.5,3.6c1.3,0.7,2.8,0.5,3.9-0.5
	C46.3,32.9,46.5,31.3,45.8,30.1z M32.1,21.3c-5.9,0-10.7-4.8-10.7-10.7C21.4,4.8,26.2,0,32.1,0C38,0,42.8,4.8,42.8,10.7
	C42.8,16.6,38,21.3,32.1,21.3z M32.1,2.1c-4.7,0-8.5,3.8-8.6,8.5c0,4.7,3.8,8.5,8.6,8.5c4.7,0,8.6-3.8,8.6-8.5
	C40.6,6,36.8,2.1,32.1,2.1z M32.1,7.5c-0.6,0-1.1,0.5-1.1,1.1c0,0.6,0.5,1.1,1.1,1.1c1.6,0,2.9,1.1,3.2,2.7c0.3,1.5-0.6,3-2.1,3.6
	v1.3H31v-1.3c-1.3-0.5-2.1-1.7-2.1-3H31c0,0.6,0.5,1.1,1.1,1.1c0.6,0,1.1-0.5,1.1-1.1c0-0.6-0.5-1.1-1.1-1.1c-1.6,0-2.9-1.1-3.2-2.7
	c-0.3-1.5,0.6-3,2.1-3.6V4.3h2.1v1.3c1.3,0.5,2.1,1.7,2.1,3h-2.1C33.1,7.9,32.7,7.5,32.1,7.5z"/>
</svg>
