<svg id="francs" width="28" height="28" xmlns="http://www.w3.org/2000/svg" viewBox="0 0 28 28"><defs><style>.cls-1,.cls-2{fill:#fff;}.cls-1{fill-rule:evenodd;}</style></defs><title>francs</title><path class="cls-1" d="M14,0A14,14,0,1,0,28,14,14,14,0,0,0,14,0Zm0,25.43A11.43,11.43,0,1,1,25.43,14,11.45,11.45,0,0,1,14,25.43Z"/><path class="cls-2" d="M13.47,11.72c0-1.86-.84-2.79-2.54-2.79s-2.57.89-2.57,2.66a4,4,0,0,0,.13,1.09,2.79,2.79,0,0,0,.65,1.11,13.32,13.32,0,0,0,1,.91l1,.88a3.42,3.42,0,0,1,.65.7,1.71,1.71,0,0,1,.21.9c0,.77-.3,1.15-.89,1.15s-1-.55-1-1.64v-.86H8.34V17a3.28,3.28,0,0,0,.6,2.16,2.67,2.67,0,0,0,2.11.76c1.87,0,2.81-.92,2.81-2.75a3.45,3.45,0,0,0-.42-1.82A6.15,6.15,0,0,0,12.18,14l-1.06-.92a2.31,2.31,0,0,1-1-1.64c0-.63.26-.94.77-.94s.83.49.83,1.48v.63h1.75Z"/><path class="cls-2" d="M15.64,9.09V19.75h1.84V15H20.3V13.48H17.48V10.74h3.11V9.09Z"/></svg>