<svg id="fracns" width="67" height="55" xmlns="http://www.w3.org/2000/svg" viewBox="0 0 67 54.54"><defs><style>.cls-1,.cls-2{fill:#3856a3;}.cls-1{fill-rule:evenodd;}</style></defs><title>francs_wallet</title><path class="cls-1" d="M62.87,54.54H52.38a1,1,0,0,1,0-2H62.87A2.17,2.17,0,0,0,65,50.4V12.48H2V50.4a2.17,2.17,0,0,0,2.17,2.17H14.62a1,1,0,0,1,0,2H4.13A4.14,4.14,0,0,1,0,50.4V4.14A4.14,4.14,0,0,1,4.13,0H62.87A4.14,4.14,0,0,1,67,4.14V50.4A4.14,4.14,0,0,1,62.87,54.54ZM65,4.14A2.17,2.17,0,0,0,62.87,2H4.13A2.17,2.17,0,0,0,2,4.14v6.37H65ZM5.18,5.26h0a1,1,0,1,1-1,1A1,1,0,0,1,5.19,5.26Zm3.13,0h0a1,1,0,1,1-1,1A1,1,0,0,1,8.31,5.26Zm3.15,0h0a1,1,0,1,1-1,1A1,1,0,0,1,11.47,5.26Zm4.21,0H61.82a1,1,0,0,1,0,2H15.67a1,1,0,0,1,0-2Z"/><path class="cls-2" d="M15.26,37.77c-.28,6.1,4.06,8.76,10,8.76,8.85,0,9.55-5.43,9.55-7.15,0-4.09-2.94-5.63-6.47-6.58l-6.09-1.5c-2-.49-3.78-1.47-3.78-3.82,0-3.71,3-5,6.26-5,3.54,0,6.69,1.93,6.83,5.74h2.38c0-5.11-4.31-7.77-9.24-7.77-7,0-8.61,4.59-8.61,7,0,3.88,2.69,5.28,5.63,6l5.57,1.36c2.31.56,5.14,1.68,5.14,4.52,0,3.64-4,5.08-6.61,5.08-4.55,0-8.26-1.58-8.16-6.73Z"/><path class="cls-2" d="M38.57,46H41V34.1h12v-2H41V23H54.43V21H38.57Z"/></svg>