<svg id="hands" width="73" height="57" xmlns="http://www.w3.org/2000/svg" viewBox="0 0 72.16 56.62"><defs><style>.cls-1{fill:#1c7eb9;fill-rule:evenodd;}</style></defs><title>hands</title><path class="cls-1" d="M71.87,17a1,1,0,0,0-1.4,0l-6.18,6.2a1,1,0,0,0-.28.6,20.79,20.79,0,0,1-6,12.53l-1.47,1.48L45.93,27.13a8.5,8.5,0,0,0,2,.24,6.92,6.92,0,0,0,2.68-.52,1,1,0,0,0,.54-1.3A1,1,0,0,0,49.84,25c-4.08,1.68-8.79-2.79-9.38-3.38l-2.84-2.84a5.51,5.51,0,0,0-.85-4.41,5.36,5.36,0,0,0-4.47-2.33l-6.86,0h0a2.41,2.41,0,0,1-1.74-.72A2.47,2.47,0,0,1,23,9.62v-.1A2.46,2.46,0,0,1,25.32,7l12.5-.5a20.08,20.08,0,0,1,12.65,3.88,1,1,0,0,0,1.29-.1l6.56-6.6a1,1,0,1,0-1.4-1.4l-6,6a22.1,22.1,0,0,0-13.2-3.77l-12.5.5h-.08L20.41.29a1,1,0,0,0-1.4,0A1,1,0,0,0,19,1.7l4,4A4.45,4.45,0,0,0,21,9.52v.1a4.47,4.47,0,0,0,4.49,4.48l6.86,0a3.37,3.37,0,0,1,2.83,1.46,3.78,3.78,0,0,1,.58,1.36l-.34-.34a1,1,0,0,0-1.41,0,1,1,0,0,0,0,1.41L56.35,40.41a2.51,2.51,0,0,1,0,3.52,2.48,2.48,0,0,1-3.51,0L38.59,29.62a1,1,0,0,0-1.4,0,1,1,0,0,0,0,1.41L52.54,46.44a2.49,2.49,0,0,1,0,3.52A2.46,2.46,0,0,1,49,50L34.49,35.35a1,1,0,1,0-1.41,1.4L45,48.73a2.51,2.51,0,0,1,0,3.52,2.48,2.48,0,0,1-3.51,0l-12.95-13a1,1,0,0,0-1.4,0,1,1,0,0,0,0,1.41l9.61,9.64h0a2.48,2.48,0,0,1-3.51,3.51L15.88,36.36a20.79,20.79,0,0,1-6-12.53,1,1,0,0,0-.29-.6l-8-8a1,1,0,0,0-1.4,0,1,1,0,0,0,0,1.41L8,24.39a22.88,22.88,0,0,0,6.48,13.38l1.47,1.47a4.47,4.47,0,0,0,3.62,7.09h.33a5.83,5.83,0,0,0-.06.72,4.46,4.46,0,0,0,1.31,3.17,4.41,4.41,0,0,0,3.16,1.31,3.67,3.67,0,0,0,.66-.05,4.53,4.53,0,0,0,1.25,3.84,4.47,4.47,0,0,0,3.16,1.31,4.41,4.41,0,0,0,2.87-1,4.46,4.46,0,0,0,7.14-2.64l.72.72a4.45,4.45,0,0,0,6.31,0,4.47,4.47,0,0,0,1.22-2.29h0A4.46,4.46,0,0,0,55,46.63a4.48,4.48,0,0,0,3-7.37l1.48-1.49a22.82,22.82,0,0,0,6.48-13.38l5.93-5.95A1,1,0,0,0,71.87,17ZM17.81,43.62a2.48,2.48,0,0,1-.73-1.76,2.51,2.51,0,0,1,.29-1.18l3.36,3.37a2.5,2.5,0,0,1-1.17.29A2.43,2.43,0,0,1,17.81,43.62Zm4.73,5.18a2.49,2.49,0,0,1-.72-1.75,2.45,2.45,0,0,1,.46-1.44l3.45,3.46A2.48,2.48,0,0,1,22.54,48.8Zm5.08,5.1a2.49,2.49,0,0,1-.27-3.2l3.45,3.47a2.46,2.46,0,0,1-3.18-.27Z"/></svg>