<?xml version="1.0" encoding="utf-8"?>
<!-- Generator: Adobe Illustrator 22.1.0, SVG Export Plug-In . SVG Version: 6.00 Build 0)  -->
<svg width="37" height="31" version="1.1" baseProfile="basic" id="handshaking"
	 xmlns="http://www.w3.org/2000/svg" xmlns:xlink="http://www.w3.org/1999/xlink" x="0px" y="0px" viewBox="0 0 37 31"
	 xml:space="preserve">
<style type="text/css">
	.st0{fill-rule:evenodd;clip-rule:evenodd;fill:#FFFFFF;}
</style>
<path class="st0" d="M35.3,11.4l-2.9,2.9l-4.1,4.1l1.1,1.1c1,1,1,2.6,0,3.5c-0.5,0.5-1.1,0.7-1.7,0.7c0,0.6-0.3,1.2-0.7,1.7
	c-0.5,0.5-1.1,0.7-1.7,0.7c0,0.6-0.3,1.2-0.7,1.7c-0.5,0.4-1,0.7-1.7,0.7c0,0.6-0.3,1.2-0.7,1.7C21.7,30.7,21,31,20.4,31
	c-0.7,0-1.3-0.3-1.8-0.7l-3.1-3.1l-1.3,1.3c-0.4,0.4-1,0.6-1.6,0.6c-0.6,0-1.1-0.2-1.6-0.6l-0.4-0.4c-0.4-0.4-0.6-0.8-0.6-1.3
	c-0.5,0-1-0.3-1.4-0.6l-0.4-0.4c-0.4-0.4-0.6-0.8-0.6-1.3c-0.5,0-1-0.3-1.4-0.6l-0.4-0.4c-0.4-0.4-0.6-0.8-0.6-1.3
	c-0.5-0.1-1-0.3-1.4-0.6l-0.4-0.4c-0.4-0.4-0.7-1-0.7-1.6c0-0.6,0.2-1.1,0.7-1.6l0.9-0.9l-2.2-2.3l-2-2.1c-0.3-0.3-0.3-1.2,0-1.5
	c0.3-0.3,1-0.5,1.3-0.2l2.1,2.1l16.2,16.1c0.3,0.3,0.6,0.3,0.9,0c0.3-0.3,0.2-0.7-0.2-1.1l-4.4-4.4c-0.3-0.3-0.1-1,0.2-1.3
	c0.3-0.3,1-0.5,1.3-0.2l4.4,4.4c0.2,0.2,0.4,0.3,0.6,0.3s0.1,0.1,0.3-0.1c0.3-0.3,0.3-0.7,0-1.1l-4.4-4.4c-0.3-0.3-0.1-1,0.2-1.3
	c0.3-0.3,1-0.5,1.3-0.2l4.4,4.4c0.3,0.3,0.9,0.5,1.3,0.2c0.2-0.2-0.1-0.2-0.1-0.4c0-0.2-0.1-0.5-0.3-0.6l-4.4-4.4
	c-0.3-0.3-0.1-1,0.2-1.3c0.3-0.3,1-0.5,1.3-0.2l4.4,4.4c0.3,0.3,0.7,0.5,1.1,0.2c0.3-0.3,0.3-0.6,0-0.9l-1.7-1.7L17.1,10l-3.3-0.3
	l-0.2,1.1c-0.4,2-2.8,3-4.8,2.6c-2-0.4-3.4-2.4-2.9-4.4l0.4-1.8c0.7-3.6,4.3-5.9,7.9-5.2c0,0,0,0,0,0l8.1,1.4
	c0.1-0.3,0.3-0.6,0.6-0.9l1.7-1.7C24.9,0.3,25.6,0,26.2,0s1.3,0.3,1.7,0.7L35.3,8C36.2,8.9,36.2,10.5,35.3,11.4z M5.8,17.7l-1.2,1.2
	c-0.2,0.2-0.2,0.6,0,0.8L5,20.2c0.2,0.2,0.6,0.2,0.8,0L7,19L5.8,17.7z M8.2,20.1L7,21.3c-0.2,0.2-0.2,0.6,0,0.8l0.4,0.4
	c0.2,0.2,0.6,0.2,0.8,0l1.2-1.2L8.2,20.1z M10.6,22.5l-1.2,1.2c-0.1,0.1-0.2,0.3-0.2,0.4c0,0.2,0.1,0.3,0.2,0.4l0.4,0.4
	c0.2,0.2,0.6,0.2,0.8,0l1.2-1.2L10.6,22.5z M13,24.9l-1.2,1.2c-0.2,0.2-0.2,0.6,0,0.8l0.4,0.4c0.2,0.2,0.6,0.2,0.8,0l1.2-1.2
	L13,24.9z M22.4,6.2l-1-1l-7.6-1.4c0,0,0,0,0,0c-2.7-0.5-5.1,0.9-5.6,3.6L7.8,9.3C7.7,9.8,7.7,10.2,8,10.7c0.3,0.5,0.5,0.6,1.1,0.7
	c1.2,0.2,1.9-0.2,2.2-1.4l0.4-1.7c0.1-0.4,0.8-0.8,1.2-0.8c0,0,0,0,0.1,0l4.7,0.2c0.2,0,0.4,0.1,0.5,0.2l8.6,8.8l3-3L22.4,6.2z
	 M33.8,9.2l-7-7.2c-0.2-0.2-0.4-0.2-0.6-0.2c-0.2,0-0.4,0.1-0.6,0.2l-1.5,1.5c-0.2,0.2-0.2,0.4-0.2,0.6c0,0.2,0.1,0.4,0.2,0.6
	l7.4,7.4l2.1-1.9c0.2-0.2,0.2-0.4,0.2-0.6C33.8,9.4,33.9,9.4,33.8,9.2z M31.6,10.3c-0.5,0-0.8-0.4-0.8-0.8c0-0.4,0.4-0.8,0.8-0.8
	c0.5,0,0.8,0.4,0.8,0.8C32.4,9.9,32,10.3,31.6,10.3z"/>
</svg>
