<?xml version="1.0" encoding="utf-8"?>
<!-- Generator: Adobe Illustrator 22.1.0, SVG Export Plug-In . SVG Version: 6.00 Build 0)  -->
<svg width="28" height="29" version="1.1" id="help" xmlns="http://www.w3.org/2000/svg" xmlns:xlink="http://www.w3.org/1999/xlink" x="0px" y="0px"
	 viewBox="0 0 29 30" style="enable-background:new 0 0 29 30;" xml:space="preserve">
<style type="text/css">
	.st0{fill:#FFFFFF;}
</style>
<path class="st0" d="M11.2,25.3c0-2.1,1.7-3.9,3.8-3.9c1.4,0,2.6,0.7,3.3,1.9c2.9-1.3,4-3.3,4-7.2v-4.2c0-5.6-3.2-9.5-8.1-9.5
	s-8.1,3.9-8.1,9.5v4.9c0,0.6-0.5,1.1-1.1,1.1H3.9C1.7,17.9,0,16.2,0,14v-1.4c0-2.1,1.7-3.9,3.9-3.9h0.7c1.1-5,4.7-8.4,9.8-8.4
	s8.8,3.4,9.8,8.4h0.7c2.1,0,3.9,1.7,3.9,3.9V14c0,2.1-1.7,3.9-3.9,3.9h-0.4c-0.1,3.4-2.3,6.4-5.5,7.5c0,2.1-1.8,3.8-3.9,3.8
	C12.9,29.2,11.2,27.4,11.2,25.3L11.2,25.3z M13.3,25.3c0,1,0.8,1.8,1.8,1.8c1,0,1.8-0.8,1.8-1.8c0-1-0.8-1.8-1.8-1.8
	C14.1,23.5,13.3,24.3,13.3,25.3z M24.5,15.8h0.3c1,0,1.8-0.8,1.8-1.8v-1.4c0-1-0.8-1.8-1.8-1.8h-0.4V15.8z M2.1,12.6V14
	c0,1,0.8,1.8,1.8,1.8h0.4v-4.9H3.9C2.9,10.9,2.1,11.7,2.1,12.6L2.1,12.6z"/>
</svg>
