<?xml version="1.0" encoding="utf-8"?>
<!-- Generator: Adobe Illustrator 22.1.0, SVG Export Plug-In . SVG Version: 6.00 Build 0)  -->
<svg width="60" height="70" version="1.1" baseProfile="basic" id="leaderboard"
	 xmlns="http://www.w3.org/2000/svg" xmlns:xlink="http://www.w3.org/1999/xlink" x="0px" y="0px" viewBox="0 0 60 70"
	 xml:space="preserve">
<style type="text/css">
	.st0{fill-rule:evenodd;clip-rule:evenodd;fill:#1c7eb8;}
</style>
<path class="st0" d="M60,70H48.6V58.6h4.5v-9.7H31.2v9.7h4.5V70H24.3V58.6h4.6v-9.7H6.9v9.7h4.5V70H0V58.6h4.6v-12h24.2v-8.9H11.3
	c-3.5,0-6.3-2.8-6.3-6.2V6.2C5.1,2.8,7.9,0,11.3,0h37.4C52.2,0,55,2.8,55,6.2v25.2c0,3.4-2.8,6.2-6.3,6.2H31.2v8.9h24.2v12H60V70z
	 M2.3,60.9v6.8h6.8v-6.8H2.3z M17,2.3h-5.7c-2.2,0-4,1.8-4,4v4.9H17V2.3z M17,13.5H7.3v18c0,2.2,1.8,4,4,4H17V13.5z M52.7,6.2
	c0-2.2-1.8-4-4-4H19.3v8.9h33.4V6.2z M48.7,35.5c2.2,0,4-1.8,4-4v-18H19.3v22H48.7z M26.6,60.9v6.8h6.8v-6.8H26.6z M57.7,60.9h-6.8
	v6.8h6.8V60.9z"/>
</svg>
