<svg id="manage_sercies" width="69" height="68" xmlns="http://www.w3.org/2000/svg" viewBox="0 0 68 68"><defs><style>.cls-1{fill:#1c7eb9;fill-rule:evenodd;}</style></defs><title>manage_servifes</title><path class="cls-1" d="M66.25,24.49a5.42,5.42,0,0,1-7-1.37L47.06,29.19v9.62l8,4a7.69,7.69,0,0,1,10.14-2.27A7.68,7.68,0,1,1,54,44.74l-7-3.48v7h-11v8.88a5.49,5.49,0,1,1-2.19,0V48.26h-11v-7l-7,3.48A7.68,7.68,0,1,1,4.84,40.51,7.67,7.67,0,0,1,15,42.78l8-4V29.19L10.78,23.12A5.44,5.44,0,0,1,7.9,25a5.35,5.35,0,0,1-1.43.19,5.53,5.53,0,1,1,5.29-4.08l11.17,5.59v-7h11V15.27a7.68,7.68,0,1,1,2.19,0v4.47h11v7l11.18-5.59a5.33,5.33,0,0,1,0-2.83A5.47,5.47,0,0,1,60.77,15a5.48,5.48,0,1,1,5.48,9.5ZM58.58,51.91a5.49,5.49,0,1,0-2-7.49A5.49,5.49,0,0,0,58.58,51.91ZM13.42,44.42a5.43,5.43,0,0,0-3.33-2.56,5.77,5.77,0,0,0-1.42-.19,5.49,5.49,0,1,0,4.75,2.75ZM9.66,18.89a3.28,3.28,0,0,0-1.53-2,3.36,3.36,0,0,0-1.64-.44,3.29,3.29,0,1,0,3.17,2.44ZM31.71,62.52A3.29,3.29,0,1,0,35,59.23,3.29,3.29,0,0,0,31.71,62.52ZM40.48,7.68A5.49,5.49,0,1,0,35,13.16,5.49,5.49,0,0,0,40.48,7.68Zm4.39,14.26H25.13V46.06H44.87ZM66.36,18.1a3.28,3.28,0,0,0-2.85-1.65,3.33,3.33,0,0,0-1.64.44,3.29,3.29,0,1,0,4.82,3.7A3.24,3.24,0,0,0,66.36,18.1ZM29.51,26.32H27.32V24.13h2.19Zm13.16,4.39H27.32V28.52H42.67Zm-11,4.39h4.38V32.9h6.58v11H27.32V37.29h4.39Zm6.58,6.58h2.19V35.1H38.29Zm-4.39,0h2.19V37.29H33.9Zm-4.39-2.2v2.2h2.2v-2.2Zm2.2-15.35h11v2.19h-11Zm0-16.45A3.29,3.29,0,1,1,35,11,3.29,3.29,0,0,1,31.71,7.68Zm4.38,0A1.1,1.1,0,1,0,35,8.77,1.09,1.09,0,0,0,36.09,7.68ZM10.32,50a3.29,3.29,0,0,1-4.49-1.2A3.29,3.29,0,1,1,10.32,50Zm-.69-3.4a1.11,1.11,0,0,0-1.5-.4,1.1,1.1,0,0,0,1.09,1.9A1.1,1.1,0,0,0,9.63,46.61ZM63,44.31a3.29,3.29,0,0,1-1.65,6.14A3.22,3.22,0,0,1,59.68,50h0A3.29,3.29,0,0,1,63,44.31Zm-2.19,3.8a1.1,1.1,0,1,0-.4-1.5A1.11,1.11,0,0,0,60.77,48.11Z" transform="translate(-1)"/></svg>