<?xml version="1.0" encoding="utf-8"?>
<!-- Generator: Adobe Illustrator 22.1.0, SVG Export Plug-In . SVG Version: 6.00 Build 0)  -->
<svg width="70" height="52" version="1.1" id="manual_x5F_issue" xmlns="http://www.w3.org/2000/svg" xmlns:xlink="http://www.w3.org/1999/xlink" x="0px"
	 y="0px" viewBox="0 0 70 52" style="enable-background:new 0 0 70 52;" xml:space="preserve">
<style type="text/css">
	.st0{fill-rule:evenodd;clip-rule:evenodd;fill:#3C81C0;}
	.st1{fill:#3C81C0;}
</style>
<path class="st0" d="M57.5,14.8v-0.8l-5,7.5c-0.3,0.5-0.9,0.7-1.4,0.5l-0.8-0.3V22c0,0.7-0.5,1.2-1.2,1.2s-1.2-0.5-1.2-1.2v-1.3
	l-1.8-0.7l-5.5,12.2c-0.1,0.1-0.1,0.1-0.1,0.1c0.1,0.2,0.2,0.4,0.2,0.6v13.6c0,0.7-0.5,1.2-1.2,1.2c-0.7,0-1.2-0.5-1.2-1.2V32.8
	c0-0.2,0-0.3,0.1-0.5l-2.3-1.5l-4.1,5.1c-0.2,0.3-0.6,0.5-0.9,0.5c0,0.7-0.5,1.2-1.2,1.2c-0.7,0-1.2-0.5-1.2-1.2v-3.2l-7.2-13.6V42
	c0,0.7-0.5,1.2-1.2,1.2c-0.7,0-1.2-0.5-1.2-1.2V18.4c0-0.6,0.5-1.2,1.1-1.2l-0.2-0.4L12.9,24c-0.2,0.2-0.6,0.4-0.9,0.3
	c-0.4,0-0.7-0.1-1-0.4l-0.7-0.9c-0.4-0.2-0.6-0.5-0.7-0.9l-3.7-4.5l-3.9,3.9c-0.5,0.5-1.2,0.5-1.7,0c-0.5-0.5-0.5-1.2,0-1.7l4.8-4.8
	c0.2-0.2,0.6-0.4,0.9-0.3c0.3,0,0.6,0.2,0.9,0.4l5.1,6.2l7.4-7.5c0.3-0.3,0.7-0.4,1-0.3c0.4,0.1,0.7,0.3,0.9,0.6l10,18.8l3.6-4.6
	c0.4-0.5,1.1-0.6,1.6-0.3l2.4,1.6l5.4-11.9c0.3-0.6,0.9-0.9,1.5-0.6l5.1,2L62.5,2.1c0.2-0.3,0.6-0.5,1-0.5h4.8
	c0.7,0,1.2,0.5,1.2,1.2c0,0.7-0.5,1.2-1.2,1.2h-4.1l-4.4,6.6c0.1,0.2,0.2,0.4,0.2,0.6 M12,49.6h7.2 M21.6,49.6h7.2 M31.1,49.6h7.2
	 M40.7,49.6h7.2 M50.3,49.6h7.2 M59.9,49.6h8.4c0.7,0,1.2,0.5,1.2,1.2c0,0.7-0.5,1.2-1.2,1.2h-67C0.5,52,0,51.5,0,50.8
	c0-0.7,0.5-1.2,1.2-1.2h8.4"/>
<path class="st1" d="M25.2,9c0,3,2.5,4.3,5.2,4.3c3.3,0,5-1.7,5-3.9c0-2.8-2.7-3.3-3.6-3.5c-3-0.8-3.6-0.9-3.6-1.8
	c0-1,1-1.4,1.8-1.4c1.3,0,2.3,0.4,2.4,1.8H35c0-2.8-2.3-3.9-4.9-3.9c-2.2,0-4.5,1.2-4.5,3.7c0,2.3,1.8,3,3.6,3.5
	c1.8,0.5,3.6,0.7,3.6,2c0,1.2-1.4,1.5-2.4,1.5c-1.4,0-2.7-0.6-2.7-2.2H25.2z"/>
<path class="st1" d="M37.7,13h2.7V8h5.1V5.9h-5.1V3.1h5.9V0.9h-8.5V13z"/>
<path class="st1" d="M64.8,46.4h3.7l-0.9-16.8h-5l-1.8,5.6c-0.5,1.9-1.1,4.1-1.6,6h-0.1c-0.4-2-0.9-4.1-1.4-6L56,29.6H51l-1.1,16.8
	h3.5l0.3-6.4c0.1-2.1,0.2-4.7,0.3-7h0c0.4,2.2,1,4.6,1.5,6.6l1.8,6.5h3l2-6.6c0.6-2,1.3-4.4,1.9-6.5h0.1c0,2.4,0.1,4.9,0.2,6.9
	L64.8,46.4z"/>
</svg>
