<?xml version="1.0" encoding="utf-8"?>
<!-- Generator: Adobe Illustrator 22.1.0, SVG Export Plug-In . SVG Version: 6.00 Build 0)  -->
<svg width="71" height="56" version="1.1" baseProfile="basic" id="members"
	 xmlns="http://www.w3.org/2000/svg" xmlns:xlink="http://www.w3.org/1999/xlink" x="0px" y="0px" viewBox="0 0 71 56"
	 xml:space="preserve">
<style type="text/css">
	.st0{fill-rule:evenodd;clip-rule:evenodd;fill:#3C81C0;}
</style>
<path class="st0" d="M66.2,44.4l-8-5c-0.8-0.4-1.4-1.3-1.4-2.2v-3.3c2-2.1,3.5-4.7,4.4-7.5l0,0c1-0.8,1.5-2,1.5-3.3V19
	c0-1-0.5-2-1.2-2.8l0-5.5C61.3,7,58.3,0,48.5,0c-2.2,0-4.5,0.4-6.5,1.3C40,0.4,37.7,0,35.5,0c-2.2,0-4.4,0.4-6.5,1.3
	C27,0.4,24.7,0,22.5,0c-12.1,0-13,10.2-13,10.7v5.5l0,0c-0.7,0.7-1.2,1.7-1.2,2.8v4.1c0,1.3,0.6,2.5,1.5,3.3l0,0
	c0.8,2.8,2.3,5.4,4.4,7.5v3.3c0,1-0.6,1.8-1.4,2.3l-7.9,5C1.9,46,0,49.2,0,52.7v0.9C0,54.9,1.1,56,2.4,56h66.3
	c1.3,0,2.4-1.1,2.4-2.4v-1C71,49.2,69.2,46.1,66.2,44.4L66.2,44.4z M27.2,53.6H2.4v-0.9c0-2.6,1.4-5,3.7-6.2l7.9-5
	c1.6-0.9,2.6-2.5,2.6-4.3v-3.7c0-0.3-0.1-0.6-0.3-0.8l-0.3-0.3c-1.8-1.8-3.1-4-3.8-6.4L12,25.4c-0.1-0.2-0.2-0.5-0.4-0.6l-0.3-0.3
	c-0.4-0.4-0.7-0.9-0.7-1.4V19c0-0.4,0.2-0.9,0.6-1.2l0.3-0.3c0.2-0.2,0.3-0.5,0.3-0.8l0-5.8c0.1-0.9,0.9-8.4,10.7-8.4
	c10,0,10.6,8.1,10.7,8.3v5.9c0,0.3,0.1,0.6,0.3,0.8l0.3,0.3c0.3,0.3,0.5,0.7,0.6,1.2v4.1c0,0.6-0.2,1.1-0.7,1.4l-0.3,0.3
	c-0.2,0.2-0.3,0.4-0.4,0.6l-0.1,0.4c-0.7,2.4-2,4.6-3.8,6.4l-0.3,0.3c-0.2,0.2-0.3,0.5-0.3,0.8v3.7c0,1.8,1,3.4,2.5,4.3l8,5
	c2.3,1.2,3.7,3.6,3.7,6.2v0.9H27.2z M45,53.6v-0.9c0-3.4-1.8-6.6-4.8-8.3l-8-5c-0.8-0.4-1.4-1.3-1.4-2.2v-3.3c2-2.1,3.5-4.7,4.4-7.5
	l0,0c1-0.8,1.5-2,1.5-3.3V19c0-1-0.5-2-1.2-2.8l0-5.5c-0.3-3-1.7-5.7-4-7.7c1.3-0.4,2.6-0.5,4-0.5c2.1-0.1,4.1,0.4,6,1.3
	c2.6,1.4,4.4,4.1,4.7,7.1v5.9c0,0.3,0.1,0.6,0.3,0.8l0.3,0.4c0.3,0.3,0.5,0.7,0.6,1.1v4.1c0,0.6-0.2,1.1-0.7,1.4l-0.3,0.3
	c-0.2,0.2-0.3,0.4-0.4,0.6l-0.1,0.4c-0.7,2.4-2,4.6-3.8,6.4l-0.3,0.3c-0.2,0.2-0.3,0.5-0.3,0.8v3.8c0,1.8,1,3.4,2.6,4.3l8,5
	c2.3,1.2,3.7,3.6,3.7,6.2v1H45z M68.6,53.6H58v-1c0-3.4-1.8-6.6-4.8-8.3l-8-5c-0.8-0.4-1.4-1.3-1.4-2.2v-3.3c2-2.1,3.5-4.7,4.4-7.5
	l0,0c1-0.8,1.5-2,1.5-3.3V19c0-1-0.5-2-1.2-2.8l0-5.6c-0.3-3-1.7-5.7-4-7.7c1.3-0.4,2.6-0.5,4-0.5c10,0,10.6,8.1,10.7,8.4v5.9
	c0,0.3,0.1,0.6,0.3,0.8l0.3,0.4c0.3,0.3,0.5,0.7,0.6,1.1v4.1c0,0.6-0.2,1.1-0.7,1.4l-0.3,0.3c-0.2,0.2-0.3,0.4-0.4,0.6l-0.1,0.4
	c-0.7,2.4-2,4.6-3.8,6.4l-0.3,0.3c-0.2,0.2-0.3,0.5-0.3,0.8v3.8c0,1.8,1,3.4,2.6,4.3l8,5c2.3,1.2,3.7,3.6,3.7,6.2V53.6z"/>
</svg>
