<?xml version="1.0" encoding="utf-8"?>
<!-- Generator: Adobe Illustrator 22.1.0, SVG Export Plug-In . SVG Version: 6.00 Build 0)  -->
<svg width="73" height="61" version="1.1" baseProfile="basic" id="members"
	 xmlns="http://www.w3.org/2000/svg" xmlns:xlink="http://www.w3.org/1999/xlink" x="0px" y="0px" viewBox="0 0 73 61"
	 xml:space="preserve">
<style type="text/css">
	.st0{fill-rule:evenodd;clip-rule:evenodd;fill:#3C81C0;}
</style>
<path class="st0" d="M71.1,34.8l-2.8-1.4c0,0-0.1-0.1-0.1-0.1v-1.7c1.4-1.1,2.4-2.7,2.4-4.6v-2.4c0-2.5-2.1-4.6-4.6-4.6h-2.4
	c0,0-0.1,0-0.1,0v-2.2c0-1.3-0.7-2.5-1.9-3.1l-2.8-1.4c0,0-0.1-0.1-0.1-0.1v-1.7c1.4-1.1,2.4-2.7,2.4-4.6V4.6c0-2.5-2.1-4.6-4.6-4.6
	h-2.4c-2.5,0-4.6,2.1-4.6,4.6V7c0,1.9,0.9,3.6,2.4,4.6v1.7c0,0,0,0.1-0.1,0.1l-2.8,1.4c-1.2,0.6-1.9,1.8-1.9,3.1V20c0,0-0.1,0-0.1,0
	h-2.4c0,0-0.1,0-0.1,0v-2.2c0-1.3-0.7-2.5-1.9-3.1L40,13.4c0,0-0.1-0.1-0.1-0.1v-1.7c1.4-1.1,2.4-2.7,2.4-4.6V4.6
	c0-2.5-2.1-4.6-4.6-4.6h-2.4c-2.5,0-4.6,2.1-4.6,4.6V7c0,1.9,0.9,3.6,2.4,4.6v1.7c0,0,0,0.1-0.1,0.1l-2.8,1.4
	c-1.2,0.6-1.9,1.8-1.9,3.1V20c0,0-0.1,0-0.1,0h-2.4c0,0-0.1,0-0.1,0v-2.2c0-1.3-0.7-2.5-1.9-3.1l-2.8-1.4c0,0-0.1-0.1-0.1-0.1v-1.7
	c1.4-1.1,2.4-2.7,2.4-4.6V4.6c0-2.5-2.1-4.6-4.6-4.6h-2.4c-2.5,0-4.6,2.1-4.6,4.6V7c0,1.9,0.9,3.6,2.4,4.6v1.7c0,0,0,0.1-0.1,0.1
	l-2.8,1.4c-1.2,0.6-1.9,1.8-1.9,3.1V20c0,0-0.1,0-0.1,0H7c-2.5,0-4.6,2.1-4.6,4.6V27c0,1.9,0.9,3.6,2.4,4.6v1.7c0,0,0,0.1-0.1,0.1
	l-2.8,1.4C0.7,35.4,0,36.5,0,37.8v11.6c0,0.9,0.3,1.8,0.8,2.6l1.2,1.8c0.3,0.4,0.4,0.9,0.4,1.4v4.8c0,0.6,0.5,1.1,1.1,1.1
	c0.6,0,1.1-0.5,1.1-1.1v-4.8c0-0.9-0.3-1.8-0.8-2.6l-1.2-1.8c-0.3-0.4-0.4-0.9-0.4-1.4V37.8c0-0.5,0.3-0.9,0.7-1.2l1.9-1l1.8,1.8
	c0.4,0.4,1,0.7,1.6,0.7c0.6,0,1.2-0.2,1.6-0.7l1.8-1.8l1.9,1c0.4,0.2,0.7,0.7,0.7,1.2v11.6c0,0.5-0.1,1-0.4,1.4l-1.2,1.8
	c-0.5,0.8-0.8,1.6-0.8,2.6v4.8c0,0.6,0.5,1.1,1.1,1.1s1.1-0.5,1.1-1.1v-4.8c0-0.5,0.1-1,0.4-1.4l1.2-1.8c0.5-0.8,0.8-1.6,0.8-2.6
	V37.8c0-1.3-0.7-2.5-1.9-3.1l-2.8-1.4c0,0-0.1-0.1-0.1-0.1v-1.7c1.4-1.1,2.4-2.7,2.4-4.6v-2.4c0-1.7-1-3.2-2.4-4v-2.8
	c0-0.5,0.3-0.9,0.7-1.2l1.9-1l1.8,1.8c0.4,0.4,1,0.7,1.6,0.7s1.2-0.2,1.6-0.7l1.8-1.8l1.9,1c0.4,0.2,0.7,0.7,0.7,1.2v2.8
	c-1.4,0.8-2.4,2.3-2.4,4V27c0,1.9,0.9,3.6,2.4,4.6v1.7c0,0,0,0.1-0.1,0.1l-2.8,1.4c-1.2,0.6-1.9,1.8-1.9,3.1v11.6
	c0,0.9,0.3,1.8,0.8,2.6l1.2,1.8c0.3,0.4,0.4,0.9,0.4,1.4v4.8c0,0.6,0.5,1.1,1.1,1.1c0.6,0,1.1-0.5,1.1-1.1v-4.8
	c0-0.9-0.3-1.8-0.8-2.6l-1.2-1.8c-0.3-0.4-0.4-0.9-0.4-1.4V37.8c0-0.5,0.3-0.9,0.7-1.2l1.9-1l1.8,1.8c0.4,0.4,1,0.7,1.6,0.7
	c0.6,0,1.2-0.2,1.6-0.7l1.8-1.8l1.9,1c0.4,0.2,0.7,0.7,0.7,1.2v11.6c0,0.5-0.1,1-0.4,1.4l-1.2,1.8c-0.5,0.8-0.8,1.6-0.8,2.6v4.8
	c0,0.6,0.5,1.1,1.1,1.1c0.6,0,1.1-0.5,1.1-1.1v-4.8c0-0.5,0.1-1,0.4-1.4l1.2-1.8c0.5-0.8,0.8-1.6,0.8-2.6V37.8
	c0-1.3-0.7-2.5-1.9-3.1l-2.8-1.4c0,0-0.1-0.1-0.1-0.1v-1.7c1.4-1.1,2.4-2.7,2.4-4.6v-2.4c0-1.7-1-3.2-2.4-4v-2.8
	c0-0.5,0.3-0.9,0.7-1.2l1.9-1l1.8,1.8c0.4,0.4,1,0.7,1.6,0.7s1.2-0.2,1.6-0.7l1.8-1.8l1.9,1c0.4,0.2,0.7,0.7,0.7,1.2v2.8
	c-1.4,0.8-2.4,2.3-2.4,4V27c0,1.9,0.9,3.6,2.4,4.6v1.7c0,0,0,0.1-0.1,0.1l-2.8,1.4c-1.2,0.6-1.9,1.8-1.9,3.1v11.6
	c0,0.9,0.3,1.8,0.8,2.6l1.2,1.8c0.3,0.4,0.4,0.9,0.4,1.4v4.8c0,0.6,0.5,1.1,1.1,1.1c0.6,0,1.1-0.5,1.1-1.1v-4.8
	c0-0.9-0.3-1.8-0.8-2.6l-1.2-1.8c-0.3-0.4-0.4-0.9-0.4-1.4V37.8c0-0.5,0.3-0.9,0.7-1.2l1.9-1l1.8,1.8c0.4,0.4,1,0.7,1.6,0.7
	c0.6,0,1.2-0.2,1.6-0.7l1.8-1.8l1.9,1c0.4,0.2,0.7,0.7,0.7,1.2v11.6c0,0.5-0.1,1-0.4,1.4l-1.2,1.8c-0.5,0.8-0.8,1.6-0.8,2.6v4.8
	c0,0.6,0.5,1.1,1.1,1.1c0.6,0,1.1-0.5,1.1-1.1v-4.8c0-0.5,0.1-1,0.4-1.4l1.2-1.8c0.5-0.8,0.8-1.6,0.8-2.6V37.8
	c0-1.3-0.7-2.5-1.9-3.1l-2.8-1.4c0,0-0.1-0.1-0.1-0.1v-1.7c1.4-1.1,2.4-2.7,2.4-4.6v-2.4c0-1.7-1-3.2-2.4-4v-2.8
	c0-0.5,0.3-0.9,0.7-1.2l1.9-1l1.8,1.8c0.4,0.4,1,0.7,1.6,0.7c0.6,0,1.2-0.2,1.6-0.7l1.8-1.8l1.9,1c0.4,0.2,0.7,0.7,0.7,1.2v2.8
	c-1.4,0.8-2.4,2.3-2.4,4V27c0,1.9,0.9,3.6,2.4,4.6v1.7c0,0,0,0.1-0.1,0.1l-2.8,1.4c-1.2,0.6-1.9,1.8-1.9,3.1v11.6
	c0,0.9,0.3,1.8,0.8,2.6l1.2,1.8c0.3,0.4,0.4,0.9,0.4,1.4v4.8c0,0.6,0.5,1.1,1.1,1.1c0.6,0,1.1-0.5,1.1-1.1v-4.8
	c0-0.9-0.3-1.8-0.8-2.6l-1.2-1.8c-0.3-0.4-0.4-0.9-0.4-1.4V37.8c0-0.5,0.3-0.9,0.7-1.2l1.9-1l1.8,1.8c0.4,0.4,1,0.7,1.6,0.7
	c0.6,0,1.2-0.2,1.6-0.7l1.8-1.8l1.9,1c0.4,0.2,0.7,0.7,0.7,1.2v11.6c0,0.5-0.1,1-0.4,1.4l-1.2,1.8c-0.5,0.8-0.8,1.6-0.8,2.6v4.8
	c0,0.6,0.5,1.1,1.1,1.1c0.6,0,1.1-0.5,1.1-1.1v-4.8c0-0.5,0.1-1,0.4-1.4l1.2-1.8c0.5-0.8,0.8-1.6,0.8-2.6V37.8
	C73,36.5,72.3,35.4,71.1,34.8z M8.2,36c0,0-0.1,0-0.2,0l-1.5-1.5c0.2-0.3,0.3-0.7,0.3-1.1v-0.6h2.6v0.6c0,0.4,0.1,0.8,0.3,1.1
	L8.2,36z M11.8,24.6V27h0c0,2-1.6,3.6-3.7,3.6S4.5,29,4.5,27v-2.4c0-1.4,1.1-2.5,2.5-2.5h2.4C10.7,22.1,11.8,23.3,11.8,24.6z
	 M17.7,16c0,0-0.1,0-0.2,0L16,14.4c0.2-0.3,0.3-0.7,0.3-1.1v-0.6h2.6v0.6c0,0.4,0.1,0.8,0.3,1.1L17.7,16z M17.6,10.6
	c-2,0-3.7-1.6-3.7-3.6V4.6h0c0-1.4,1.1-2.5,2.5-2.5h2.4c1.4,0,2.5,1.1,2.5,2.5V7C21.3,9,19.6,10.6,17.6,10.6z M27.1,36
	c0,0-0.1,0-0.2,0l-1.5-1.5c0.2-0.3,0.3-0.7,0.3-1.1v-0.6h2.6v0.6c0,0.4,0.1,0.8,0.3,1.1L27.1,36z M30.7,24.6V27h0
	c0,2-1.6,3.6-3.7,3.6c-2,0-3.7-1.6-3.7-3.6v-2.4c0-1.4,1.1-2.5,2.5-2.5h2.4C29.6,22.1,30.7,23.3,30.7,24.6z M36.6,16
	c0,0-0.1,0-0.2,0l-1.5-1.5c0.2-0.3,0.3-0.7,0.3-1.1v-0.6h2.6v0.6c0,0.4,0.1,0.8,0.3,1.1L36.6,16z M36.5,10.6c-2,0-3.7-1.6-3.7-3.6
	V4.6l0,0c0-1.4,1.1-2.5,2.5-2.5h2.4c1.4,0,2.5,1.1,2.5,2.5V7C40.2,9,38.5,10.6,36.5,10.6z M46,36c0,0-0.1,0-0.2,0l-1.5-1.5
	c0.2-0.3,0.3-0.7,0.3-1.1v-0.6h2.6v0v0.6c0,0.4,0.1,0.8,0.3,1.1L46,36z M49.6,24.6V27c0,2-1.6,3.6-3.7,3.6c-2,0-3.7-1.6-3.7-3.6
	v-2.4c0-1.4,1.1-2.5,2.5-2.5h2.4C48.5,22.1,49.6,23.3,49.6,24.6z M55.5,16c0,0-0.1,0-0.2,0l-1.5-1.5c0.2-0.3,0.3-0.7,0.3-1.1v-0.6
	h2.6v0.6c0,0.4,0.1,0.8,0.3,1.1L55.5,16z M55.4,10.6c-2,0-3.7-1.6-3.7-3.6V4.6c0-1.4,1.1-2.5,2.5-2.5h2.4c1.4,0,2.5,1.1,2.5,2.5V7
	C59.1,9,57.4,10.6,55.4,10.6z M64.9,36c0,0-0.1,0-0.2,0l-1.5-1.5c0.2-0.3,0.3-0.7,0.3-1.1v-0.6h2.6v0.6c0,0.4,0.1,0.8,0.3,1.1
	L64.9,36z M64.8,30.6c-2,0-3.7-1.6-3.7-3.6v-2.4l0,0c0-1.4,1.1-2.5,2.5-2.5H66c1.4,0,2.5,1.1,2.5,2.5V27
	C68.5,29,66.9,30.6,64.8,30.6z"/>
</svg>
