<svg id="members" width="64" height="64" xmlns="http://www.w3.org/2000/svg" viewBox="0 0 64 64"><defs><style>.cls-1{fill:#2075bb;fill-rule:evenodd;}</style></defs><title>members</title><path class="cls-1" d="M51.2,25.6A12.8,12.8,0,1,0,39.61,7.4L36.19,6.13a5.16,5.16,0,0,0,.08-.8,5.4,5.4,0,1,0-.82,2.8L38.87,9.4a12.59,12.59,0,0,0,.18,7.4l-11.73,5a12.73,12.73,0,0,0-15.83-6l-3-6.2a5.31,5.31,0,1,0-3.21,1.1,5,5,0,0,0,1.29-.18l2.94,6.2a12.77,12.77,0,0,0-.68,21.67l-2,3.51a5.31,5.31,0,0,0-1.6-.27,5.41,5.41,0,1,0,3.46,1.31l2-3.52a12.69,12.69,0,0,0,13-1.52L28,42.49a12.76,12.76,0,0,0-3.45,8.71,13.3,13.3,0,0,0,.16,1.91l-4.94,1.18a5.29,5.29,0,1,0,.52,2.24c0-.06,0-.11,0-.17l4.93-1.17a12.79,12.79,0,1,0,23.43-10l6.26-4.08a5.42,5.42,0,1,0-1.16-1.79l-6.28,4.08a12.76,12.76,0,0,0-4.76-3.78l5.2-14.43a13.11,13.11,0,0,0,3.33.45ZM30.93,8.53a3.2,3.2,0,1,1,3.2-3.2,3.2,3.2,0,0,1-3.2,3.2ZM2.13,5.33a3.2,3.2,0,1,1,3.2,3.2,3.21,3.21,0,0,1-3.2-3.2Zm3.2,44.8a3.2,3.2,0,1,1,3.2-3.2,3.2,3.2,0,0,1-3.2,3.2Zm9.6,9.6a3.2,3.2,0,1,1,3.2-3.2,3.2,3.2,0,0,1-3.2,3.2Zm43.74-25.6a3.2,3.2,0,1,1-3.2,3.2,3.21,3.21,0,0,1,3.2-3.2ZM44.92,21.4a5.33,5.33,0,0,1,5.21-4.33h2.14a5.33,5.33,0,0,1,5.21,4.33,10.56,10.56,0,0,1-12.56,0Zm6.28-6.47a3.2,3.2,0,1,1,3.2-3.2,3.2,3.2,0,0,1-3.2,3.2Zm0-12.8A10.69,10.69,0,0,1,61.87,12.8a10.56,10.56,0,0,1-2.62,7A7.57,7.57,0,0,0,55,15.46a5.33,5.33,0,1,0-7.6,0,7.57,7.57,0,0,0-4.25,4.31,10.56,10.56,0,0,1-2.62-7A10.69,10.69,0,0,1,51.2,2.13ZM5.33,27.73a10.67,10.67,0,1,1,18.71,7,7.58,7.58,0,0,0-4.26-4.34,5.26,5.26,0,0,0,1.53-3.72,5.33,5.33,0,1,0-9.14,3.72,7.6,7.6,0,0,0-4.24,4.3,10.64,10.64,0,0,1-2.6-7Zm7.45-1.06a3.2,3.2,0,1,1,3.2,3.2,3.2,3.2,0,0,1-3.2-3.2ZM9.7,36.32A5.34,5.34,0,0,1,14.91,32h2.14a5.34,5.34,0,0,1,5.21,4.35,10.58,10.58,0,0,1-12.56,0ZM31,59.79a5.35,5.35,0,0,1,5.22-4.32h2.13a5.35,5.35,0,0,1,5.22,4.35,10.6,10.6,0,0,1-12.57,0Zm6.28-6.46a3.2,3.2,0,1,1,3.2-3.2,3.2,3.2,0,0,1-3.2,3.2ZM48,51.2a10.62,10.62,0,0,1-2.63,7,7.58,7.58,0,0,0-4.25-4.33,5.34,5.34,0,1,0-7.61,0,7.54,7.54,0,0,0-4.24,4.3A10.66,10.66,0,1,1,48,51.2ZM40.66,38.85a13,13,0,0,0-3.33-.45,12.69,12.69,0,0,0-7.77,2.66l-4.2-4.62a12.71,12.71,0,0,0,2.79-12.71l11.73-5a12.89,12.89,0,0,0,6,5.66Z"/></svg>