<svg id="member" width="41" height="35" xmlns="http://www.w3.org/2000/svg" viewBox="0 0 40.53 34.2"><defs><style>.cls-1{fill:#059886;}</style></defs><title>member</title><path class="cls-1" d="M2.15,23.62A5.18,5.18,0,0,1,5,19.37a9.62,9.62,0,0,0,4.52,2.42l-2,9.74,4.24,3.38L16,31.53l-2-9.76a9.73,9.73,0,0,0,4.47-2.45c1.85,1.08,3,2.64,3,4.3v6.86h2.15V23.62a7.2,7.2,0,0,0-3.72-5.95,9.76,9.76,0,1,0-16.22.06A7.18,7.18,0,0,0,0,23.62v6.86H2.15V23.62Zm9.63,8.55L9.91,30.68l1.63-7.91H12l1.65,7.91ZM11.71,4.62A7.64,7.64,0,1,1,4.1,12.26,7.63,7.63,0,0,1,11.71,4.62Z" transform="translate(0 -0.71)"/><path class="cls-1" d="M33,5H30.82V8.23H27.55v2.14h3.27v3.25H33V10.37h3.26V8.23H33Z" transform="translate(0 -0.71)"/><path class="cls-1" d="M32,.71a8.51,8.51,0,1,0,8.55,8.51A8.54,8.54,0,0,0,32,.71Zm0,14.88a6.37,6.37,0,1,1,6.4-6.37A6.39,6.39,0,0,1,32,15.59Z" transform="translate(0 -0.71)"/></svg>