<svg id="messages" width="26" height="26" xmlns="http://www.w3.org/2000/svg" viewBox="0 0 25.43 25.83"><defs><style>.cls-1{fill:#fff;fill-rule:evenodd;}</style></defs><title>messages</title><path class="cls-1" d="M.58,8.15V3.4A3.43,3.43,0,0,1,4,0H22.6A3.39,3.39,0,0,1,26,3.4v16a3.4,3.4,0,0,1-3.41,3.4H4.92a4.19,4.19,0,0,0-.35.3l-.18.17-2.6,2.36a.76.76,0,0,1-.78.12.72.72,0,0,1-.43-.64v-15M24,3.4C24,2.3,23.71,2,22.6,2H4C2.92,2,2.6,2.3,2.6,3.4V22.58l.82-.92.19-.16a1.79,1.79,0,0,1,1.67-.68H22.6c1.11,0,1.39-.3,1.39-1.4ZM7.24,10.15H19.65v2.11H7.24Zm0-4.55H19.65V7.71H7.24Zm5.52,11.21H7.24V14.69h5.52Z" transform="translate(-0.58 -0.01)"/></svg>