<svg id="message" width="37" height="28" xmlns="http://www.w3.org/2000/svg" viewBox="0 0 36.3 27.83"><defs><style>.cls-1{fill:#2075bb;fill-rule:evenodd;}</style></defs><title>message2</title><path class="cls-1" d="M32.56,27.83H5.14A4.46,4.46,0,0,1,.7,23.36V4.47A4.46,4.46,0,0,1,5.14,0H32.57A4.45,4.45,0,0,1,37,4.48V23.36A4.46,4.46,0,0,1,32.56,27.83ZM35,23.36V4.48a2.42,2.42,0,0,0-2.41-2.43H5.14A2.42,2.42,0,0,0,2.73,4.48V23.36a2.42,2.42,0,0,0,2.41,2.43H32.57A2.42,2.42,0,0,0,35,23.36Zm-2.42.29a1,1,0,0,1-.74.32,1,1,0,0,1-.7-.28l-9-8.64-2.53,2.28a1,1,0,0,1-.67.27,1,1,0,0,1-.68-.26l-2.46-2.22L6.66,23.68A1,1,0,0,1,6,24a1.06,1.06,0,0,1-.75-.32,1,1,0,0,1,0-1.45l8.94-8.43-9-8.09a1,1,0,0,1-.08-1.45,1,1,0,0,1,1.43-.08l9.72,8.76.17.15a0,0,0,0,0,0,0l2.39,2.15L31.11,4.14a1,1,0,0,1,1.44.07,1,1,0,0,1-.08,1.45l-8.88,8,8.92,8.53A1,1,0,0,1,32.55,23.65Z" transform="translate(-0.7)"/></svg>