<svg id="money" width="48" height="43" xmlns="http://www.w3.org/2000/svg" viewBox="0 0 48 43"><defs><style>.cls-1{fill:#000;fill-rule:evenodd;}</style></defs><title>money</title><path class="cls-1" d="M47.49,20.7l-8,5.06a1.11,1.11,0,0,1-.57.17,1.06,1.06,0,0,1-.92-.51,1.09,1.09,0,0,1,.34-1.5l8-5.06a1.09,1.09,0,1,1,1.16,1.84Zm0-4.35-8,5.06a1,1,0,0,1-.57.17,1.06,1.06,0,0,1-.92-.51,1.08,1.08,0,0,1,.34-1.49l8-5.07a1.09,1.09,0,1,1,1.16,1.84Zm0-4.34-8,5.06a1.08,1.08,0,0,1-1.15-1.84l6.5-4.1L29.36,2.35,20.15,8.16l16,9.09.12.08,0,0,.08.07,0,0a.39.39,0,0,1,.08.1h0l.06.07v0l0,0s0,.05,0,.08v0a.56.56,0,0,1,0,.12h0a.5.5,0,0,1,0,.13v0a.34.34,0,0,1,0,.1V31.24a1.1,1.1,0,0,1-.5.92l-5.65,3.56a1.1,1.1,0,0,1-.58.16,1.12,1.12,0,0,1-.53-.13,1.1,1.1,0,0,1-.56-1V22.39L12.41,13,3.2,18.83l15.44,8.78,7.49-4.72a1.09,1.09,0,1,1,1.16,1.84l-8,5.07a1.1,1.1,0,0,1-.58.16,1.06,1.06,0,0,1-.54-.14L.55,19.82A1.1,1.1,0,0,1,0,18.9,1.06,1.06,0,0,1,.51,18L11.8,10.84h0l5.64-3.56h0L28.75.17a1.06,1.06,0,0,1,1.11,0l17.59,10a1.09,1.09,0,0,1,0,1.87Zm-33-.3,16,9.11a1.08,1.08,0,0,1,.55.94V32.83l3.48-2.19V20.17l-1.22.77a1.12,1.12,0,0,1-.58.17,1.09,1.09,0,0,1-.58-2l1.35-.85L18.06,9.47ZM1.62,22.28l17,9.68,7.49-4.72a1.09,1.09,0,1,1,1.16,1.84l-8,5.06a1.12,1.12,0,0,1-.58.17,1.17,1.17,0,0,1-.54-.14L.55,24.17a1.09,1.09,0,0,1-.41-1.48A1.08,1.08,0,0,1,1.62,22.28Zm0,4.34,17,9.68,7.49-4.72a1.09,1.09,0,0,1,1.5.35,1.08,1.08,0,0,1-.34,1.49l-8,5.07a1.1,1.1,0,0,1-.58.16,1.06,1.06,0,0,1-.54-.14L.55,28.51a1.09,1.09,0,0,1,1.07-1.89Zm0,4.35,17,9.68,7.49-4.72a1.09,1.09,0,0,1,1.16,1.84l-8,5.06a1.12,1.12,0,0,1-.58.17,1.17,1.17,0,0,1-.54-.14L.55,32.86a1.09,1.09,0,0,1-.41-1.48A1.09,1.09,0,0,1,1.62,31Zm36.68-2.7,8-5.07A1.09,1.09,0,1,1,47.49,25l-8,5.07a1.1,1.1,0,0,1-.57.16,1.08,1.08,0,0,1-.58-2Z"/></svg>