<?xml version="1.0" encoding="utf-8"?>
<!-- Generator: Adobe Illustrator 22.1.0, SVG Export Plug-In . SVG Version: 6.00 Build 0)  -->
<svg width="75" height="61" version="1.1" baseProfile="basic" id="money" xmlns="http://www.w3.org/2000/svg" xmlns:xlink="http://www.w3.org/1999/xlink"
	 x="0px" y="0px" viewBox="0 0 75 61" xml:space="preserve">
<style type="text/css">
	.st0{fill-rule:evenodd;clip-rule:evenodd;fill:#3C81C0;}
</style>
<path class="st0" d="M74.8,37.2c-0.2-0.3-0.4-0.5-0.7-0.6l-5.4-2.2l5.6-3.3c0.7-0.4,0.9-1.3,0.5-2c-0.2-0.3-0.4-0.5-0.7-0.6
	l-5.4-2.2l5.6-3.3c0.5-0.3,0.8-0.8,0.7-1.4c0-0.6-0.4-1-0.9-1.3l-21.2-8.7L42.5,7.1C42.3,7.1,42.1,7,41.9,7l-17-6.9
	C24.5-0.1,24,0,23.6,0.2L0.9,13c-0.7,0.4-1,1.3-0.7,2c0.2,0.3,0.5,0.6,0.8,0.7L6.5,18l-5.6,3.1c-0.7,0.4-1,1.3-0.6,2
	c0.2,0.3,0.4,0.5,0.7,0.6L6.5,26l-5.6,3.1c-0.8,0.3-1.1,1.2-0.8,1.9C0.3,31.5,0.6,31.8,1,32l5.5,2.3l-5.6,3.1c-0.7,0.4-1,1.3-0.6,2
	C0.5,39.7,0.7,39.9,1,40l19.1,8.1c0.1,0.1,0.1,0.1,0.2,0.1l10.4,4.4L50,60.9c0.4,0.2,0.9,0.2,1.3-0.1l22.9-13.5
	c0.7-0.4,0.9-1.3,0.5-2c-0.2-0.3-0.4-0.5-0.7-0.6l-5.4-2.2l5.6-3.3C75,38.8,75.2,37.9,74.8,37.2z M72.4,29.8L50.5,42.5l-17.6-7.3v-6
	L50,36.5c0.2,0.1,0.4,0.1,0.6,0.1c0.3,0,0.5-0.1,0.8-0.2l15.7-9.1L72.4,29.8z M72.4,21.7l-22,12.9l-16.9-7.3l22.1-12.2L72.4,21.7z
	 M19.4,45.8l-17-7.3l6.1-3.4l10.9,4.7L19.4,45.8z M19.4,37.6l-17-7.3l5.9-3.5l11.1,4.7L19.4,37.6z M19.4,29.5l-17-7.3l5.9-3.4
	l11.1,4.7L19.4,29.5z M2.9,14.4L24.5,2.2l18.3,7.7L20.8,21.9L2.9,14.4z M31.4,26c-0.4,0.3-0.7,0.7-0.7,1.2v23.3l-9.1-3.8V24.1
	l23.5-13.2l8.1,3.3L31.4,26z M72.4,46.1L50.5,58.8l-17.6-7.3v-6L50,52.7c0.4,0.2,0.9,0.2,1.3-0.1l15.7-9.1L72.4,46.1z M50.5,50.7
	l-17.6-7.3v-6L50,44.6c0.4,0.2,0.9,0.2,1.3-0.1l15.7-9.1l5.3,2.6L50.5,50.7z"/>
</svg>
