<?xml version="1.0" encoding="utf-8"?>
<!-- Generator: Adobe Illustrator 22.1.0, SVG Export Plug-In . SVG Version: 6.00 Build 0)  -->
<svg width="24" height="24" version="1.1" id="notification" xmlns="http://www.w3.org/2000/svg" xmlns:xlink="http://www.w3.org/1999/xlink" x="0px"
	 y="0px" viewBox="0 0 28 28" style="enable-background:new 0 0 28 28;" xml:space="preserve">
<style type="text/css">
	.st0{fill:#059886;}
</style>
<path class="st0" d="M15.1,28H6.5c-1.9,0-3,0-4-0.5c-0.9-0.4-1.6-1.2-2-2c-0.5-1-0.5-2.1-0.5-4V6.5c0-1.9,0-3,0.5-4
	c0.5-0.9,1.2-1.6,2-2C3.5,0,4.6,0,6.5,0h14.9c1.9,0,3,0,4,0.5c0.9,0.5,1.6,1.2,2,2c0.5,1,0.5,2.1,0.5,4V15c0,0.2,0,0.4,0,0.5
	c0,0,0,0,0,0c0,0.5,0,0.9-0.1,1.3c-0.1,0.5-0.3,0.9-0.6,1.3c-0.3,0.5-0.6,0.8-1.2,1.4l-6.4,6.4c-0.6,0.6-0.9,0.9-1.4,1.2
	c-0.4,0.3-0.9,0.4-1.3,0.6C16.5,28,16.1,28,15.6,28c0,0,0,0,0,0C15.4,28,15.2,28,15.1,28z M6.5,3.1c-1.3,0-2.2,0-2.6,0.2
	C3.7,3.4,3.4,3.7,3.3,4C3.1,4.3,3.1,5.2,3.1,6.5v14.9c0,1.3,0,2.2,0.2,2.6c0.2,0.3,0.4,0.5,0.7,0.7c0.3,0.2,1.2,0.2,2.6,0.2H14V18
	c0-1,0-1.7,0.3-2.3c0.3-0.6,0.8-1.1,1.4-1.4C16.4,14,17,14,18,14h6.8V6.5c0-1.3,0-2.2-0.2-2.6c-0.1-0.3-0.4-0.5-0.7-0.7
	c-0.3-0.2-1.2-0.2-2.6-0.2H6.5z M17.1,17.1c0,0.2,0,0.6,0,0.9v6.2c0.1-0.1,0.2-0.2,0.4-0.4l6.4-6.4c0.1-0.1,0.3-0.3,0.4-0.4H18
	C17.7,17.1,17.3,17.1,17.1,17.1z M17.1,17L17.1,17L17.1,17z"/>
</svg>
