<svg id="notifications" width="63" height="47" xmlns="http://www.w3.org/2000/svg" viewBox="0 0 63 47"><defs><style>.cls-1{fill:#3855a2;fill-rule:evenodd;}</style></defs><title>notifications</title><path class="cls-1" d="M62,8.81h-6.9V47l-8.85-3.92L38.39,47,31.5,43.08,24.61,47l-7.88-3.92L7.88,47V8.81H1a1,1,0,0,1-1-1V1A1,1,0,0,1,1,0H62a1,1,0,0,1,1,1V7.83A1,1,0,0,1,62,8.81ZM7.88,2H2V6.85H7.88ZM53.16,2H9.84V44l6.09-2.7.85-.37.83.41,6.94,3.45,6-3.4,1-.55,1,.55,6,3.4,6.94-3.45.83-.41.85.37L53.16,44ZM61,2H55.12V6.85H61ZM18.7,24.48H44.3v2H18.7Zm0-5.88H44.3v2H18.7Zm0-5.87H44.3v2H18.7ZM32.48,32.31H18.7v-2H32.48Z"/></svg>