<?xml version="1.0" encoding="utf-8"?>
<!-- Generator: Adobe Illustrator 22.1.0, SVG Export Plug-In . SVG Version: 6.00 Build 0)  -->
<svg width="22" height="30" version="1.1" id="notifications" xmlns="http://www.w3.org/2000/svg" xmlns:xlink="http://www.w3.org/1999/xlink" x="0px"
	 y="0px" viewBox="0 0 23 31" style="enable-background:new 0 0 23 31;" xml:space="preserve">
<style type="text/css">
	.st0{fill:#FFFFFF;}
</style>
<path class="st0" d="M22,21.8l-2.5-4.1v-5.8c0.2-3.1-1.5-6.1-4.2-7.6c0-0.2,0-0.5,0-0.7c-0.1-2-1.7-3.6-3.7-3.5c0,0,0,0,0,0
	C9.6,0,7.9,1.6,7.9,3.6c0,0,0,0,0,0c0,0.2,0,0.5,0,0.7c-2.8,1.5-4.4,4.5-4.2,7.6v5.8l-2.5,4.1c-0.7,1.1-0.3,2.5,0.8,3.2
	c0.4,0.2,0.8,0.3,1.2,0.3h3.3c0.2,2.7,2.5,4.8,5.1,4.7c2.7,0.1,5-2,5.1-4.7H20c1.3,0,2.3-1.1,2.3-2.4C22.4,22.6,22.2,22.2,22,21.8z
	 M10.2,3.6c0.1-0.7,0.7-1.2,1.4-1.2c0.7-0.1,1.3,0.5,1.4,1.2c-0.5,0-0.9,0-1.4,0C11.1,3.6,10.7,3.6,10.2,3.6z M11.6,27.7
	c-1.4,0.1-2.6-0.9-2.8-2.3h5.6C14.2,26.7,13,27.8,11.6,27.7z M3.1,23l2.5-4.1L6,18.4v-6.4c0-1.4,0.4-2.8,1.1-4c1-1.4,2.7-2.2,4.5-2
	c1.8-0.2,3.5,0.6,4.5,2c0.7,1.2,1.1,2.6,1.1,4v6.4l0.3,0.6L20,23H3.1z"/>
</svg>
