<?xml version="1.0" encoding="utf-8"?>
<!-- Generator: Adobe Illustrator 22.1.0, SVG Export Plug-In . SVG Version: 6.00 Build 0)  -->
<svg width="72" height="53" version="1.1" id="payment" xmlns="http://www.w3.org/2000/svg" xmlns:xlink="http://www.w3.org/1999/xlink" x="0px" y="0px"
	 viewBox="0 0 72 53" style="enable-background:new 0 0 72 53;" xml:space="preserve">
<style type="text/css">
	.st0{fill-rule:evenodd;clip-rule:evenodd;fill:#1C7EB9;}
</style>
<path class="st0" d="M66.4,53H5c-2.8,0-5-2.3-5-5.1V5.2c0-2.8,2.3-5.1,5-5.1h61.4c2.8,0,5,2.3,5,5.1v42.7C71.4,50.7,69.1,53,66.4,53
	z M69,5.2c0-1.5-1.2-2.7-2.6-2.7H5c-1.5,0-2.6,1.2-2.6,2.7v42.7c0,1.5,1.2,2.7,2.6,2.7h61.4c1.5,0,2.6-1.2,2.6-2.7V5.2z M52.4,35
	h13.1v9.6H52.4V35z M54.7,42.2h8.3v-4.8h-8.3V42.2z M50,44.6H36.9V35H50V44.6z M47.6,37.4h-8.3v4.8h8.3V37.4z M21.4,35h13.1v9.6
	H21.4V35z M23.8,42.2h8.3v-4.8h-8.3V42.2z M33.3,18.2c-0.3,0-0.6-0.1-0.8-0.3c-0.2-0.2-0.3-0.5-0.3-0.9c0-0.3,0.1-0.6,0.3-0.9
	c0.4-0.4,1.2-0.4,1.7,0c0.2,0.2,0.3,0.5,0.3,0.9c0,0.3-0.1,0.6-0.3,0.9C33.9,18,33.6,18.2,33.3,18.2z M28.6,15.8
	c0.7,0,1.2,0.5,1.2,1.2c0,0.7-0.5,1.2-1.2,1.2h-2.4c-0.7,0-1.2-0.5-1.2-1.2c0-0.7,0.5-1.2,1.2-1.2H28.6z M33.3,12.2H22.6
	c-0.7,0-1.2-0.5-1.2-1.2c0-0.7,0.5-1.2,1.2-1.2h10.7c0.7,0,1.2,0.5,1.2,1.2C34.5,11.6,34,12.2,33.3,12.2z M22.6,17
	c0,0.7-0.5,1.2-1.2,1.2h-1.2c-0.7,0-1.2-0.5-1.2-1.2c0-0.7,0.5-1.2,1.2-1.2h1.2C22.1,15.8,22.6,16.3,22.6,17z M17.8,12.2H7.1
	c-0.7,0-1.2-0.5-1.2-1.2c0-0.7,0.5-1.2,1.2-1.2h10.7c0.7,0,1.2,0.5,1.2,1.2C19,11.6,18.5,12.2,17.8,12.2z M7.1,15.8h1.2
	c0.7,0,1.2,0.5,1.2,1.2c0,0.7-0.5,1.2-1.2,1.2H7.1c-0.7,0-1.2-0.5-1.2-1.2C5.9,16.3,6.5,15.8,7.1,15.8z M13.1,18.2
	c-0.7,0-1.2-0.5-1.2-1.2c0-0.7,0.5-1.2,1.2-1.2h2.4c0.7,0,1.2,0.5,1.2,1.2c0,0.7-0.5,1.2-1.2,1.2H13.1z M19,44.6H5.9V35H19V44.6z
	 M16.7,37.4H8.3v4.8h8.3V37.4z"/>
</svg>
