<svg id="performance" width="42" height="42" xmlns="http://www.w3.org/2000/svg" viewBox="0 0 42 42"><defs><style>.cls-1{fill:#2075bb;fill-rule:evenodd;}</style></defs><title>performance</title><path class="cls-1" d="M31.22,24.32a22.14,22.14,0,0,1-6.43,15.17,1,1,0,0,1-.68.28.69.69,0,0,1-.25,0,.84.84,0,0,1-.62-.67l-1-6.75-.93.83a.88.88,0,0,1-.58.22.86.86,0,0,1-.62-.25L8.89,21.86a.87.87,0,0,1,0-1.2l.83-.93L3,18.76a.87.87,0,0,1-.49-1.49,22.25,22.25,0,0,1,15.21-6.5C23.59,4.13,33-.14,41.14,0A.87.87,0,0,1,42,.86C42.18,9,37.87,18.39,31.22,24.32ZM24.71,37a20.51,20.51,0,0,0,4.66-11l-5.53,4.94ZM5,17.29l6.07.87L16,12.63A20.44,20.44,0,0,0,5,17.29Zm13.77-5.13-.11.12-.08.09-6.41,7.18a.74.74,0,0,1-.2.23l-1.28,1.43L20.79,31.29,22.22,30a.83.83,0,0,1,.22-.2l7.18-6.4.11-.11a.27.27,0,0,0,.08-.07C36,17.83,40.12,9.34,40.25,1.75,32.67,1.88,24.18,6,18.79,12.16Zm8.1,2.95A4.38,4.38,0,1,1,30,16.39,4.38,4.38,0,0,1,26.89,15.11Zm4.95-4.95a2.62,2.62,0,1,0,0,3.71A2.62,2.62,0,0,0,31.84,10.16ZM12.42,29.58a5.41,5.41,0,0,1,0,7.65C10.54,39.11,2.08,41.68,1.13,42a.77.77,0,0,1-.25,0,.85.85,0,0,1-.62-.26A.85.85,0,0,1,0,40.87c.28-.95,2.85-9.41,4.73-11.29A5.42,5.42,0,0,1,12.42,29.58ZM11.18,36A3.66,3.66,0,0,0,6,30.82c-1,1-2.69,5.53-3.79,9C5.65,38.69,10.17,37,11.18,36Z" transform="translate(0 0)"/></svg>