<svg id="plus" width="68" height="68" xmlns="http://www.w3.org/2000/svg" viewBox="0 0 66.52 67.04"><defs><style>.cls-1{fill:#059886;fill-rule:evenodd;}</style></defs><title>plus</title><path class="cls-1" d="M30.84,48.9H36.7V37.45H48.07V31.53H36.7V20.08H30.84V31.53H19.47v5.92H30.84ZM33.77,68a32.07,32.07,0,0,1-13-2.64A33.5,33.5,0,0,1,3.13,47.57,32.72,32.72,0,0,1,.51,34.49,32.67,32.67,0,0,1,3.13,21.42,33.59,33.59,0,0,1,20.79,3.61,32.12,32.12,0,0,1,33.77,1a32.07,32.07,0,0,1,13,2.64A33.56,33.56,0,0,1,64.41,21.42,32.67,32.67,0,0,1,67,34.49a32.75,32.75,0,0,1-2.62,13.08,33.5,33.5,0,0,1-17.67,17.8A32,32,0,0,1,33.77,68Zm0-5.91a26.33,26.33,0,0,0,19.42-8,26.76,26.76,0,0,0,8-19.57,26.76,26.76,0,0,0-8-19.57,26.36,26.36,0,0,0-19.42-8,26.36,26.36,0,0,0-19.42,8,26.76,26.76,0,0,0-8,19.57,26.76,26.76,0,0,0,8,19.57A26.33,26.33,0,0,0,33.77,62.1Z" transform="translate(-0.51 -0.97)"/></svg>