<svg id="profile_settings" width="67" height="58" xmlns="http://www.w3.org/2000/svg" viewBox="0 0 67 58"><defs><style>.cls-1{fill:#3856a3;fill-rule:evenodd;}</style></defs><title>profile_settings</title><path class="cls-1" d="M62.87,54.54H52.38a1,1,0,0,1,0-2H62.87A2.17,2.17,0,0,0,65,50.4V12.48H2V50.4a2.17,2.17,0,0,0,2.17,2.17H14.62a1,1,0,0,1,0,2H4.13A4.14,4.14,0,0,1,0,50.4V4.14A4.14,4.14,0,0,1,4.13,0H62.87A4.14,4.14,0,0,1,67,4.14V50.4A4.14,4.14,0,0,1,62.87,54.54ZM65,4.14A2.17,2.17,0,0,0,62.87,2H4.13A2.17,2.17,0,0,0,2,4.14v6.37H65ZM5.18,5.26h0a1,1,0,1,1-1,1A1,1,0,0,1,5.19,5.26Zm3.13,0h0a1,1,0,1,1-1,1A1,1,0,0,1,8.31,5.26Zm3.15,0h0a1,1,0,1,1-1,1A1,1,0,0,1,11.47,5.26Zm4.21,0H61.82a1,1,0,0,1,0,2H15.67a1,1,0,0,1,0-2Z"/><path class="cls-1" d="M34.5,46.44a6,6,0,1,0-6-6A6,6,0,0,0,34.5,46.44Zm0-8.78a2.83,2.83,0,1,1-2.85,2.82A2.84,2.84,0,0,1,34.5,37.66ZM19.2,49.25c1.52,2.61,3.36,3.74,4.83,3l2.31-1a13.84,13.84,0,0,0,2.87,1.64l.26,2.5c.08,1.63,2,2.64,5,2.64s5-1,5-2.64l.26-2.5a13.84,13.84,0,0,0,2.87-1.64l2.32,1c1.46.74,3.3-.4,4.82-3a9.13,9.13,0,0,0,1.1-2.75c.34-1.76-.37-2.55-.89-2.89L48,42.15a13.21,13.21,0,0,0,.1-1.66,12.78,12.78,0,0,0-.1-1.64L50,37.38c.52-.33,1.23-1.13.89-2.88a9.13,9.13,0,0,0-1.1-2.75c-1.52-2.6-3.36-3.74-4.82-3l-2.3,1a13.21,13.21,0,0,0-2.9-1.66l-.25-2.47c-.08-1.63-2-2.64-5-2.64s-4.94,1-5,2.64l-.26,2.47a13.38,13.38,0,0,0-2.89,1.66l-2.29-1c-1.47-.75-3.31.38-4.83,3s-1.6,4.74-.21,5.63l2,1.47a14.89,14.89,0,0,0-.1,1.64A13.22,13.22,0,0,0,21,42.15L19,43.61C17.6,44.5,17.68,46.65,19.2,49.25Zm5.1-6.71a10.06,10.06,0,0,1,0-4.09,1.56,1.56,0,0,0-.63-1.57L21.2,35.1a6,6,0,0,1,.74-1.79,6.21,6.21,0,0,1,1.19-1.52L25.92,33a1.59,1.59,0,0,0,1.69-.26,10.31,10.31,0,0,1,3.58-2,1.58,1.58,0,0,0,1.07-1.32l.31-3a6.34,6.34,0,0,1,1.93-.26,6.42,6.42,0,0,1,1.94.26l.31,3a1.55,1.55,0,0,0,1.07,1.32,10.4,10.4,0,0,1,3.58,2,1.58,1.58,0,0,0,1.69.26l2.79-1.23a7.13,7.13,0,0,1,1.93,3.31l-2.48,1.78a1.55,1.55,0,0,0-.62,1.57,10.66,10.66,0,0,1,.2,2,10.82,10.82,0,0,1-.2,2.06,1.55,1.55,0,0,0,.62,1.58l2.48,1.77a5.92,5.92,0,0,1-.74,1.79,6.12,6.12,0,0,1-1.19,1.53L43.07,48a1.6,1.6,0,0,0-1.69.25,10.29,10.29,0,0,1-3.56,2,1.58,1.58,0,0,0-1.07,1.32l-.31,3a6.42,6.42,0,0,1-1.94.26,6.34,6.34,0,0,1-1.93-.26l-.32-3a1.55,1.55,0,0,0-1.07-1.32,10.25,10.25,0,0,1-3.55-2A1.61,1.61,0,0,0,25.94,48l-2.81,1.24a6.12,6.12,0,0,1-1.19-1.53,5.92,5.92,0,0,1-.74-1.79l2.48-1.77A1.57,1.57,0,0,0,24.3,42.54Z"/></svg>