<svg id="professional" width="66" height="66" xmlns="http://www.w3.org/2000/svg" viewBox="0 0 66 66"><defs><style>.cls-1{fill:#1c7eb9;fill-rule:evenodd;}</style></defs><title>professional</title><path class="cls-1" d="M63.87,40.44H57.48V37.25a3.19,3.19,0,0,0-3.19-3.2H43.65a3.19,3.19,0,0,0-2.33,1L29.81,33.15V30.48a10.66,10.66,0,0,0,5.32-9.21h1.06a3.2,3.2,0,1,0,0-6.39h-.51l.59-1.35a8.63,8.63,0,0,0-.53-7.83,8.51,8.51,0,0,0-3.81-3.41L29,.94A10.91,10.91,0,0,0,18.07,2.12L16.39,3.38h0a6.68,6.68,0,0,0-4,3,6.61,6.61,0,0,0-.25,6.38l1.06,2.11h-.41a3.2,3.2,0,0,0,0,6.39h1.07a10.64,10.64,0,0,0,5.32,9.21v2.67L6.23,35.31A7.43,7.43,0,0,0,0,42.66V64.93A1.07,1.07,0,0,0,1.06,66H63.87A2.13,2.13,0,0,0,66,63.87V42.57A2.13,2.13,0,0,0,63.87,40.44Zm-8.52-3.19v3.19H48.61a7.45,7.45,0,0,0-3.44-4.26h9.12A1.06,1.06,0,0,1,55.35,37.25Zm-12.77.2a5.33,5.33,0,0,1,3.76,3H42.58ZM37.26,18.08a1.07,1.07,0,0,1-1.07,1.06H35.13V17h1.06A1.07,1.07,0,0,1,37.26,18.08ZM14.19,7.48A4.54,4.54,0,0,1,18.05,5.3,5,5,0,0,1,22.2,7.52l.33.5,1.78-1.18L24,6.34a7.11,7.11,0,0,0-4-2.91,8.75,8.75,0,0,1,8.12-.55l3,1.35a6.46,6.46,0,0,1,3.26,8.45l-.07.17-1.35-2.7a1.07,1.07,0,0,0-1.59-.38l-1.71,1.28a8.53,8.53,0,0,1-10.22,0l-1.7-1.28a1.07,1.07,0,0,0-1.59.38L14.64,13,14,11.82a4.52,4.52,0,0,1,.16-4.34ZM12.77,19.14a1.07,1.07,0,0,1,0-2.13h1.07v2.13ZM16,21.27V15.13l1.44-2.89.69.51a10.64,10.64,0,0,0,12.77,0l.68-.51L33,15.13v6.14a8.52,8.52,0,1,1-17,0Zm8.51,10.65a10.55,10.55,0,0,0,3.2-.49v2.18l-3.2,3.2-3.19-3.2V31.43a10.54,10.54,0,0,0,3.19.49Zm-.34,11.72h.69L26.56,48l-2.08,9L22.4,48Zm2.36-4.42L25,41.51H24l-1.53-2.29.36-1.07.91.91a1.05,1.05,0,0,0,1.51,0l.91-.91ZM12.77,63.87V45.77H10.65v18.1H2.13V42.66a5.31,5.31,0,0,1,4.45-5.25l13.28-2.22,1.28,1.28L20.28,39a1.09,1.09,0,0,0,.12.93l1.82,2.73L20.3,47.5a1.07,1.07,0,0,0-.05.64L23.45,62a1.06,1.06,0,0,0,2.07,0l3.2-13.84a1.16,1.16,0,0,0,0-.64l-1.93-4.8L28.56,40a1.06,1.06,0,0,0,.13-.93l-.86-2.57,1.28-1.28,11.36,1.9s0,.1,0,.16v3.19H34.06a2.13,2.13,0,0,0-2.12,2.13v21.3Zm22.36,0H34.06V61.74H63.87v2.13Zm28.74-4.26H34.06V51a7.42,7.42,0,0,0,5.33,2.25h6.38v1.07a3.2,3.2,0,0,0,6.39,0V53.22h6.39A7.4,7.4,0,0,0,63.87,51Zm-16-5.32V49H50v5.33a1.07,1.07,0,0,1-2.13,0Zm16-8.52a5.33,5.33,0,0,1-5.32,5.32H52.16V47.9a1.07,1.07,0,0,0-1.06-1.07H46.84a1.07,1.07,0,0,0-1.07,1.07v3.19H39.39a5.33,5.33,0,0,1-5.33-5.32v-3.2H63.87Z" transform="translate(0 0)"/></svg>