<svg id="purchases" width="72" height="53" xmlns="http://www.w3.org/2000/svg" viewBox="0 0 71.39 52.83"><defs><style>.cls-1{fill:#1c7eb9;fill-rule:evenodd;}</style></defs><title>purchases]</title><path class="cls-1" d="M66.37,53H5a5,5,0,0,1-5-5.06V5.24A5,5,0,0,1,5,.17H66.37a5,5,0,0,1,5,5.07v42.7A5,5,0,0,1,66.37,53ZM69,5.24a2.66,2.66,0,0,0-2.64-2.67H5A2.66,2.66,0,0,0,2.38,5.24v42.7A2.65,2.65,0,0,0,5,50.6H66.37A2.65,2.65,0,0,0,69,47.94ZM52.35,35H65.44V44.6H52.35Zm2.38,7.2h8.33v-4.8H54.73ZM50,44.6H36.88V35H50Zm-2.38-7.21H39.26v4.8h8.33ZM21.42,35H34.5V44.6H21.42Zm2.38,7.2h8.32v-4.8H23.8Zm9.51-24A1.2,1.2,0,0,1,32.12,17a1.25,1.25,0,0,1,.35-.85,1.23,1.23,0,0,1,1.69,0,1.29,1.29,0,0,1,.34.85,1.27,1.27,0,0,1-.34.85A1.21,1.21,0,0,1,33.31,18.18Zm-4.75-2.4a1.2,1.2,0,0,1,0,2.4H26.18a1.2,1.2,0,0,1,0-2.4Zm4.75-3.6H22.61a1.2,1.2,0,0,1,0-2.4h10.7a1.2,1.2,0,0,1,0,2.4ZM22.61,17a1.2,1.2,0,0,1-1.19,1.2H20.23a1.2,1.2,0,0,1,0-2.4h1.19A1.2,1.2,0,0,1,22.61,17Zm-4.76-4.8H7.14a1.2,1.2,0,0,1,0-2.4H17.85a1.2,1.2,0,0,1,0,2.4ZM7.14,15.78H8.33a1.2,1.2,0,0,1,0,2.4H7.14a1.2,1.2,0,0,1,0-2.4Zm6,2.4a1.2,1.2,0,0,1,0-2.4h2.38a1.2,1.2,0,0,1,0,2.4ZM19,44.6H6V35H19Zm-2.38-7.21H8.33v4.8h8.33Z" transform="translate(0 -0.17)"/><path class="cls-1" d="M59.64,27H45.36A1.36,1.36,0,0,1,44,25.64V20.79a1.37,1.37,0,0,1,2.73,0v3.48H58.27V20.79a1.37,1.37,0,0,1,2.73,0v4.85A1.36,1.36,0,0,1,59.64,27ZM56.35,16.57a1.35,1.35,0,0,1-1-.39l-1.53-1.53v5.08a1.36,1.36,0,1,1-2.72,0V14.65l-1.53,1.53a1.36,1.36,0,0,1-1.92-1.93l3.85-3.85a1.36,1.36,0,0,1,1.92,0l3.85,3.85a1.36,1.36,0,0,1-1,2.32Z" transform="translate(0 -0.17)"/></svg>