<svg id="recent_messages" width="50" height="43" xmlns="http://www.w3.org/2000/svg" viewBox="0 0 50 43"><defs><style>.cls-1{fill-rule:evenodd;}</style></defs><title>recent_messages</title><path class="cls-1" d="M47.06,38.87H45V41.5A1.53,1.53,0,0,1,44,42.89a1.62,1.62,0,0,1-.58.11,1.49,1.49,0,0,1-1-.44L38.7,38.87H28.3a2.94,2.94,0,0,1-2.94-2.93V28.2H17.68l-6.1,6.11a2,2,0,0,1-1.39.59,2,2,0,0,1-.77-.16,2,2,0,0,1-1.23-1.83V28.2H4.31A4.31,4.31,0,0,1,0,23.89V4.31A4.31,4.31,0,0,1,4.31,0H34.74a4.31,4.31,0,0,1,4.31,4.31V20.93h8A2.93,2.93,0,0,1,50,23.86V35.94A2.93,2.93,0,0,1,47.06,38.87ZM37.6,4.31a2.86,2.86,0,0,0-2.86-2.85H4.31A2.85,2.85,0,0,0,1.46,4.31V23.89a2.85,2.85,0,0,0,2.85,2.85H8.92a.73.73,0,0,1,.73.73v5.44a.51.51,0,0,0,.15.37.54.54,0,0,0,.75,0L16.87,27a.7.7,0,0,1,.51-.22h8V23.86a2.94,2.94,0,0,1,2.94-2.93h9.3ZM48.54,23.86a1.48,1.48,0,0,0-1.48-1.48H28.3a1.48,1.48,0,0,0-1.48,1.48V35.94a1.48,1.48,0,0,0,1.48,1.48H39a.72.72,0,0,1,.52.21l3.89,3.9.08-3.38a.73.73,0,0,1,.73-.73h2.84a1.48,1.48,0,0,0,1.48-1.48Zm-4.17,9.4H31a.73.73,0,0,1,0-1.46H44.37a.73.73,0,1,1,0,1.46Zm0-5.26H31a.73.73,0,0,1,0-1.46H44.37a.73.73,0,1,1,0,1.46Z"/></svg>