<?xml version="1.0" encoding="utf-8"?>
<!-- Generator: Adobe Illustrator 22.1.0, SVG Export Plug-In . SVG Version: 6.00 Build 0)  -->
<svg width="62" height="44" version="1.1" id="transactions" xmlns="http://www.w3.org/2000/svg" xmlns:xlink="http://www.w3.org/1999/xlink" x="0px"
	 y="0px" viewBox="0 0 70 52" style="enable-background:new 0 0 70 52;" xml:space="preserve">
<style type="text/css">
	.st0{fill-rule:evenodd;clip-rule:evenodd;fill:#3C81C0;}
	.st1{fill:#3C81C0;}
</style>
<path class="st0" d="M68.2,3.9h-4.1l-4.4,6.6c0.1,0.2,0.2,0.4,0.2,0.6v3.6c0,0.7-0.5,1.2-1.2,1.2c-0.7,0-1.2-0.5-1.2-1.2v-0.8
	l-5,7.5c-0.3,0.5-0.9,0.7-1.4,0.5l-0.8-0.3V22c0,0.7-0.5,1.2-1.2,1.2s-1.2-0.5-1.2-1.2v-1.3l-1.8-0.7l-5.5,12.2
	c-0.1,0.1-0.1,0.1-0.1,0.1c0.1,0.2,0.2,0.4,0.2,0.6v3.6c0,0.7-0.5,1.2-1.2,1.2c-0.7,0-1.2-0.5-1.2-1.2v-3.6c0-0.2,0-0.3,0.1-0.5
	l-2.3-1.5l-4.1,5.1c-0.2,0.3-0.6,0.5-0.9,0.5c0,0.7-0.5,1.2-1.2,1.2c-0.7,0-1.2-0.5-1.2-1.2v-3.2l-7.2-13.6V22
	c0,0.7-0.5,1.2-1.2,1.2c-0.7,0-1.2-0.5-1.2-1.2v-3.6c0-0.6,0.5-1.2,1.1-1.2l-0.2-0.4L12.9,24c-0.2,0.2-0.6,0.4-0.9,0.3
	c-0.4,0-0.7-0.1-1-0.4l-0.7-0.9c-0.4-0.2-0.6-0.5-0.7-0.9l-3.7-4.5l-3.9,3.9c-0.5,0.5-1.2,0.5-1.7,0c-0.5-0.5-0.5-1.2,0-1.7l4.8-4.8
	c0.2-0.2,0.6-0.4,0.9-0.3c0.3,0,0.6,0.2,0.9,0.4l5.1,6.2l7.4-7.5c0.3-0.3,0.7-0.4,1-0.3c0.4,0.1,0.7,0.3,0.9,0.6l10,18.8l3.6-4.6
	c0.4-0.5,1.1-0.6,1.6-0.3l2.4,1.6l5.4-11.9c0.3-0.6,0.9-0.9,1.5-0.6l5.1,2L62.5,2.1c0.2-0.3,0.6-0.5,1-0.5h4.8
	c0.7,0,1.2,0.5,1.2,1.2C69.4,3.4,68.9,3.9,68.2,3.9z M12,43.6c0,0.7-0.5,1.2-1.2,1.2c-0.7,0-1.2-0.5-1.2-1.2V40
	c0-0.7,0.5-1.2,1.2-1.2c0.7,0,1.2,0.5,1.2,1.2V43.6z M10.8,30.4c-0.7,0-1.2-0.5-1.2-1.2v-3.6c0-0.7,0.5-1.2,1.2-1.2
	c0.7,0,1.2,0.5,1.2,1.2v3.6C12,29.8,11.4,30.4,10.8,30.4z M12,36.4c0,0.7-0.5,1.2-1.2,1.2c-0.7,0-1.2-0.5-1.2-1.2v-3.6
	c0-0.7,0.5-1.2,1.2-1.2c0.7,0,1.2,0.5,1.2,1.2V36.4z M21.6,43.6c0,0.7-0.5,1.2-1.2,1.2c-0.7,0-1.2-0.5-1.2-1.2V40
	c0-0.7,0.5-1.2,1.2-1.2c0.7,0,1.2,0.5,1.2,1.2V43.6z M20.4,30.4c-0.7,0-1.2-0.5-1.2-1.2v-3.6c0-0.7,0.5-1.2,1.2-1.2
	c0.7,0,1.2,0.5,1.2,1.2v3.6C21.6,29.8,21,30.4,20.4,30.4z M21.6,36.4c0,0.7-0.5,1.2-1.2,1.2c-0.7,0-1.2-0.5-1.2-1.2v-3.6
	c0-0.7,0.5-1.2,1.2-1.2c0.7,0,1.2,0.5,1.2,1.2V36.4z M29.9,44.8c-0.7,0-1.2-0.5-1.2-1.2V40c0-0.7,0.5-1.2,1.2-1.2
	c0.7,0,1.2,0.5,1.2,1.2v3.6C31.1,44.3,30.6,44.8,29.9,44.8z M39.5,44.8c-0.7,0-1.2-0.5-1.2-1.2V40c0-0.7,0.5-1.2,1.2-1.2
	c0.7,0,1.2,0.5,1.2,1.2v3.6C40.7,44.3,40.2,44.8,39.5,44.8z M50.3,43.6c0,0.7-0.5,1.2-1.2,1.2s-1.2-0.5-1.2-1.2V40
	c0-0.7,0.5-1.2,1.2-1.2s1.2,0.5,1.2,1.2V43.6z M49.1,30.4c-0.7,0-1.2-0.5-1.2-1.2v-3.6c0-0.7,0.5-1.2,1.2-1.2s1.2,0.5,1.2,1.2v3.6
	C50.3,29.8,49.7,30.4,49.1,30.4z M50.3,36.4c0,0.7-0.5,1.2-1.2,1.2s-1.2-0.5-1.2-1.2v-3.6c0-0.7,0.5-1.2,1.2-1.2s1.2,0.5,1.2,1.2
	V36.4z M59.9,43.6c0,0.7-0.5,1.2-1.2,1.2c-0.7,0-1.2-0.5-1.2-1.2V40c0-0.7,0.5-1.2,1.2-1.2c0.7,0,1.2,0.5,1.2,1.2V43.6z M59.9,36.4
	c0,0.7-0.5,1.2-1.2,1.2c-0.7,0-1.2-0.5-1.2-1.2v-3.6c0-0.7,0.5-1.2,1.2-1.2c0.7,0,1.2,0.5,1.2,1.2V36.4z M58.7,23.2
	c-0.7,0-1.2-0.5-1.2-1.2v-3.6c0-0.7,0.5-1.2,1.2-1.2c0.7,0,1.2,0.5,1.2,1.2V22C59.9,22.6,59.3,23.2,58.7,23.2z M59.9,29.2
	c0,0.7-0.5,1.2-1.2,1.2c-0.7,0-1.2-0.5-1.2-1.2v-3.6c0-0.7,0.5-1.2,1.2-1.2c0.7,0,1.2,0.5,1.2,1.2V29.2z M1.2,49.6h8.4v-2.4
	c0-0.7,0.5-1.2,1.2-1.2c0.7,0,1.2,0.5,1.2,1.2v2.4h7.2v-2.4c0-0.7,0.5-1.2,1.2-1.2c0.7,0,1.2,0.5,1.2,1.2v2.4h7.2v-2.4
	c0-0.7,0.5-1.2,1.2-1.2c0.7,0,1.2,0.5,1.2,1.2v2.4h7.2v-2.4c0-0.7,0.5-1.2,1.2-1.2c0.7,0,1.2,0.5,1.2,1.2v2.4h7.2v-2.4
	c0-0.7,0.5-1.2,1.2-1.2s1.2,0.5,1.2,1.2v2.4h7.2v-2.4c0-0.7,0.5-1.2,1.2-1.2c0.7,0,1.2,0.5,1.2,1.2v2.4h8.4c0.7,0,1.2,0.5,1.2,1.2
	c0,0.7-0.5,1.2-1.2,1.2h-67C0.5,52,0,51.5,0,50.8C0,50.1,0.5,49.6,1.2,49.6z"/>
<path class="st1" d="M25.2,9c0,3,2.5,4.3,5.2,4.3c3.3,0,5-1.7,5-3.9c0-2.8-2.7-3.3-3.6-3.5c-3-0.8-3.6-0.9-3.6-1.8
	c0-1,1-1.4,1.8-1.4c1.3,0,2.3,0.4,2.4,1.8H35c0-2.8-2.3-3.9-4.9-3.9c-2.2,0-4.5,1.2-4.5,3.7c0,2.3,1.8,3,3.6,3.5
	c1.8,0.5,3.6,0.7,3.6,2c0,1.2-1.4,1.5-2.4,1.5c-1.4,0-2.7-0.6-2.7-2.2H25.2z"/>
<path class="st1" d="M37.7,13h2.7V8h5.1V5.9h-5.1V3.1h5.9V0.9h-8.5V13z"/>
</svg>
