<?xml version="1.0" encoding="utf-8"?>
<!-- Generator: Adobe Illustrator 22.1.0, SVG Export Plug-In . SVG Version: 6.00 Build 0)  -->
<svg width="28" height="27" version="1.1" id="red_x5F_arrow" xmlns="http://www.w3.org/2000/svg" xmlns:xlink="http://www.w3.org/1999/xlink" x="0px"
	 y="0px" viewBox="0 0 28 27" style="enable-background:new 0 0 28 27;" xml:space="preserve">
<style type="text/css">
	.st0{fill-rule:evenodd;clip-rule:evenodd;fill:#DE0A14;}
</style>
<path class="st0" d="M0.8,11C2,9.9,3.8,9.9,4.9,11l6.2,6.2V2.9C11.1,1.3,12.4,0,14,0c1.6,0,2.9,1.3,2.9,2.9v14.4l6.3-6.3
	c1.1-1.1,2.9-1.1,4.1,0c1.1,1.1,1.1,2.9,0,4.1L16.6,25.7c-0.2,0.2-0.4,0.3-0.6,0.5c-0.5,0.5-1.2,0.8-2,0.8c-0.8,0-1.6-0.4-2.1-0.9
	c-0.2-0.1-0.3-0.2-0.4-0.4L0.8,15.1C-0.3,14-0.3,12.2,0.8,11z"/>
</svg>
