<?xml version="1.0" encoding="utf-8"?>
<!-- Generator: Adobe Illustrator 22.1.0, SVG Export Plug-In . SVG Version: 6.00 Build 0)  -->
<svg width="62" height="44" version="1.1" id="reports" xmlns="http://www.w3.org/2000/svg" xmlns:xlink="http://www.w3.org/1999/xlink" x="0px" y="0px"
	 viewBox="0 0 71 53" style="enable-background:new 0 0 71 53;" xml:space="preserve">
<style type="text/css">
	.st0{fill-rule:evenodd;clip-rule:evenodd;fill:#3855A2;}
</style>
<path class="st0" d="M69,9.8h-7.7v42.5l-9.9-4.4l-8.8,4.4L35,47.9l-7.7,4.4l-8.8-4.4l-9.9,4.4V9.8H1.1C0.5,9.8,0,9.3,0,8.7V1.1
	C0,0.5,0.5,0,1.1,0h7.7h52.5H69c0.6,0,1.1,0.5,1.1,1.1v7.6C70.1,9.3,69.6,9.8,69,9.8z M8.8,2.2H2.2v5.4h6.6V2.2z M59.1,2.2H10.9
	v46.7l6.8-3l0.9-0.4l0.9,0.5l7.7,3.8l6.6-3.8l1.1-0.6l1.1,0.6l6.6,3.8l7.7-3.8l0.9-0.5l0.9,0.4l6.8,3V2.2z M67.9,2.2h-6.6v5.4h6.6
	V2.2z M20.8,27.2h28.5v2.2H20.8V27.2z M20.8,20.7h28.5v2.2H20.8V20.7z M20.8,14.2h28.5v2.2H20.8V14.2z M36.1,35.9H20.8v-2.2h15.3
	V35.9z"/>
</svg>
