<?xml version="1.0" encoding="utf-8"?>
<!-- Generator: Adobe Illustrator 22.1.0, SVG Export Plug-In . SVG Version: 6.00 Build 0)  -->
<svg width="22" height="28" version="1.1" id="reports" xmlns="http://www.w3.org/2000/svg" xmlns:xlink="http://www.w3.org/1999/xlink" x="0px" y="0px"
	 viewBox="0 0 25 31" style="enable-background:new 0 0 25 31;" xml:space="preserve">
<style type="text/css">
	.st0{fill:#FFFFFF;}
</style>
<path class="st0" d="M16.4,0.2H0v30.4h24.2V8.1L16.4,0.2z M20.2,7.4h-3.1V4.3L20.2,7.4z M2.4,28.3V2.6h12.3v6c0,0.7,0.5,1.2,1.2,1.2
	h6v18.5H2.4z"/>
<path class="st0" d="M5.3,23.8h13.6v1.6H5.3V23.8z"/>
<path class="st0" d="M5.3,9h8.1v1.6H5.3V9z"/>
<path class="st0" d="M16.1,14H17l-3.4,3.4l-2.7-2.6l-5.9,5.9l1.1,1.1l4.7-4.7l2.7,2.6l4.5-4.5V16h1.6v-3.6h-3.6V14z"/>
<path class="st0" d="M5.3,5.5h8.1v1.6H5.3V5.5z"/>
</svg>
