<?xml version="1.0" encoding="UTF-8"?>
<!DOCTYPE svg PUBLIC "-//W3C//DTD SVG 1.1//EN" "http://www.w3.org/Graphics/SVG/1.1/DTD/svg11.dtd">
<svg xmlns="http://www.w3.org/2000/svg" version="1.1" width="21px" height="21px" style="shape-rendering:geometricPrecision; text-rendering:geometricPrecision; image-rendering:optimizeQuality; fill-rule:evenodd; clip-rule:evenodd" xmlns:xlink="http://www.w3.org/1999/xlink">
<g><path style="opacity:0.805" fill="#04b3ae" d="M 0.5,0.5 C 6.17645,0.333909 11.8431,0.500575 17.5,1C 18,1.5 18.5,2 19,2.5C 19.4994,8.15688 19.6661,13.8236 19.5,19.5C 13.1667,19.5 6.83333,19.5 0.5,19.5C 0.5,13.1667 0.5,6.83333 0.5,0.5 Z M 3.5,2.5 C 4.94316,3.33507 5.94316,4.6684 6.5,6.5C 10.7268,8.50082 13.8935,7.50082 16,3.5C 16.3333,3.83333 16.6667,4.16667 17,4.5C 17.6667,8.83333 17.6667,13.1667 17,17.5C 16.6667,15.1667 16.3333,12.8333 16,10.5C 14.2622,9.87289 12.4289,9.53956 10.5,9.5C 4.79812,9.03731 2.29812,11.704 3,17.5C 2.22225,12.4158 2.38892,7.41575 3.5,2.5 Z M 8.5,2.5 C 9.97782,2.23798 11.3112,2.57131 12.5,3.5C 11.8333,3.83333 11.1667,4.16667 10.5,4.5C 9.28665,4.25284 8.61998,3.58617 8.5,2.5 Z M 6.5,12.5 C 9.16667,12.5 11.8333,12.5 14.5,12.5C 14.5,14.1667 14.5,15.8333 14.5,17.5C 11.8333,17.5 9.16667,17.5 6.5,17.5C 6.5,15.8333 6.5,14.1667 6.5,12.5 Z"/></g>
</svg>
