<?xml version="1.0" encoding="utf-8"?>
<!-- Generator: Adobe Illustrator 22.1.0, SVG Export Plug-In . SVG Version: 6.00 Build 0)  -->
<svg width="47" height="55" version="1.1" id="security" xmlns="http://www.w3.org/2000/svg" xmlns:xlink="http://www.w3.org/1999/xlink" x="0px" y="0px"
	 viewBox="0 0 52 60" style="enable-background:new 0 0 52 60;" xml:space="preserve">
<style type="text/css">
	.st0{fill-rule:evenodd;clip-rule:evenodd;fill:#3855A2;}
</style>
<path class="st0" d="M45.9,8.9c-10.4,0-20.1-8.5-20.1-8.5S16.1,8.8,5.7,8.8C2.3,8.8,0,8.1,0,8.1v16.6c0,6.6,2,13.1,5.9,18.6
	c3.9,5.5,10.4,12.8,19.3,16.5l0.5,0.1l0.5-0.3c8.8-3.5,15.4-10.9,19.3-16.5c3.9-5.5,5.9-11.9,5.9-18.6V8.3
	C51.6,8.3,48.7,8.9,45.9,8.9z M46.1,11.4c1.1,0,2.2-0.1,3.2-0.3v13.4c0,1.5-0.1,3-0.3,4.4h-22V4.5C30.2,6.9,37.7,11.4,46.1,11.4z
	 M2.5,11.2c1,0.1,2,0.1,3.2,0.3c8.3,0,15.4-4.2,18.8-6.7v24.3H2.9c-0.2-1.5-0.3-2.9-0.3-4.4V11.2z M8.1,41.9
	c-2.3-3.2-3.9-6.7-4.8-10.4h21.2v25.2C17.1,53.1,11.5,46.8,8.1,41.9z M43.7,41.9c-3.5,5-9.2,11.5-16.8,15V31.5h21.6
	C47.6,35.2,46,38.7,43.7,41.9z"/>
</svg>
