<svg id="service_offering" width="22" height="28" xmlns="http://www.w3.org/2000/svg" viewBox="0 0 20.96 27.92"><defs><style>.cls-1{fill:#fff;fill-rule:evenodd;}</style></defs><title>service_offering</title><path class="cls-1" d="M11,28a2.84,2.84,0,0,1-2.85-2.65h5.7A2.72,2.72,0,0,1,13,27.23,2.78,2.78,0,0,1,11,28ZM5.42,23.33v-2.2H16.65v2.2Zm.23-4.23a10.83,10.83,0,0,1-3.73-3.73,9.74,9.74,0,0,1-1.37-5A9.79,9.79,0,0,1,3.6,3.06,10.24,10.24,0,0,1,11,.07a10.24,10.24,0,0,1,7.43,3,9.79,9.79,0,0,1,3.05,7.26,9.74,9.74,0,0,1-1.37,5,10.88,10.88,0,0,1-3.72,3.73Zm.66-2.19h9.44A8.24,8.24,0,0,0,18.35,14a7.77,7.77,0,0,0,.92-3.7,7.68,7.68,0,0,0-2.4-5.71A8,8,0,0,0,11,2.27,8.06,8.06,0,0,0,5.19,4.61,7.67,7.67,0,0,0,2.8,10.32,7.76,7.76,0,0,0,3.71,14,8.24,8.24,0,0,0,6.31,16.91Z" transform="translate(-0.55 -0.07)"/></svg>