<svg id="settings" width="25" height="27" xmlns="http://www.w3.org/2000/svg" viewBox="0 0 25 27"><defs><style>.cls-1{fill:#fff;fill-rule:evenodd;}</style></defs><title>settings</title><path class="cls-1" d="M15.25,24.11a3.83,3.83,0,0,1-7.42,0H0V22.18H7.83a3.83,3.83,0,0,1,7.42,0H25v1.93Zm4.94-6.75a3.85,3.85,0,0,1-3.71-2.9H0V12.54H16.48a3.82,3.82,0,0,1,7.42,0H25v1.92H23.9A3.85,3.85,0,0,1,20.19,17.36ZM4.81,7.71A3.84,3.84,0,0,1,1.1,4.82H0V2.89H1.1a3.83,3.83,0,0,1,7.42,0H25V4.82H8.52A3.84,3.84,0,0,1,4.81,7.71Z"/></svg>