<?xml version="1.0" encoding="utf-8"?>
<!-- Generator: Adobe Illustrator 22.1.0, SVG Export Plug-In . SVG Version: 6.00 Build 0)  -->
<svg width="62" height="73" version="1.1" id="sf_x5F_docs" xmlns="http://www.w3.org/2000/svg" xmlns:xlink="http://www.w3.org/1999/xlink" x="0px"
	 y="0px" viewBox="0 0 62 73" style="enable-background:new 0 0 62 73;" xml:space="preserve">
<style type="text/css">
	.st0{fill:#1982B8;}
	.st1{fill-rule:evenodd;clip-rule:evenodd;fill:#1982B8;}
</style>
<path class="st0" d="M24.8,17.6c-0.1-3.9-2.9-5.6-6.6-5.6c-3.2,0-6.5,1.6-6.5,5.2c0,3.3,2.9,4.1,5.7,4.7c2.8,0.6,5.7,1,5.7,3.5
	c0,2.6-2.4,3.2-4.5,3.2c-2.7,0-5.2-1.3-5.2-4.3h-2.2c0,4.3,3.4,6.3,7.4,6.3c3.2,0,7-1.5,7-5.3c0-3.5-2.8-4.5-5.7-5.1
	c-2.9-0.6-5.7-1-5.7-3.2c0-2.3,2-3,4-3c2.4,0,4.1,1.1,4.4,3.6H24.8z"/>
<path class="st0" d="M28.4,30.2h2.4v-8.2H39v-2h-8.2v-5.7h9.3v-2H28.4V30.2z"/>
<path class="st1" d="M56.2,50.5c1.6,1,2.9,2.3,3.9,3.9c1,1.6,1.6,3.4,1.8,5.2c0.2,1.9-0.1,3.7-0.7,5.5c-0.6,1.7-1.7,3.3-3,4.6
	c-1.4,1.3-3,2.2-4.8,2.8c-1.8,0.6-3.7,0.7-5.5,0.4c-1.8-0.3-3.6-1-5.1-2.1L41,72.6c-0.2,0.2-0.5,0.4-0.9,0.4c-0.3,0-0.6-0.1-0.9-0.4
	l-4-4l-4,4C31,72.9,30.7,73,30.4,73c-0.3,0-0.6-0.1-0.9-0.4l-4-4l-4,4C21.3,72.9,21,73,20.7,73c-0.3,0-0.6-0.1-0.9-0.4l-4-4l-4,4
	c-0.2,0.2-0.5,0.4-0.9,0.4c-0.3,0-0.6-0.1-0.9-0.4l-4-4l-4,4C1.8,72.9,1.5,73,1.2,73c-0.2,0-0.3,0-0.5-0.1c-0.2-0.1-0.4-0.2-0.5-0.4
	S0,72,0,71.8V6.1c0-1.6,0.6-3.2,1.8-4.3C2.9,0.6,4.5,0,6.1,0h48.6c1.6,0,3.2,0.6,4.3,1.8c1.1,1.1,1.8,2.7,1.8,4.3v19.5
	c0,0.3-0.1,0.6-0.4,0.9c-0.2,0.2-0.5,0.4-0.9,0.4H51v22C52.9,48.9,54.7,49.5,56.2,50.5z M6.1,2.4c-1,0-1.9,0.4-2.6,1.1
	C2.8,4.2,2.4,5.1,2.4,6.1v62.8l2.8-2.8c0.2-0.2,0.5-0.4,0.9-0.4c0.3,0,0.6,0.1,0.9,0.4l4,4l4-4c0.2-0.2,0.5-0.4,0.9-0.4
	c0.3,0,0.6,0.1,0.9,0.4l4,4l4-4c0.2-0.2,0.5-0.4,0.9-0.4c0.3,0,0.6,0.1,0.9,0.4l4,4l4-4c0.2-0.2,0.5-0.4,0.9-0.4
	c0.3,0,0.6,0.1,0.9,0.4l4,4l0.9-0.9c-1.6-1.6-2.6-3.7-3.1-5.9c-0.5-2.2-0.3-4.5,0.5-6.7c0.8-2.1,2.2-4,4-5.4
	c1.8-1.4,3.9-2.2,6.2-2.5V6.1c0-1.3,0.4-2.6,1.3-3.7H6.1z M58.3,24.3V6.1c0-1-0.4-1.9-1.1-2.6c-0.7-0.7-1.6-1.1-2.6-1.1
	c-1,0-1.9,0.4-2.6,1.1C51.4,4.2,51,5.1,51,6.1v18.3H58.3z M47.9,51.3c-1.9,0.4-3.6,1.3-5,2.7c-1.4,1.4-2.3,3.1-2.7,5
	c-0.4,1.9-0.2,3.8,0.6,5.6c0.7,1.8,2,3.3,3.6,4.4c1.6,1.1,3.5,1.6,5.4,1.6c2.6,0,5-1,6.9-2.9c1.8-1.8,2.8-4.3,2.9-6.9
	c0-1.9-0.6-3.8-1.6-5.4c-1.1-1.6-2.6-2.8-4.4-3.6C51.8,51.1,49.8,50.9,47.9,51.3z M55.5,56.4c0.3,0,0.6,0.1,0.9,0.4
	c0.2,0.2,0.4,0.5,0.4,0.9c0,0.3-0.1,0.6-0.4,0.9l-6.9,6.9c-0.2,0.2-0.5,0.4-0.9,0.4c-0.3,0-0.6-0.1-0.9-0.4l-3.4-3.4
	C44.1,61.7,44,61.4,44,61c0-0.3,0.1-0.6,0.4-0.8c0.2-0.2,0.5-0.4,0.8-0.4c0.3,0,0.6,0.1,0.9,0.3l2.6,2.6l6-6
	C54.8,56.5,55.2,56.4,55.5,56.4z M40.1,48.7H10.9c-0.3,0-0.6-0.1-0.9-0.4c-0.2-0.2-0.4-0.5-0.4-0.9s0.1-0.6,0.4-0.9
	c0.2-0.2,0.5-0.4,0.9-0.4h29.2c0.3,0,0.6,0.1,0.9,0.4c0.2,0.2,0.4,0.5,0.4,0.9s-0.1,0.6-0.4,0.9C40.7,48.5,40.4,48.7,40.1,48.7z
	 M40.1,43.8H10.9c-0.3,0-0.6-0.1-0.9-0.4c-0.2-0.2-0.4-0.5-0.4-0.9c0-0.3,0.1-0.6,0.4-0.9c0.2-0.2,0.5-0.4,0.9-0.4h29.2
	c0.3,0,0.6,0.1,0.9,0.4c0.2,0.2,0.4,0.5,0.4,0.9c0,0.3-0.1,0.6-0.4,0.9C40.7,43.7,40.4,43.8,40.1,43.8z M10.9,51.1h24.3
	c0.3,0,0.6,0.1,0.9,0.4c0.2,0.2,0.4,0.5,0.4,0.9c0,0.3-0.1,0.6-0.4,0.9c-0.2,0.2-0.5,0.4-0.9,0.4H10.9c-0.3,0-0.6-0.1-0.9-0.4
	c-0.2-0.2-0.4-0.5-0.4-0.9c0-0.3,0.1-0.6,0.4-0.9C10.3,51.2,10.6,51.1,10.9,51.1z M10.9,56h24.3c0.3,0,0.6,0.1,0.9,0.4
	c0.2,0.2,0.4,0.5,0.4,0.9c0,0.3-0.1,0.6-0.4,0.9c-0.2,0.2-0.5,0.4-0.9,0.4H10.9c-0.3,0-0.6-0.1-0.9-0.4c-0.2-0.2-0.4-0.5-0.4-0.9
	c0-0.3,0.1-0.6,0.4-0.9C10.3,56.1,10.6,56,10.9,56z"/>
</svg>
