<?xml version="1.0" encoding="utf-8"?>
<!-- Generator: Adobe Illustrator 22.1.0, SVG Export Plug-In . SVG Version: 6.00 Build 0)  -->
<svg width="78" height="64" version="1.1" id="sf_x5F_exchange" xmlns="http://www.w3.org/2000/svg" xmlns:xlink="http://www.w3.org/1999/xlink" x="0px"
	 y="0px" viewBox="0 0 78 64" style="enable-background:new 0 0 78 64;" xml:space="preserve">
<style type="text/css">
	.st0{fill-rule:evenodd;clip-rule:evenodd;fill:#1982B8;}
	.st1{fill:#1982B8;}
</style>
<path class="st0" d="M77.7,27.3l-8,8.1l-8-8.1c-0.4-0.4-0.4-1.1,0-1.5c0.4-0.4,1-0.4,1.4,0l6.1,6.1c0-16.4-13.3-29.8-29.7-29.8
	c-7.9,0-15.4,3.1-21,8.7c-0.4,0.4-1,0.4-1.4,0c-0.4-0.4-0.4-1.1,0-1.5c6-6,14-9.3,22.4-9.3c17.1,0,31.1,13.8,31.7,30.9l5.1-5.1
	c0.4-0.4,1-0.4,1.4,0C78.1,26.2,78.1,26.9,77.7,27.3z M17.3,38.2c-0.4,0.4-1,0.4-1.4,0l-6-6.1c0,16.4,13.3,29.8,29.7,29.8
	c7.9,0,15.4-3.1,21-8.7c0.4-0.4,1.1-0.4,1.4,0c0.4,0.4,0.4,1.1,0,1.5c-6,6-14,9.3-22.4,9.3C22.3,64,8.3,50.2,7.8,33.1l-5.1,5.1
	c-0.2,0.2-0.5,0.3-0.7,0.3c-0.3,0-0.5-0.1-0.7-0.3c-0.4-0.4-0.4-1.1,0-1.5l8-8.1l8,8.1C17.6,37.1,17.6,37.8,17.3,38.2z"/>
<path class="st1" d="M38.8,29.6c-0.1-3.9-2.9-5.6-6.6-5.6c-3.2,0-6.5,1.6-6.5,5.2c0,3.3,2.9,4.1,5.7,4.7c2.8,0.6,5.7,1,5.7,3.5
	c0,2.6-2.4,3.2-4.5,3.2c-2.7,0-5.2-1.3-5.2-4.3h-2.2c0,4.3,3.4,6.3,7.4,6.3c3.2,0,7-1.5,7-5.3c0-3.5-2.8-4.5-5.7-5.1
	c-2.9-0.6-5.7-1-5.7-3.2c0-2.3,2-3,4-3c2.4,0,4.1,1.1,4.4,3.6H38.8z"/>
<path class="st1" d="M42.4,42.2h2.4v-8.2H53v-2h-8.2v-5.7h9.3v-2H42.4V42.2z"/>
</svg>
