<svg id="social_media" width="56" height="59" xmlns="http://www.w3.org/2000/svg" viewBox="0 0 55.03 58.02"><defs><style>.cls-1{fill:#2075bb;fill-rule:evenodd;}</style></defs><title>social_media</title><path class="cls-1" d="M35.42,39.49a12.09,12.09,0,0,0-1.57,1.95l-11.7-6.6a11.29,11.29,0,0,0,0-8.45L32.5,18.53a11.35,11.35,0,1,0-1-2.05L21.09,24.36a11.44,11.44,0,1,0,0,12.51l11.73,6.62a11.33,11.33,0,0,0,2.6,12.17,11.54,11.54,0,0,0,16.24,0,11.38,11.38,0,0,0,0-16.17A11.53,11.53,0,0,0,35.42,39.49ZM42.18,3.27A9.15,9.15,0,1,1,33,12.41,9.17,9.17,0,0,1,42.18,3.27ZM11.49,39.76a9.15,9.15,0,1,1,9.19-9.15A9.18,9.18,0,0,1,11.49,39.76ZM50,54a9.23,9.23,0,0,1-13,0,9.11,9.11,0,0,1,0-12.93,9.22,9.22,0,0,1,13,0A9.11,9.11,0,0,1,50,54Z" transform="translate(0 -0.98)"/></svg>