<svg id="status" width="44" height="44" xmlns="http://www.w3.org/2000/svg" viewBox="0 0 44 44"><defs><style>.cls-1{fill:#2075bb;fill-rule:evenodd;}</style></defs><title>status</title><path class="cls-1" d="M35.2,44H4.4A4.4,4.4,0,0,1,0,39.6V.73A.73.73,0,0,1,.45.06a.72.72,0,0,1,.8.16l1,1L4,.12a.76.76,0,0,1,.82,0L6.6,1.32,8.39.12a.76.76,0,0,1,.82,0L11,1.32,12.79.12a.76.76,0,0,1,.82,0l1.79,1.2L17.19.12a.76.76,0,0,1,.82,0l1.79,1.2L21.59.12a.76.76,0,0,1,.82,0l1.79,1.2L26,.12a.76.76,0,0,1,.82,0l1.7,1.14,1-1a.72.72,0,0,1,.8-.16.73.73,0,0,1,.45.67V6.17l1.47,1L34.06,6a.72.72,0,0,1,.81,0l1.8,1.2L38.46,6a.71.71,0,0,1,.81,0l1.8,1.19L42.86,6A.73.73,0,0,1,44,6.6V35.2A8.81,8.81,0,0,1,35.2,44ZM29.33,28.6V2.5l-.21.22a.73.73,0,0,1-.93.09L26.4,1.62,24.61,2.81a.72.72,0,0,1-.82,0L22,1.62,20.21,2.81a.72.72,0,0,1-.82,0L17.6,1.62,15.81,2.81a.72.72,0,0,1-.82,0L13.2,1.62,11.41,2.81a.72.72,0,0,1-.82,0L8.8,1.62,7,2.81a.72.72,0,0,1-.82,0L4.4,1.62,2.61,2.81a.73.73,0,0,1-.93-.09L1.47,2.5V39.6A2.93,2.93,0,0,0,4.4,42.53h26a8.77,8.77,0,0,1-1-13.93ZM42.53,8l-1.06.71a.74.74,0,0,1-.81,0l-1.79-1.2-1.8,1.19a.71.71,0,0,1-.81,0l-1.8-1.2L32.67,8.66a.72.72,0,0,1-.81,0L30.8,7.94V27.59a8.76,8.76,0,0,1,11.73,2.76ZM35.2,27.87a7.33,7.33,0,1,0,7.33,7.33A7.34,7.34,0,0,0,35.2,27.87Zm-1.47,11a.74.74,0,0,1-.52-.22l-2.93-2.93,1-1,2.41,2.42,5.35-5.35,1,1-5.87,5.86A.7.7,0,0,1,33.73,38.87ZM26.4,24.93h1.47V26.4H26.4Zm0-3.66h1.47v1.46H26.4ZM22,35.93h2.93V37.4H22Zm0-3.66h2.93v1.46H22Zm0-3.67h2.93v1.47H22Zm0-3.67h2.93V26.4H22Zm0-3.66h2.93v1.46H22Zm-6.6-5.14A5.13,5.13,0,1,1,20.53,11,5.13,5.13,0,0,1,15.4,16.13Zm0-8.8A3.67,3.67,0,1,0,19.07,11,3.68,3.68,0,0,0,15.4,7.33ZM13.2,17.6v1.47H11.73V17.6Zm2.93,0v1.47H14.67V17.6Zm1.47,5.13H4.4V21.27H17.6Zm0,3.67H4.4V24.93H17.6Zm0,3.67H4.4V28.6H17.6Zm0,3.66H4.4V32.27H17.6Zm0-16.13h1.47v1.47H17.6Zm0,19.8H4.4V35.93H17.6Z"/></svg>