<svg id="transactions" width="68" height="68" xmlns="http://www.w3.org/2000/svg" viewBox="0 0 68 68"><defs><style>.cls-1{fill:#1a80b9;fill-rule:evenodd;}</style></defs><title>subscriptions</title><path class="cls-1" d="M62.52,53.74a3.29,3.29,0,0,1-3.29-3.29V50a52.6,52.6,0,0,0-11-4.33V59.23H41.68V68H5.48A5.49,5.49,0,0,1,0,62.52V14.26A5.49,5.49,0,0,1,5.48,8.77H17.55V0H42.77a5.49,5.49,0,0,1,5.49,5.48V22.31a53.16,53.16,0,0,0,11-4.33v-.43a3.29,3.29,0,0,1,3.29-3.29A5.49,5.49,0,0,1,68,19.74V48.26A5.49,5.49,0,0,1,62.52,53.74ZM41.68,57h4.38V45.16c-1.44-.33-2.91-.58-4.38-.79Zm0-14.87c.73.1,1.46.2,2.19.33v-17c-.73.13-1.46.23-2.19.33ZM2.19,62.52a3.3,3.3,0,0,0,3.29,3.29h34V19.74h-34a5.47,5.47,0,0,1-3.29-1.1ZM42.77,2.19h-23V8.77h23a3.29,3.29,0,0,0,0-6.58Zm3.29,7.65A5.39,5.39,0,0,1,42.77,11H5.48a3.29,3.29,0,0,0,0,6.58h36.2v6.08c1.47-.21,2.94-.46,4.38-.79Zm13.17,10.6A54.52,54.52,0,0,1,46.06,25.1V42.9a54.52,54.52,0,0,1,13.17,4.66Zm6.58-.7a3.3,3.3,0,0,0-3.29-3.29,1.1,1.1,0,0,0-1.1,1.1v32.9a1.1,1.1,0,0,0,1.1,1.1,3.3,3.3,0,0,0,3.29-3.29ZM37.29,37.29H4.39V21.94h32.9ZM35.1,24.13H6.58v11H35.1ZM6.58,41.68H4.39v-2.2H6.58Zm17.55-2.2v2.2H8.77v-2.2Zm0,6.58H4.39V43.87H24.13Zm0,4.39H4.39V48.26H24.13ZM25.23,57a3.29,3.29,0,1,1-3.29,3.29A3.3,3.3,0,0,1,25.23,57Zm0,4.39a1.1,1.1,0,1,0-1.1-1.1A1.09,1.09,0,0,0,25.23,61.42ZM34,57a3.29,3.29,0,1,1-3.29,3.29A3.3,3.3,0,0,1,34,57Zm0,4.39a1.1,1.1,0,1,0-1.1-1.1A1.1,1.1,0,0,0,34,61.42Z"/></svg>