<svg id="support" width="28" height="30" xmlns="http://www.w3.org/2000/svg" viewBox="0 0 28 30"><defs><style>.cls-1{fill:#fff;fill-rule:evenodd;}</style></defs><title>support</title><path class="cls-1" d="M26.59,15.69a24.77,24.77,0,0,1-4,7.62,22.07,22.07,0,0,1-8.13,6.47L14,30l-.48-.22a22.07,22.07,0,0,1-8.13-6.47,24.77,24.77,0,0,1-4-7.62,28.28,28.28,0,0,1-1.4-9l0-.94,1-.1A24.27,24.27,0,0,0,9.77,2.85,23.73,23.73,0,0,0,13.29.59L14,0l.71.59a23.73,23.73,0,0,0,3.52,2.26A24.27,24.27,0,0,0,27,5.62l.95.1,0,.94A28.28,28.28,0,0,1,26.59,15.69Zm-5.22-9.1a28.33,28.33,0,0,1-4.25-1.85A27.73,27.73,0,0,1,14,2.8a27.73,27.73,0,0,1-3.12,1.94A28.33,28.33,0,0,1,6.63,6.59,24.41,24.41,0,0,1,2.22,7.66,27.82,27.82,0,0,0,3.54,15.1,22.25,22.25,0,0,0,7.17,22,19.81,19.81,0,0,0,14,27.58,19.79,19.79,0,0,0,20.86,22a22.78,22.78,0,0,0,3.62-7,27.6,27.6,0,0,0,1.3-7.37A24.61,24.61,0,0,1,21.37,6.59ZM7.87,15.51l.78-.77h0L9.43,14l.39.39,2.92,2.87,5.74-5.66L20,10.05l1.56,1.54L12.74,20.3Z" transform="translate(0)"/></svg>