<svg id="support_tickets" width="77" height="77" xmlns="http://www.w3.org/2000/svg" viewBox="0 0 76.5 76.5"><defs><style>.cls-1{fill:#1c7eb9;fill-rule:evenodd;}</style></defs><title>support_tickets</title><path class="cls-1" d="M29.31,76.5l-8.75-8.75.84-.83a6,6,0,0,0,2-5.07,8,8,0,0,0-8.26-8.26,6,6,0,0,0-5.07,2l-.83.84L.5,47.69,48.19,0l8.75,8.75-.84.83a6,6,0,0,0-2,5.07,8,8,0,0,0,8.26,8.26,6,6,0,0,0,5.07-2l.83-.84L77,28.81ZM68.22,23.36a8.14,8.14,0,0,1-5.87,1.91A10.39,10.39,0,0,1,51.73,14.65a8.14,8.14,0,0,1,1.91-5.87L48.19,3.34,33.34,18.19l3.88,3.89-1.66,1.66-3.89-3.88L3.84,47.69l5.44,5.45a8.14,8.14,0,0,1,5.87-1.91A10.39,10.39,0,0,1,25.77,61.85a8.14,8.14,0,0,1-1.91,5.87l5.45,5.44L57.14,45.33l-3.88-3.89,1.66-1.66,3.89,3.88L73.66,28.81Zm-22,11,1.66-1.67,4.72,4.72L50.9,39.09Zm-8.26-8.26,1.66-1.67,4.72,4.72-1.66,1.67Z" transform="translate(-0.5)"/></svg>