<?xml version="1.0" encoding="utf-8"?>
<!-- Generator: Adobe Illustrator 22.1.0, SVG Export Plug-In . SVG Version: 6.00 Build 0)  -->
<svg width="30" height="29" version="1.1" baseProfile="basic" id="transaction"
	 xmlns="http://www.w3.org/2000/svg" xmlns:xlink="http://www.w3.org/1999/xlink" x="0px" y="0px" viewBox="0 0 30 29"
	 xml:space="preserve">
<style type="text/css">
	.st0{fill:#FFFFFF;}
</style>
<path class="st0" d="M25.8,0H3.4C1.5,0,0,1.5,0,3.4v21.3c0,1.9,1.5,3.4,3.4,3.4h22.5c1.9,0,3.4-1.5,3.4-3.4V3.4
	C29.2,1.5,27.7,0,25.8,0z M27,24.7c0,0.6-0.5,1.1-1.1,1.1H3.4c-0.6,0-1.1-0.5-1.1-1.1V3.4c0-0.6,0.5-1.1,1.1-1.1h22.5
	c0.6,0,1.1,0.5,1.1,1.1V24.7z"/>
<path class="st0" d="M21.9,12.4c0.6,0,1.1-0.5,1.1-1.1c0-0.6-0.5-1.1-1.1-1.1H9.4l1.4-1.5c0.4-0.5,0.3-1.2-0.1-1.6
	c-0.4-0.4-1-0.4-1.5,0l-3.4,3.4c-0.3,0.3-0.4,0.8-0.2,1.2c0.2,0.4,0.6,0.7,1,0.7H21.9z"/>
<path class="st0" d="M23,16.3H7.9c-0.6,0-1.1,0.5-1.1,1.1s0.5,1.1,1.1,1.1h12.4L18.9,20c-0.5,0.4-0.5,1.1-0.1,1.6
	c0.4,0.5,1.1,0.5,1.6,0.1c0,0,0.1-0.1,0.1-0.1l3.4-3.4c0.3-0.3,0.4-0.8,0.2-1.2C23.9,16.6,23.5,16.3,23,16.3z"/>
</svg>
