<?xml version="1.0" encoding="utf-8"?>
<!-- Generator: Adobe Illustrator 22.1.0, SVG Export Plug-In . SVG Version: 6.00 Build 0)  -->
<svg width="75" height="68" version="1.1" baseProfile="basic" id="transactions"
	 xmlns="http://www.w3.org/2000/svg" xmlns:xlink="http://www.w3.org/1999/xlink" x="0px" y="0px" viewBox="0 0 75 68"
	 xml:space="preserve">
<style type="text/css">
	.st0{fill-rule:evenodd;clip-rule:evenodd;fill:#3C81C0;}
</style>
<path class="st0" d="M72.8,2h-4.6v50.5h4.6c1.2,0,2.2-0.2,2.2,1c0,1.2-1,1-2.2,1H2.2c-1.2,0-2.2,0.2-2.2-1c0-1.2,1-1,2.2-1h4.6V2
	H2.2C1,2,0,2.2,0,1c0-1.2,1-1,2.2-1h70.6C74,0,75-0.2,75,1C75,2.2,74,2,72.8,2z M66.2,2H8.8v50.5h57.5V2z M18.3,32.4l12.6-8.3
	c0.6-0.4,1.3-0.5,1.9-0.2c0.6,0.2,1.1,0.7,1.4,1.3l2.8,7.3l15.6-10.1c1-0.7,2.4-1.6,3.1-0.6c0.7,1,0.4,1.2-0.7,1.8L38.1,34.5
	c-0.6,0.4-1.3,0.5-1.9,0.2c-0.6-0.2-1.1-0.7-1.4-1.3L32,26.2l-12.6,8.3c-0.4,0.2-0.9,0.5-1.3,0.5c-0.2,0-0.3,0-0.3,0.1
	c0-0.1,0-0.2-0.2-0.3C16.9,33.7,17.2,33.1,18.3,32.4z M17.8,35 M30.7,66h5.8c-0.1-0.2-0.1-0.5-0.1-0.7v-7.4c0-1.2-0.2-2.2,1-2.2
	c1.2,0,1,1,1,2.2v7.4c0,0.3,0,0.5-0.1,0.7h5.4c1.2,0,2.2-0.2,2.2,1c0,1.2-1,1-2.2,1H30.7c-1.2,0-2.2,0.2-2.2-1
	C28.4,65.8,29.4,66,30.7,66z"/>
</svg>
