<svg id="upgrate" width="59" height="59" xmlns="http://www.w3.org/2000/svg" viewBox="0 0 58.75 58.75"><defs><style>.cls-1{fill:#fff;fill-rule:evenodd;}</style></defs><title>upgrate</title><path class="cls-1" d="M43.68,34.27a31,31,0,0,1-9,21.22,1.38,1.38,0,0,1-1,.39,1.48,1.48,0,0,1-.35-.05,1.21,1.21,0,0,1-.86-.95l-1.36-9.44-1.3,1.17a1.22,1.22,0,0,1-1.68,0L12.44,30.83a1.22,1.22,0,0,1,0-1.68l1.16-1.31L4.12,26.49a1.21,1.21,0,0,1-1-.83,1.23,1.23,0,0,1,.3-1.25,31.13,31.13,0,0,1,21.29-9.09C33,6,46.09.06,57.55.25a1.23,1.23,0,0,1,1.19,1.2C59,12.9,53,26,43.68,34.27ZM34.56,52a28.75,28.75,0,0,0,6.53-15.39l-7.74,6.91ZM7,24.43l8.49,1.22,6.91-7.74A28.71,28.71,0,0,0,7,24.43Zm19.26-7.17-.15.17-.11.12-9,10.05a1.22,1.22,0,0,1-.28.32l-1.79,2L29.08,44l2-1.79A1.08,1.08,0,0,1,31.4,42l10-9,.16-.14.12-.1c8.67-7.56,14.41-19.44,14.59-30C45.69,2.88,33.82,8.61,26.28,17.26Zm11.33,4.13a6.13,6.13,0,1,1,4.33,1.79A6.14,6.14,0,0,1,37.61,21.39Zm6.93-6.93a3.68,3.68,0,1,0,0,5.2A3.7,3.7,0,0,0,44.54,14.46ZM17.37,41.63a7.57,7.57,0,0,1,0,10.7C14.75,55,2.92,58.55,1.58,59a1.49,1.49,0,0,1-.36,0,1.18,1.18,0,0,1-.86-.36,1.21,1.21,0,0,1-.31-1.21c.4-1.34,4-13.18,6.62-15.8A7.57,7.57,0,0,1,17.37,41.63Zm-1.73,9A5.12,5.12,0,0,0,8.4,43.36C7,44.78,4.64,51.1,3.08,55.92,7.9,54.36,14.22,52,15.64,50.6Z" transform="translate(0 -0.25)"/></svg>