<svg id="withdrawals" xmlns="http://www.w3.org/2000/svg" viewBox="0 0 69 47"><defs><style>.cls-1{fill:#1c7eb9;fill-rule:evenodd;}</style></defs><title>withdrawals</title><path class="cls-1" d="M42.19,9.79A13.93,13.93,0,0,0,34.5,12.1a13.76,13.76,0,1,0-7.69,25.11A14,14,0,0,0,34.5,34.9a13.93,13.93,0,0,0,7.69,2.31,13.71,13.71,0,1,0,0-27.42Zm0,21.33a7.72,7.72,0,0,1-3.39-.79,13.53,13.53,0,0,0,0-13.66,7.64,7.64,0,1,1,3.39,14.45ZM64.26,0H4.74A4.72,4.72,0,0,0,0,4.69V42.31A4.72,4.72,0,0,0,4.74,47H64.26A4.72,4.72,0,0,0,69,42.31V4.69A4.72,4.72,0,0,0,64.26,0Zm3.42,42.31a3.4,3.4,0,0,1-3.42,3.38H4.74a3.4,3.4,0,0,1-3.42-3.38V4.69A3.4,3.4,0,0,1,4.74,1.31H64.26a3.4,3.4,0,0,1,3.42,3.38V42.31Z" transform="translate(0)"/></svg>