<?xml version="1.0" encoding="utf-8"?>
<!-- Generator: Adobe Illustrator 22.1.0, SVG Export Plug-In . SVG Version: 6.00 Build 0)  -->
<svg width="29" height="29" version="1.1" baseProfile="basic" id="withdrawals"
	 xmlns="http://www.w3.org/2000/svg" xmlns:xlink="http://www.w3.org/1999/xlink" x="0px" y="0px" viewBox="0 0 29 29"
	 xml:space="preserve">
<style type="text/css">
	.st0{fill-rule:evenodd;clip-rule:evenodd;fill:#FFFFFF;}
	.st1{fill:#FFFFFF;}
</style>
<path class="st0" d="M28.3,3.9c0-2.1-1.7-3.9-3.9-3.9H3.9C1.7,0,0,1.7,0,3.9v12.8c0,2.1,1.7,3.9,3.9,3.9h1.3c0.7,0,1.3-0.6,1.3-1.3
	c0-0.7-0.6-1.3-1.3-1.3H3.9c-0.7,0-1.3-0.6-1.3-1.3V9h23.1v7.7c0,0.7-0.6,1.3-1.3,1.3h-1.3c-0.7,0-1.3,0.6-1.3,1.3
	c0,0.7,0.6,1.3,1.3,1.3h1.3c2.1,0,3.9-1.7,3.9-3.9V3.9z M25.7,6.4V3.9c0-0.7-0.6-1.3-1.3-1.3H3.9c-0.7,0-1.3,0.6-1.3,1.3v2.6H25.7z"
	/>
<path class="st1" d="M15.4,27c0,0.7-0.6,1.3-1.3,1.3c-0.7,0-1.3-0.6-1.3-1.3v-7.2l-1.7,1.7c-0.5,0.5-1.3,0.5-1.8,0
	c-0.5-0.5-0.5-1.3,0-1.8l3.9-3.8c0.5-0.5,1.3-0.5,1.8,0l3.9,3.9c0.5,0.5,0.5,1.3,0,1.8c-0.5,0.5-1.3,0.5-1.8,0l-1.7-1.7V27z"/>
</svg>
