<?xml version="1.0" encoding="utf-8"?>
<!-- Generator: Adobe Illustrator 22.1.0, SVG Export Plug-In . SVG Version: 6.00 Build 0)  -->
<svg width="67" height="66" version="1.1" baseProfile="basic" id="withdrawal_x5F_gistory"
	 xmlns="http://www.w3.org/2000/svg" xmlns:xlink="http://www.w3.org/1999/xlink" x="0px" y="0px" viewBox="0 0 67 66"
	 xml:space="preserve">
<style type="text/css">
	.st0{fill-rule:evenodd;clip-rule:evenodd;fill:#3C81C0;}
	.st1{fill:#3C81C0;}
</style>
<path class="st0" d="M67,43.8C67,56.1,57,66,44.8,66c-6.4,0-12.2-2.7-16.2-7H13.1c-3.3,0-6-2.7-6-6c0-1.9,0.9-3.6,2.3-4.7
	c-1.4-1.1-2.3-2.8-2.3-4.7S8,40,9.3,38.9c-1.4-1.1-2.3-2.8-2.3-4.7c0-1.9,0.9-3.6,2.3-4.7c-1.4-1.1-2.3-2.8-2.3-4.7c0-3.3,2.7-6,6-6
	h3.4c-0.7-1-1.1-2.1-1.1-3.4c0-1.3,0.4-2.4,1.1-3.4H6c-3.3,0-6-2.7-6-6c0-3.3,2.7-6,6-6h32.1c3.3,0,6,2.7,6,6c0,1.3-0.4,2.4-1.1,3.4
	h10.5c3.3,0,6,2.7,6,6c0,3.3-2.7,6-6,6h-3.4c0.2,0.3,0.4,0.7,0.6,1.1C60.1,25.1,67,33.6,67,43.8z M13.1,56.3h13.3
	c-1.4-2-2.5-4.3-3.1-6.8H13.1c-1.9,0-3.4,1.5-3.4,3.4C9.7,54.8,11.2,56.3,13.1,56.3z M13.1,47h9.6c-0.1-1-0.2-2.1-0.2-3.1
	c0-1.2,0.1-2.5,0.3-3.7h-9.7c-1.9,0-3.4,1.5-3.4,3.4C9.7,45.4,11.2,47,13.1,47z M13.1,37.6h10.3c0.7-2.5,1.9-4.8,3.4-6.8H13.1
	c-1.9,0-3.4,1.5-3.4,3.4S11.2,37.6,13.1,37.6z M13.1,21.4c-1.9,0-3.4,1.5-3.4,3.4c0,1.9,1.5,3.4,3.4,3.4H29c4-4,9.6-6.5,15.7-6.5
	c0.6,0,1.3,0,1.9,0.1c-0.5-0.2-1-0.3-1.5-0.3H13.1z M38.1,2.6H6C4.1,2.6,2.6,4.1,2.6,6S4.1,9.4,6,9.4h32.1c1.9,0,3.4-1.5,3.4-3.4
	S40,2.6,38.1,2.6z M53.5,18.8c1.9,0,3.4-1.5,3.4-3.4c0-1.9-1.5-3.4-3.4-3.4H21.5c-1.9,0-3.4,1.5-3.4,3.4c0,1.9,1.5,3.4,3.4,3.4h23.7
	H53.5z M44.8,24.3c-10.8,0-19.6,8.8-19.6,19.6c0,10.8,8.8,19.6,19.6,19.6c10.8,0,19.6-8.8,19.6-19.6C64.4,33,55.6,24.3,44.8,24.3z"
	/>
<path class="st1" d="M38.8,50.7H42v-6.2h5.8v6.2h3.1V36.4h-3.1v5.5H42v-5.5h-3.1V50.7z"/>
</svg>
