<svg id="benefits" width="69" height="84" xmlns="http://www.w3.org/2000/svg" viewBox="0 0 68.9999 84.0004"><defs><style>.cls-1{fill:#fff;fill-rule:evenodd;}</style></defs><title>benefits</title><path class="cls-1" d="M49.8542,36.5736c-2.5482,4.2178-5.4469,7.2671-8.6231,9.0618a9.8775,9.8775,0,0,1,.2868,1.81,6.7272,6.7272,0,0,1-1.1723,3.4589v3.2179c2.9739.8229,4.965,2.2146,5.6376,3.9121h3.9117a1.31,1.31,0,0,1,1.3084,1.3128V76.5258H52.16a1.3094,1.3094,0,0,1,1.3084,1.3129v4.848A1.3094,1.3094,0,0,1,52.16,84H16.8388A1.31,1.31,0,0,1,15.53,82.6867v-4.848a1.31,1.31,0,0,1,1.3085-1.3129h.9565V59.3466a1.3105,1.3105,0,0,1,1.3085-1.3128h3.9118c.6728-1.6961,2.6637-3.0892,5.6374-3.9121V50.8752a6.66,6.66,0,0,1-1.1711-3.43,10.1385,10.1385,0,0,1,.2825-1.8127c-3.1757-1.796-6.0717-4.8426-8.6187-9.0577C12.3822,34.341,0,25.4,0,13.502A10.1114,10.1114,0,0,1,10.8235,3.4142c-.0123-.3971-.022-.7866-.0259-1.1784a2.219,2.219,0,0,1,.645-1.58A2.1954,2.1954,0,0,1,13.01-.0008H55.99a2.2156,2.2156,0,0,1,2.2074,2.2429c-.0038.3922-.0145.7817-.0262,1.1707.2471-.0192.4933-.0322.7367-.0322A10.1175,10.1175,0,0,1,69,13.502C68.9986,25.3975,56.6206,34.3369,49.8542,36.5736ZM18.1473,79.1506v2.2237H50.8514V79.1506H18.1473Zm2.2649-2.6248H48.5863V60.659H20.4122ZM30.4386,48.8572H38.56a5.6622,5.6622,0,0,0,.341-1.4137,7.2692,7.2692,0,0,0-.3807-1.7H30.4784a7.3133,7.3133,0,0,0-.3808,1.7029A5.7428,5.7428,0,0,0,30.4386,48.8572Zm7.29,4.7288V51.4834H31.27v2.104c.0339-.0045.0687-.0081.1028-.0126q.1963-.0255.3945-.0475.3733-.043.7518-.0744c.0551-.0049.11-.01.1651-.0143.1664-.0126.3331-.0229.5005-.0319.0565-.0031.1129-.0053.1693-.0085.176-.008.3518-.0152.5284-.02h.01c.5974-.0152,1.1962-.0072,1.7913.022.03.0013.06.0022.09.0044C36.4342,53.439,37.09,53.4977,37.7287,53.586Zm4.9669,4.4469a10.3214,10.3214,0,0,0-3.9359-1.6c-.575-.1246-1.173-.2174-1.78-.2886a21.3188,21.3188,0,0,0-2.48-.1489,20.3617,20.3617,0,0,0-4.2626.4375,10.323,10.323,0,0,0-3.9346,1.6ZM11.0148,7.4164q-.0456-.6764-.0817-1.3581A7.4311,7.4311,0,0,0,2.6157,13.502c0,9.15,8.609,16.3042,14.5318,19.3585C13.7807,25.8161,11.66,17.0277,11.0148,7.4164Zm2.4089-4.792c.013.7244.0432,1.442.0719,2.1605.0367.904.0811,1.6822.1322,2.4554.6307,9.3858,2.7007,17.9313,5.9889,24.7143.4749.9812.9866,1.9372,1.52,2.8467a23.5452,23.5452,0,0,0,7.525,8.3164H40.3378a23.5683,23.5683,0,0,0,7.525-8.3146c.5312-.9077,1.0428-1.8669,1.5191-2.8485,3.2895-6.7853,5.3608-15.3312,5.9889-24.7143.0523-.7746.0942-1.5514.1282-2.3375.03-.7575.0615-1.5137.0747-2.2784ZM58.063,6.0574q-.0363.6837-.08,1.36c-.6443,9.6069-2.7643,18.3957-6.133,25.4432C57.7717,29.8067,66.38,22.6516,66.38,13.502A7.4353,7.4353,0,0,0,58.063,6.0574ZM47.3067,29.5992c-.4214.8695-.8819,1.7306-1.3661,2.5589a21.8736,21.8736,0,0,1-5.7612,6.7373l-1.5178-2.14a19.2616,19.2616,0,0,0,5.0232-5.93c.4488-.7665.8754-1.567,1.2679-2.3756,2.8054-5.7858,4.65-13.45,5.196-21.5826.0262-.3846.05-.7732.0706-1.1856l2.6143.1367c-.0235.4236-.047.8216-.0732,1.2219C52.1912,15.5051,50.2547,23.5154,47.3067,29.5992ZM44.6622,73.9H24.3377a1.31,1.31,0,0,1-1.3085-1.3124V64.5954a1.31,1.31,0,0,1,1.3085-1.3124H44.6622a1.3093,1.3093,0,0,1,1.3085,1.3124v7.9919A1.311,1.311,0,0,1,44.6622,73.9Zm-1.3085-7.9919H25.6461v5.3671H43.3537Z" transform="translate(0 0.0008)"/></svg>