<svg id="business" width="75" height="75" xmlns="http://www.w3.org/2000/svg" viewBox="0 0 75 75.0001"><defs><style>.cls-1{fill:#1e7bb8;fill-rule:evenodd;}</style></defs><title>business</title><path class="cls-1" d="M73.75-.001H1.25A1.25,1.25,0,0,0,0,1.25v43.75a1.2494,1.2494,0,0,0,1.25,1.2492H5a1.25,1.25,0,0,0,1.2126-.9459l.7008-2.8032H8.6566L7.5009,73.703a1.25,1.25,0,0,0,1.2025,1.2952c.0155.0009.031.0009.0466.0009H12.5a1.25,1.25,0,0,0,1.22-.9789L17.5,57.0117,21.28,74.02a1.25,1.25,0,0,0,1.22.9789H68.75a1.25,1.25,0,0,0,1.25-1.25v-21.25h2.5a1.25,1.25,0,0,0,1.25-1.25V46.2483a1.25,1.25,0,0,0-1.25-1.2492H54.8089l-.4166-2.5H73.75A1.25,1.25,0,0,0,75,41.25v-40A1.25,1.25,0,0,0,73.75-.001Zm-56.875,17.5a3.1286,3.1286,0,0,1-3.125-3.1247V12.4988H20v1.8758A3.1286,3.1286,0,0,1,16.875,17.4993ZM20,9.9989H13.75v-1.25A1.2512,1.2512,0,0,1,15,7.5h5ZM13.6236,18.96A5.5839,5.5839,0,0,0,16.25,19.9637V22.5h2.5V19.6768a5.608,5.608,0,0,0,1.4173-.7458L25.5,21.2164a11.3019,11.3019,0,0,1,4.211,3.1377l2.1111,2.5337L28.7206,31.54l-1.5882-1.1908.3624-3.9866-2.49-.2257L23.8585,38.7492H18.75v-13.75h-2.5v13.75H11.1415L9.9948,26.1364l-2.49.2257.51,5.6107-.3348.5023L3.2141,30.6885a22.4481,22.4481,0,0,1,2.2435-5.5332,11.2145,11.2145,0,0,1,4.7366-4.4806ZM45,29.9986V31.44L33.6824,33.3266a5.0237,5.0237,0,0,1-2.8927-.3835l2.71-4.0642a3.7327,3.7327,0,0,0,2.6717,1.12Zm-7.309,15H26.4359l-.0925-2.5H38.1077Zm-33.667-1.25H2.5V36.2922a22.3693,22.3693,0,0,1,.22-3.1091L6.31,34.62c-.0081.0251-.0162.0507-.0226.0763ZM8.4231,36.46l.3218,3.5394H7.5384ZM18.72,50.9785a1.25,1.25,0,0,0-2.44,0l-4.7824,21.52h-1.45L11.2044,41.25H23.7955l.1389,3.75H21.25A1.25,1.25,0,0,0,20,46.2483v5.0006a1.25,1.25,0,0,0,1.25,1.25H22.5l0,15.4853Zm6.279,21.52.0007-20h6.25v20Zm33.7508-20v20h-25v-20Zm8.75,20H61.25v-20H67.5Zm3.75-22.5H22.5v-2.5H71.25Zm-31.0243-5,.8332-5H51.441l.8333,5Zm32.2743-5H53.9757l-.2427-1.4559A1.25,1.25,0,0,0,52.5,37.4991H40a1.25,1.25,0,0,0-1.2331,1.0443l-.2426,1.4559H26.2551l.6113-6.7252,1.4942,1.12a7.5371,7.5371,0,0,0,4.5109,1.4993,7.4023,7.4023,0,0,0,1.222-.1014l7.7256-1.2874L41.33,35.81l2.3407.8779.9967-2.658,1.7885-.2982A1.2506,1.2506,0,0,0,47.5,32.4989v-3.75a1.246,1.246,0,0,0-.483-.9849L51.17,16.6882,48.83,15.81l-4.3833,11.689H36.1709a1.2453,1.2453,0,0,1-.96-.45l-3.5795-4.2947a13.8032,13.8032,0,0,0-5.1466-3.8354l-4.6081-1.9751A5.5923,5.5923,0,0,0,22.5,14.3746V7.5a2.5032,2.5032,0,0,0-2.5-2.5H15a3.7542,3.7542,0,0,0-3.75,3.75v5.6254a5.5888,5.5888,0,0,0,.6629,2.6455L9.0761,18.4383a13.7131,13.7131,0,0,0-5.7892,5.4764q-.42.7345-.7869,1.4954V2.4993h70Z" transform="translate(0 0.001)"/></svg>