<svg id="cart" width="30" height="27" xmlns="http://www.w3.org/2000/svg" viewBox="0 0 30.0003 27.5011"><defs><style>.cls-1{fill:#fff;fill-rule:evenodd;}</style></defs><title>cart</title><path class="cls-1" d="M.09,6.6732,5.1581,18.4426a1.1121,1.1121,0,0,0,1.0173.6725H20.104a1.1117,1.1117,0,0,0,1.0728-.8221L25.7087,1.74H28.89a1.1209,1.1209,0,0,0,0-2.2416h-4.014a1.1122,1.1122,0,0,0-1.0728.8226L19.2716,16.8729H6.9153L2.8089,7.3452H16.497a1.1209,1.1209,0,0,0,0-2.2416H1.1073a1.0972,1.0972,0,0,0-.925.5047A1.1439,1.1439,0,0,0,.09,6.6732ZM21.1583,21.9169a2.5413,2.5413,0,1,0,2.5156,2.5412A2.5313,2.5313,0,0,0,21.1583,21.9169Zm-15.5564,0A2.5457,2.5457,0,0,0,3.53,26.12a2.5042,2.5042,0,0,0,1.72.8793h.185a2.5459,2.5459,0,0,0,.1664-5.0829Z" transform="translate(0.0002 0.5018)"/></svg>