<svg id="collaborative_community" width="76" height="76" data-name="collaborative community" xmlns="http://www.w3.org/2000/svg" viewBox="0 0 76.0001 76.0001"><defs><style>.cls-1{fill:#fff;fill-rule:evenodd;}</style></defs><title>community</title><path class="cls-1" d="M70.8205,68.8577a8.3513,8.3513,0,0,1-2.42.7092v6.4324H65.8666v-26.6H68.4V67.0058a5.8351,5.8351,0,0,0,1.3577-.4483,6.3424,6.3424,0,0,0,3.7089-5.7582v-7.6a8.8754,8.8754,0,0,0-3.88-7.3265,8.77,8.77,0,0,0-4.9869-1.54H54.4666c-.2217,0-.4374.024-.6551.0391a11.3808,11.3808,0,0,1,.6551,3.7613V58.2657A8.7245,8.7245,0,0,1,53.2,62.786V75.9993H50.6667V65.5215a8.5614,8.5614,0,0,1-1.38.8026,8.3668,8.3668,0,0,1-2.4205.71v8.9655H44.3333V44.3326h2.5333v20.14a5.8158,5.8158,0,0,0,1.3577-.4487,6.3417,6.3417,0,0,0,3.709-5.7582V48.133a8.8761,8.8761,0,0,0-3.88-7.3274,8.7666,8.7666,0,0,0-4.987-1.5394H32.9333a8.8767,8.8767,0,0,0-8.8667,8.8668V58.2657a6.345,6.345,0,0,0,5.0667,6.2069v-20.14h2.5333V75.9993H29.1333V67.0311a8.7813,8.7813,0,0,1-3.8-1.5v10.468H22.8v-13.19a8.807,8.807,0,0,1-1.2667-4.5434V48.133a11.3179,11.3179,0,0,1,.6511-3.7613c-.2166-.0151-.4309-.0391-.6511-.0391H11.4a8.76,8.76,0,0,0-4.9831,1.538,8.8749,8.8749,0,0,0-3.8836,7.3283v7.6A6.3436,6.3436,0,0,0,6.22,66.5513a6.1056,6.1056,0,0,0,1.38.4545V49.3994h2.5334v26.6H7.6V69.5669a8.4387,8.4387,0,0,1-2.4422-.7194A8.8737,8.8737,0,0,1,0,60.7993v-7.6A11.3989,11.3989,0,0,1,4.987,43.7808,11.2756,11.2756,0,0,1,11.4,41.7994H21.5333a11.3847,11.3847,0,0,1,1.8277.1641,11.3907,11.3907,0,0,1,9.5723-5.2309H43.0666a11.2718,11.2718,0,0,1,6.417,1.984,11.412,11.412,0,0,1,3.1474,3.2486,11.4,11.4,0,0,1,1.8356-.1658H64.6a11.2779,11.2779,0,0,1,6.4169,1.9836A11.4,11.4,0,0,1,76,53.1989v7.6A8.8775,8.8775,0,0,1,70.8205,68.8577ZM59.5333,40.5326a7.6,7.6,0,1,1,7.6-7.6A7.6009,7.6009,0,0,1,59.5333,40.5326Zm0-12.6668A5.0668,5.0668,0,1,0,64.6,32.9326,5.0672,5.0672,0,0,0,59.5333,27.8658Zm-7.6-2.5327a7.6,7.6,0,1,1,7.6-7.6A7.6009,7.6009,0,0,1,51.9333,25.3331Zm0-12.6672A5.0668,5.0668,0,1,0,57,17.7327,5.0666,5.0666,0,0,0,51.9333,12.6659ZM38,15.1991a7.6,7.6,0,1,1,7.6-7.6A7.6008,7.6008,0,0,1,38,15.1991ZM38,2.5323A5.0668,5.0668,0,1,0,43.0666,7.6,5.0673,5.0673,0,0,0,38,2.5323Zm0,17.734a7.6,7.6,0,1,1-7.6,7.5995A7.6,7.6,0,0,1,38,20.2663Zm0,12.6663a5.0666,5.0666,0,1,0-5.0667-5.0668A5.0669,5.0669,0,0,0,38,32.9326ZM24.0666,25.3331a7.6,7.6,0,1,1,7.6-7.6A7.6009,7.6009,0,0,1,24.0666,25.3331Zm0-12.6672a5.0668,5.0668,0,1,0,5.0667,5.0668A5.0666,5.0666,0,0,0,24.0666,12.6659Zm0,20.2667a7.6,7.6,0,1,1-7.6-7.5995A7.6077,7.6077,0,0,1,24.0666,32.9326Zm-12.6666,0a5.0667,5.0667,0,1,0,5.0666-5.0668A5.0668,5.0668,0,0,0,11.4,32.9326Zm6.3333,43.0667H15.2V70.9325h2.5333Zm21.5333,0H36.7333V65.8661h2.5333Zm21.5333,0H58.2666V70.9325H60.8Z" transform="translate(0.0001 0.0004)"/></svg>