<svg id="collaboration" width="87" height="67" xmlns="http://www.w3.org/2000/svg" viewBox="0 0 86.0044 67.0024"><defs><style>.cls-1{fill:#fff;fill-rule:evenodd;}</style></defs><title>collaboration</title><path class="cls-1" d="M85.6537,20.148a1.1835,1.1835,0,0,0-1.671,0l-7.36,7.3388a1.1783,1.1783,0,0,0-.34.7109,24.6353,24.6353,0,0,1-7.09,14.8322l-1.749,1.7441L54.7347,32.1022a10.2806,10.2806,0,0,0,2.3548.2846,8.4045,8.4045,0,0,0,3.2009-.6154,1.1786,1.1786,0,1,0-.8947-2.1807c-4.8664,1.9848-10.4767-3.2985-11.1833-3.9919l-3.3768-3.367A6.52,6.52,0,0,0,43.8148,17.01a6.3944,6.3944,0,0,0-5.3244-2.749l-8.1791.0587H30.29a2.942,2.942,0,0,1-2.9454-2.9386v-.1228a2.9333,2.9333,0,0,1,2.83-2.9345l14.8951-.585a24.1083,24.1083,0,0,1,15.0792,4.5836,1.1847,1.1847,0,0,0,1.5329-.1183l7.823-7.8a1.18,1.18,0,1,0-1.671-1.6661L60.7117,9.8387a26.4959,26.4959,0,0,0-15.7354-4.454L30.0812,5.97c-.0352.0014-.0695.0045-.1043.0068L24.3255.3417a1.18,1.18,0,1,0-1.6711,1.6661L27.445,6.7845a5.2759,5.2759,0,0,0-2.4642,4.4742v.1224a5.3015,5.3015,0,0,0,5.3474,5.2953l8.1706-.0582a4.0048,4.0048,0,0,1,3.3754,1.7377,4.272,4.272,0,0,1,.6885,1.61l-.4051-.4038a1.18,1.18,0,0,0-1.671,1.666L67.15,47.8139a2.9486,2.9486,0,0,1-4.1745,4.1653L45.992,35.0457a1.18,1.18,0,1,0-1.6708,1.666l18.2928,18.24a2.9487,2.9487,0,0,1-4.1761,4.1641l-17.341-17.29a1.18,1.18,0,1,0-1.671,1.6661l14.2093,14.168a2.9488,2.9488,0,0,1-4.1774,4.1631L34.0255,46.4347a1.18,1.18,0,1,0-1.671,1.666L43.8016,59.5148h0a2.9489,2.9489,0,0,1-4.1761,4.1645L18.9157,43.03a24.6352,24.6352,0,0,1-7.09-14.8322,1.1767,1.1767,0,0,0-.34-.7109l-9.4735-9.446A1.18,1.18,0,0,0,.3417,19.7069l9.1811,9.1546A27,27,0,0,0,17.2447,44.696l1.7426,1.7378a5.2891,5.2891,0,0,0,.5572,6.8426,5.3073,5.3073,0,0,0,3.7592,1.55c.134,0,.2678-.0067.4014-.0166a5.3588,5.3588,0,0,0-.07.8584,5.3042,5.3042,0,0,0,5.3163,5.2985,5.3274,5.3274,0,0,0,.7924-.0592,5.3148,5.3148,0,0,0,8.674,4.8476,5.3134,5.3134,0,0,0,8.5083-3.1246l.8605.8579a5.3159,5.3159,0,0,0,8.9719-2.7149l.0082.0081a5.3115,5.3115,0,0,0,8.7366-5.6069,5.2955,5.2955,0,0,0,3.5991-8.7225l1.7616-1.7566a27.0016,27.0016,0,0,0,7.722-15.8345l7.0681-7.0475A1.1754,1.1754,0,0,0,85.6537,20.148ZM21.2158,51.61a2.9422,2.9422,0,0,1-.5176-3.4706l3.9981,3.9866a2.9638,2.9638,0,0,1-3.48-.516Zm5.6475,6.1408a2.9325,2.9325,0,0,1-.32-3.7826l4.1129,4.1008A2.9622,2.9622,0,0,1,26.8633,57.7511ZM32.91,63.78a2.9406,2.9406,0,0,1-.3192-3.7822l4.113,4.1008A2.9542,2.9542,0,0,1,32.91,63.78Z" transform="translate(0.0044 0.0035)"/></svg>