<svg id="community" width="76" height="76" xmlns="http://www.w3.org/2000/svg" viewBox="0 0 76.0001 76"><defs><style>.cls-1{fill:#fff;fill-rule:evenodd;}</style></defs><title>community</title><path class="cls-1" d="M70.8205,68.8579a8.3613,8.3613,0,0,1-2.42.71V76H65.8666V49.4H68.4V67.0063a5.8348,5.8348,0,0,0,1.3577-.4482A6.3423,6.3423,0,0,0,73.4666,60.8V53.2a8.8751,8.8751,0,0,0-3.88-7.3267,8.7691,8.7691,0,0,0-4.9869-1.54H54.4666c-.2217,0-.4374.0242-.6551.039a11.3809,11.3809,0,0,1,.6551,3.7611v10.133a8.7256,8.7256,0,0,1-1.2667,4.52V76H50.6667V65.5218a8.54,8.54,0,0,1-1.38.8028,8.36,8.36,0,0,1-2.4205.7095V76H44.3333V44.3332h2.5333v20.14a5.8333,5.8333,0,0,0,1.3577-.4482,6.3424,6.3424,0,0,0,3.709-5.7584V48.1333a8.8762,8.8762,0,0,0-3.88-7.3272,8.7683,8.7683,0,0,0-4.987-1.54H32.9333a8.8767,8.8767,0,0,0-8.8667,8.8668v10.133a6.3445,6.3445,0,0,0,5.0667,6.2066v-20.14h2.5333V76H29.1333V67.0314a8.7867,8.7867,0,0,1-3.8-1.4993V76H22.8V62.81a8.8066,8.8066,0,0,1-1.2667-4.5433V48.1333a11.3181,11.3181,0,0,1,.6511-3.7611c-.2166-.0148-.4309-.039-.6511-.039H11.4a8.76,8.76,0,0,0-4.9831,1.5379A8.8743,8.8743,0,0,0,2.5333,53.2v7.6A6.3437,6.3437,0,0,0,6.22,66.5518a6.1006,6.1006,0,0,0,1.38.4545V49.4h2.5334V76H7.6v-6.432a8.4637,8.4637,0,0,1-2.4422-.7194A8.874,8.874,0,0,1,0,60.8V53.2A11.4006,11.4006,0,0,1,4.987,43.781,11.2747,11.2747,0,0,1,11.4,41.8H21.5333a11.3961,11.3961,0,0,1,1.8277.1641,11.391,11.391,0,0,1,9.5723-5.2308H43.0666a11.2738,11.2738,0,0,1,6.417,1.9838,11.414,11.414,0,0,1,3.1474,3.2488A11.4,11.4,0,0,1,54.4666,41.8H64.6a11.2769,11.2769,0,0,1,6.4169,1.9834A11.401,11.401,0,0,1,76,53.2v7.6A8.877,8.877,0,0,1,70.8205,68.8579ZM59.5333,40.5331a7.6,7.6,0,1,1,7.6-7.6A7.6008,7.6008,0,0,1,59.5333,40.5331Zm0-12.6669A5.0668,5.0668,0,1,0,64.6,32.933,5.0672,5.0672,0,0,0,59.5333,27.8662Zm-7.6-2.5329a7.6,7.6,0,1,1,7.6-7.6A7.6008,7.6008,0,0,1,51.9333,25.3333Zm0-12.6669A5.0668,5.0668,0,1,0,57,17.7332,5.0669,5.0669,0,0,0,51.9333,12.6664ZM38,15.2a7.6,7.6,0,1,1,7.6-7.6A7.6009,7.6009,0,0,1,38,15.2ZM38,2.5329A5.0668,5.0668,0,1,0,43.0666,7.6,5.0671,5.0671,0,0,0,38,2.5329Zm0,17.7337a7.6,7.6,0,1,1-7.6,7.6A7.6,7.6,0,0,1,38,20.2666ZM38,32.933a5.0666,5.0666,0,1,0-5.0667-5.0668A5.0668,5.0668,0,0,0,38,32.933Zm-13.9334-7.6a7.6,7.6,0,1,1,7.6-7.6A7.6009,7.6009,0,0,1,24.0666,25.3333Zm0-12.6669a5.0668,5.0668,0,1,0,5.0667,5.0668A5.0669,5.0669,0,0,0,24.0666,12.6664Zm0,20.2666a7.6,7.6,0,1,1-7.6-7.6A7.6076,7.6076,0,0,1,24.0666,32.933Zm-12.6666,0a5.0667,5.0667,0,1,0,5.0666-5.0668A5.0668,5.0668,0,0,0,11.4,32.933ZM17.7333,76H15.2V70.9332h2.5333ZM39.2666,76H36.7333V65.8665h2.5333ZM60.8,76H58.2666V70.9332H60.8Z" transform="translate(0.0001)"/></svg>