<svg width="39" height="40" id="phone" xmlns="http://www.w3.org/2000/svg" viewBox="0 0 38.9883 39.008"><defs><style>.cls-1{fill:#4caac9;fill-rule:evenodd;}</style></defs><title>contact_phone</title><path class="cls-1" d="M38.12,30.86l-6.0211-6.039a3.1344,3.1344,0,0,0-4.4264.0835l-3.0335,3.0419c-.1916-.1067-.3894-.2173-.5986-.3345A30.1863,30.1863,0,0,1,16.7438,22.32a30.4286,30.4286,0,0,1-5.2877-7.3294c-.1126-.2036-.22-.4-.3262-.5865l2.036-2.0384,1-1.0049a3.1509,3.1509,0,0,0,.0807-4.4391L8.226.883A3.13,3.13,0,0,0,3.8.9665L2.1027,2.6781l.0467.046A9.8438,9.8438,0,0,0,.751,5.1974,10.2791,10.2791,0,0,0,.1286,7.7061c-.7947,6.6093,2.2169,12.65,10.391,20.8469,11.2989,11.33,20.4046,10.4736,20.7974,10.432a10.1636,10.1636,0,0,0,2.5088-.6321,9.774,9.774,0,0,0,2.4577-1.3961l.037.033L38.04,35.3017A3.1567,3.1567,0,0,0,38.12,30.86Zm-1.4178,3.0985-.7574.758-.3013.2915a7.58,7.58,0,0,1-2.4994,1.5782,8.3311,8.3311,0,0,1-2.0379.5139c-.0862.0082-8.65.7414-19.25-9.8876C2.8429,18.176,1.3985,12.9685,2.0041,7.9249a8.3763,8.3763,0,0,1,.51-2.0443A7.6949,7.6949,0,0,1,4.0888,3.368L5.1364,2.307A1.2427,1.2427,0,0,1,6.89,2.2234L12.911,8.2612a1.2565,1.2565,0,0,1-.0814,1.7621L8.7634,14.0966l.3753.6332c.2085.3529.4292.7488.6645,1.1784A31.9813,31.9813,0,0,0,15.4077,23.66a31.9,31.9,0,0,0,7.7157,5.61c.4345.2415.8314.4628,1.1878.676l.6323.3763,4.0638-4.0766a1.251,1.251,0,0,1,1.7582-.0823L36.7839,32.2A1.2531,1.2531,0,0,1,36.7019,33.9588Z" transform="translate(-0.0057 -0.0068)"/></svg>