<svg id="cost" width="76" height="78" xmlns="http://www.w3.org/2000/svg" viewBox="0 0 75.9983 77.9997"><defs><style>.cls-1{fill:#fff;fill-rule:evenodd;}</style></defs><title>cost</title><path class="cls-1" d="M71.2485,54.6623H68.7271A27.4619,27.4619,0,0,1,60.3865,66.6l1.3378,5.3923a3.5757,3.5757,0,0,1-2.6128,4.3189l-6.418,1.5843A3.5807,3.5807,0,0,1,48.3641,75.29l-.4792-1.93a40.2486,40.2486,0,0,1-23.1977.0044l-.4765,1.9267a3.5523,3.5523,0,0,1-1.2884,1.9631,3.5912,3.5912,0,0,1-2.1862.7448,3.5542,3.5542,0,0,1-.8558-.104l-6.4181-1.5839a3.5781,3.5781,0,0,1-2.7191-3.4656,3.5044,3.5044,0,0,1,.1063-.8564v.0031L12.1817,66.62C6.2652,61.5908,2.5473,54.6423,2.5492,46.948A24.0878,24.0878,0,0,1,5.3084,35.7953a7.2506,7.2506,0,0,1-3.2019-1.4962A5.5811,5.5811,0,0,1,.0017,30.0157a1.3413,1.3413,0,0,1,2.6825,0,2.8992,2.8992,0,0,0,1.14,2.2273A4.7892,4.7892,0,0,0,6.8,33.2764a29.2683,29.2683,0,0,1,5.7233-6.2954A35.1172,35.1172,0,0,1,24.4968,20.61,13.3557,13.3557,0,0,1,35.7665,0,13.3464,13.3464,0,0,1,47.1927,20.35a37.466,37.466,0,0,1,6.0346,2.2984A12.9826,12.9826,0,0,1,62.0436,18.83a9.91,9.91,0,0,1,3.8528.7665,1.3368,1.3368,0,0,1,.7494,1.6622L63.54,30.3861a26.6358,26.6358,0,0,1,4.873,7.9989h2.8363A4.754,4.754,0,0,1,76,43.1227v6.8014A4.7528,4.7528,0,0,1,71.2485,54.6623ZM50.967,74.65a.88.88,0,0,0,.32.4864.9056.9056,0,0,0,.5508.1881l.212-.0249,6.4164-1.5843a.8576.8576,0,0,0,.4882-.32.8951.8951,0,0,0,.19-.5487l-.0242-.2116-1.0515-4.2376c-.3.2126-.59.4367-.8986.64a35.4508,35.4508,0,0,1-6.74,3.4465ZM13.6154,73.3959a.88.88,0,0,0,.4908.32L20.5243,75.3l.2108.0249a.902.902,0,0,0,.55-.189.8884.8884,0,0,0,.321-.4873l.5367-2.1641a35.1619,35.1619,0,0,1-7.644-4.0668l-1.046,4.2188-.0018.0036-.0242.2081A.8852.8852,0,0,0,13.6154,73.3959ZM43.3506,5.8085a10.6754,10.6754,0,1,0,3.1448,7.5671A10.7039,10.7039,0,0,0,43.3506,5.8085ZM72.71,41.6669a2.0621,2.0621,0,0,0-1.46-.6078H67.4789a1.34,1.34,0,0,1-1.27-.91,23.9526,23.9526,0,0,0-5.1734-8.555,1.33,1.33,0,0,1-.2844-1.3367l2.9157-8.5693a7.3889,7.3889,0,0,0-1.6219-.1836,10.5583,10.5583,0,0,0-7.55,3.66,1.3463,1.3463,0,0,1-1.6113.285A34.4034,34.4034,0,0,0,45.41,22.6572a13.4892,13.4892,0,0,1-2.9454,2.294c1.403.2027,2.8094.4509,4.2114.7857a1.3382,1.3382,0,1,1-.6242,2.6025,43.19,43.19,0,0,0-10.0269-1.1983A38.3224,38.3224,0,0,0,25.84,28.4853a1.3381,1.3381,0,1,1-.7163-2.5786,39.4825,39.4825,0,0,1,4.0863-.8693,13.5254,13.5254,0,0,1-2.8953-2.1747,32.6787,32.6787,0,0,0-12.08,6.1784C8.6268,33.6837,5.2327,40.0017,5.2309,46.9485c.0018,6.9477,3.3961,13.267,9.0041,17.91A34.6454,34.6454,0,0,0,36.2864,72.395a35.3535,35.3535,0,0,0,19.4082-5.59A25.552,25.552,0,0,0,66.4636,52.949,1.3394,1.3394,0,0,1,67.75,51.99h3.4979a2.0778,2.0778,0,0,0,2.07-2.0636l.0017-6.8023A2.05,2.05,0,0,0,72.71,41.6669ZM57.1137,39.45a1.87,1.87,0,1,1,1.876-1.87A1.8727,1.8727,0,0,1,57.1137,39.45ZM55.2605,62.9515a14.1293,14.1293,0,0,1-6.2035,3.3024,1.3382,1.3382,0,1,1-.6563-2.5946,11.4359,11.4359,0,0,0,5.0295-2.663,1.3391,1.3391,0,0,1,1.83,1.9552ZM39.4677,11.2782a1.34,1.34,0,0,1-1.3413-1.3375,1.2581,1.2581,0,0,0-.1162-.555,1.1691,1.1691,0,0,0-.3524-.4233A2.1694,2.1694,0,0,0,37.08,8.67v3.1446a6.7278,6.7278,0,0,1,2.1467.9773,3.7972,3.7972,0,0,1,1.0944,1.2308,4.4338,4.4338,0,0,1,.017,4.0081,3.705,3.705,0,0,1-1.3109,1.3779,5.4331,5.4331,0,0,1-1.9474.6937v.1236a1.3413,1.3413,0,0,1-2.6825,0v-.0925a4.8361,4.8361,0,0,1-2.3221-1.028,3.95,3.95,0,0,1-1.4074-3.057,1.3413,1.3413,0,0,1,2.6825,0,1.258,1.258,0,0,0,.4588,1.0156,1.8728,1.8728,0,0,0,.5878.32V13.8807a7.2742,7.2742,0,0,1-2.0879-.8595,3.5064,3.5064,0,0,1-1.6416-3.0805,4.06,4.06,0,0,1,.6233-2.15,4.19,4.19,0,0,1,2.0931-1.6745,5.31,5.31,0,0,1,1.0131-.2708V5.7956a1.3413,1.3413,0,0,1,2.6825,0V5.897a5.835,5.835,0,0,1,1.4322.4651,4.0313,4.0313,0,0,1,1.9171,1.87,3.9194,3.9194,0,0,1,.38,1.7088A1.3407,1.3407,0,0,1,39.4677,11.2782Zm-5.07-2.6817c-.0177.0053-.04.0115-.0589.0187a1.6136,1.6136,0,0,0-.601.3788,1.3771,1.3771,0,0,0-.3872.9471,1.0661,1.0661,0,0,0,.0965.5025.8289.8289,0,0,0,.2567.2876,2.7455,2.7455,0,0,0,.6939.3469ZM37.08,17.3592a2.0835,2.0835,0,0,0,.65-.3064.946.946,0,0,0,.2478-.293,1.4557,1.4557,0,0,0,.1484-.7114,1.382,1.382,0,0,0-.1959-.8026,1.5207,1.5207,0,0,0-.581-.4785c-.076-.0413-.1789-.0773-.2691-.116h0Z" transform="translate(-0.0017 0.0004)"/></svg>