<svg id="creative_services" width="75" height="75" xmlns="http://www.w3.org/2000/svg" viewBox="0 0 74.9967 75"><defs><style>.cls-1{fill:#1e7bb8;fill-rule:evenodd;}</style></defs><title>creative_services</title><path class="cls-1" d="M59.2643,21.1169l-5.232,2.5-1.0775-2.2551,5.2321-2.5Zm14.3308,9.5518L66.247,38.017V57.4989h7.5a1.25,1.25,0,0,1,1.25,1.25V68.75a1.25,1.25,0,0,1-1.25,1.25H38.7482a1.25,1.25,0,0,1-1.25-1.25V64.9989h-6.25v-2.5h6.25v-3.75a1.25,1.25,0,0,1,1.25-1.25H63.747V40.5169L50.8816,53.3836a1.2564,1.2564,0,0,1-.6387.3415l-6.25,1.25a1.25,1.25,0,0,1-1.4709-1.4707l1.25-6.25a1.25,1.25,0,0,1,.3419-.6383L63.747,26.9811V14.9988h-7.5a5.0051,5.0051,0,0,1-5-4.9993V2.5H13.7493a2.5022,2.5022,0,0,0-2.5,2.5V41.2488H8.75V4.9994a5.0061,5.0061,0,0,1,5-5.0006H52.4976a1.25,1.25,0,0,1,.8838.3661l12.4995,12.5a1.25,1.25,0,0,1,.3661.884V24.4817l.5806-.5807a4.7854,4.7854,0,0,1,6.7675,6.7677ZM53.7475,4.2675V10a2.5027,2.5027,0,0,0,2.5,2.4994h5.7319Zm8.75,58.2316v-2.5h-2.5v2.5h-2.5v-2.5h-2.5v2.5h-2.5v-2.5h-2.5v2.5h-2.5v-2.5h-2.5v2.5h-2.5v-2.5h-2.5v7.5H72.4967v-7.5h-2.5v2.5h-2.5v-2.5h-2.5v2.5ZM45.3417,52.1552l2.1206-.4238-1.6968-1.6969ZM66.247,28.0168,46.7657,47.4991l3.232,3.2322L69.479,31.2494Zm3.9643-3.0177a2.27,2.27,0,0,0-1.616.67l-.5806.5806,3.232,3.2318.5806-.58a2.2855,2.2855,0,0,0-1.616-3.9016ZM22.0126,41.1123l-5.232,2.5-1.0775-2.2555,5.232-2.5ZM13.7493,4.9994h2.5v2.5h-2.5Zm7.5,0v2.5h-2.5v-2.5ZM20.9356,23.635l-5.2321-2.5L16.7809,18.88l5.2321,2.5ZM23.7489,4.9994h2.5v2.5h-2.5Zm12.4994,3.75h2.5v6.2494h-2.5Zm2.5,45h-2.5v-6.25h2.5Zm-13.7493-16.25v-13.75a1.2314,1.2314,0,0,1,.743-1.141l-.0018-.0017,11.2494-5a1.2494,1.2494,0,0,1,1.0156,0l11.25,5v.0017a1.2315,1.2315,0,0,1,.7431,1.141v13.75a1.25,1.25,0,0,1-.742,1.1423L38.0062,43.6421V43.64a1.247,1.247,0,0,1-1.0156.0018l-11.25-5.0006A1.25,1.25,0,0,1,24.9989,37.4992Zm13.7493,3.0762,8.75-3.8887V25.6729l-8.75,3.8891Zm-1.25-13.1943L45.67,23.7494l-8.1715-3.6322-8.1716,3.6322Zm-10,9.3056,8.75,3.8887V29.562l-8.75-3.89Zm10,37.062a1.25,1.25,0,0,1-1.25,1.25H1.25A1.25,1.25,0,0,1,0,73.7487v-35a1.25,1.25,0,0,1,2.1339-.8839l34.9984,35A1.25,1.25,0,0,1,37.4983,73.7487ZM2.5,41.7671V72.4989H33.2308ZM9.6334,55.3652l10,10.0008a1.25,1.25,0,0,1-.8839,2.1332H8.75A1.25,1.25,0,0,1,7.5,66.25v-10a1.25,1.25,0,0,1,2.1338-.884ZM10,64.9989h5.7321L10,59.2669Z" transform="translate(0.0001 0.0012)"/></svg>