<svg id="discount" width="74" height="75" xmlns="http://www.w3.org/2000/svg" viewBox="0 0 73.9993 74.9985"><defs><style>.cls-1{fill:#fff;fill-rule:evenodd;}</style></defs><title>discount</title><path class="cls-1" d="M73.6293,2.1366,68.98,6.77V37.1115l-35.7465,36.59a4.4457,4.4457,0,0,1-6.27.0124L1.2948,48.13a4.3988,4.3988,0,0,1,0-6.2376l36.711-36.89H67.2065L71.8571.3691a1.2515,1.2515,0,1,1,1.7722,1.7675Zm-7.1565,7.134-6.0616,6.041a6.1976,6.1976,0,0,1,1.0447,3.4416,6.2815,6.2815,0,1,1-2.8183-5.2091l6.0617-6.041H39.0506L3.072,43.6563a1.9062,1.9062,0,0,0-.0037,2.7066L28.7371,71.9463a1.9247,1.9247,0,0,0,2.7116,0l35.0241-35.85ZM54.298,17.8693l2.4984-2.49A3.7887,3.7887,0,1,0,58.57,17.1467l-2.4984,2.4905a1.2521,1.2521,0,1,1-1.7736-1.7679ZM30.8768,65.3548a1.2681,1.2681,0,0,1,1.781-.0262,1.2559,1.2559,0,0,1-.878,2.15,1.28,1.28,0,0,1-.8779-.3624A1.2518,1.2518,0,0,1,30.8768,65.3548Zm.9281-44.0017a1.288,1.288,0,0,1-.8779-.3619,1.253,1.253,0,1,1,1.7809-.0129A1.2812,1.2812,0,0,1,31.8049,21.3531Zm4.3521,40.4a1.242,1.242,0,0,1,.0251,1.7626,1.274,1.274,0,0,1-.903.3752,1.2189,1.2189,0,0,1-.8654-.349,1.2489,1.2489,0,1,1,1.7433-1.7888Zm-.8152-43.95a1.2542,1.2542,0,1,1,.8905-2.1374,1.24,1.24,0,0,1,0,1.7612A1.2257,1.2257,0,0,1,35.3418,17.803Zm4.3145,40.3641a1.24,1.24,0,0,1,.0251,1.7612,1.2768,1.2768,0,0,1-.903.3762,1.2436,1.2436,0,0,1-.89-2.1125A1.24,1.24,0,0,1,39.6563,58.1671ZM38.88,14.2516a1.2594,1.2594,0,0,1-.878-.362,1.2486,1.2486,0,1,1,1.7559-1.7755,1.231,1.231,0,0,1,.0126,1.7626A1.2475,1.2475,0,0,1,38.88,14.2516Zm4.2768,40.3276a1.2463,1.2463,0,0,1,.0251,1.7755,1.2774,1.2774,0,0,1-.903.3748,1.2146,1.2146,0,0,1-.8654-.35,1.2458,1.2458,0,0,1-.0251-1.775A1.2636,1.2636,0,0,1,43.1568,54.5792ZM41.9139,11.2529a1.2542,1.2542,0,1,1,1.2542,1.25A1.2478,1.2478,0,0,1,41.9139,11.2529Zm4.7422,39.75a1.2427,1.2427,0,0,1,.0251,1.7631,1.275,1.275,0,0,1-.903.3744,1.216,1.216,0,0,1-.8655-.35,1.2486,1.2486,0,0,1,1.7434-1.788Zm1.5289-41a1.25,1.25,0,1,1-1.2542,1.25A1.2559,1.2559,0,0,1,48.185,10.0029Zm1.9691,37.4125a1.2457,1.2457,0,0,1,.0251,1.7751,1.2757,1.2757,0,0,1-.9031.3748,1.2559,1.2559,0,0,1-.89-2.1237A1.2422,1.2422,0,0,1,50.1541,47.4154ZM53.6534,43.84a1.2491,1.2491,0,1,1-1.7685.0266A1.2314,1.2314,0,0,1,53.6534,43.84Zm3.4993-3.5861a1.2457,1.2457,0,0,1,.0251,1.775,1.253,1.253,0,1,1-.0251-1.775Zm3.4993-3.5875a1.2454,1.2454,0,0,1,.0251,1.7746,1.26,1.26,0,0,1-1.7685.0254,1.2459,1.2459,0,0,1-.0251-1.7751A1.2637,1.2637,0,0,1,60.652,36.6664ZM62.71,22.503a1.25,1.25,0,1,1-1.2542,1.25A1.2523,1.2523,0,0,1,62.71,22.503Zm0,5a1.25,1.25,0,1,1-1.2542,1.25A1.2519,1.2519,0,0,1,62.71,27.5035Zm0,5a1.25,1.25,0,1,1-1.2542,1.25A1.2523,1.2523,0,0,1,62.71,32.5036Zm-34.4295-7.6a1.25,1.25,0,1,1,.89-.3749A1.24,1.24,0,0,1,28.2806,24.9032ZM29.146,65.28a1.257,1.257,0,0,1,0,1.775,1.2852,1.2852,0,0,1-.89.3624,1.2516,1.2516,0,1,1,.89-2.1374Zm-4.4011-36.826a1.2544,1.2544,0,1,1,.89-2.1379,1.2419,1.2419,0,0,1,0,1.7626A1.2266,1.2266,0,0,1,24.7449,28.4537Zm.8529,33.2884a1.2528,1.2528,0,1,1-1.7684,0A1.257,1.257,0,0,1,25.5978,61.7421Zm-4.391-29.7383a1.2782,1.2782,0,0,1-.8779-.3628,1.2528,1.2528,0,1,1,1.7809-.0125A1.2739,1.2739,0,0,1,21.2068,32.0038Zm.84,26.2006a1.2528,1.2528,0,1,1-1.7684,0A1.257,1.257,0,0,1,22.0471,58.2044ZM17.6824,35.5526a1.2563,1.2563,0,0,1-.8905-2.1375,1.2541,1.2541,0,0,1,1.7685,0,1.23,1.23,0,0,1,.0125,1.7622A1.2476,1.2476,0,0,1,17.6824,35.5526Zm.8152,19.1266a1.24,1.24,0,0,1,0,1.7613,1.2042,1.2042,0,0,1-.8779.3624,1.2431,1.2431,0,0,1-.8905-2.1237A1.2523,1.2523,0,0,1,18.4976,54.6792ZM14.1455,39.104a1.2524,1.2524,0,1,1,.878-2.1392,1.2514,1.2514,0,0,1-.878,2.1392Zm.8152,12.0376a1.2523,1.2523,0,1,1-1.7809,0A1.2673,1.2673,0,0,1,14.9607,51.1416Zm-4.34-8.4875a1.2949,1.2949,0,0,1-.89-.3624,1.2528,1.2528,0,0,1,1.7684-1.7751,1.24,1.24,0,0,1,0,1.7609A1.2211,1.2211,0,0,1,10.6211,42.6541Zm.79,4.95a1.2529,1.2529,0,1,1-1.781,0A1.2652,1.2652,0,0,1,11.4113,47.6039Zm-4.327-1.4a1.2914,1.2914,0,0,1-.89-.3629,1.2528,1.2528,0,0,1,1.7684-1.775,1.2425,1.2425,0,0,1,.0126,1.763A1.2743,1.2743,0,0,1,7.0843,46.2042Z" transform="translate(0.002 -0.0027)"/></svg>