<svg width="24" height="20" id="email" xmlns="http://www.w3.org/2000/svg" viewBox="0 0 23.983 19.0174"><defs><style>.cls-1{fill:#4caac9;fill-rule:evenodd;}</style></defs><title>email</title><path class="cls-1" d="M21.6094.0015H2.3734A2.3784,2.3784,0,0,0,0,2.3793V16.6421a2.3775,2.3775,0,0,0,2.3733,2.3768H21.61a2.3772,2.3772,0,0,0,2.373-2.3768V2.3793A2.3793,2.3793,0,0,0,21.6094.0015Zm1.3734,16.64a1.3778,1.3778,0,0,1-1.3738,1.3764H2.3734A1.3776,1.3776,0,0,1,1,16.6415V2.3793A1.378,1.378,0,0,1,2.3734,1.0025H21.61A1.378,1.378,0,0,1,22.984,2.3793l-.0012,14.2622Zm-7.52-7.3077L20.384,4.405a.5.5,0,0,0-.7052-.7076L11.9911,11.396l-7.5367-7.55a.5.5,0,0,0-.7064.7082L8.649,9.462,3.8278,14.2905a.5.5,0,1,0,.7067.7062l4.82-4.8274,2.2839,2.2876a.5.5,0,0,0,.7068,0l2.4119-2.4153,4.947,4.9551a.5.5,0,1,0,.7068-.7062Z" transform="translate(-0.0001 -0.0015)"/></svg>