<svg id="exchange" width="78" height="78" xmlns="http://www.w3.org/2000/svg" viewBox="0 0 77.9999 78.0002"><defs><style>.cls-1{fill:#fff;fill-rule:evenodd;}</style></defs><title>exchange</title><path class="cls-1" d="M69.4909,0a8.5078,8.5078,0,0,0-7.4795,12.565L48.072,26.5038a11.2713,11.2713,0,0,0-13.891-.0013L23.305,15.6268a5.5994,5.5994,0,0,0,.804-2.8636,5.6727,5.6727,0,1,0-5.6727,5.6729,5.6,5.6,0,0,0,2.8633-.804L32.1757,28.5079a11.273,11.273,0,0,0,0,13.8913L14.2158,60.36a8.423,8.423,0,1,0,1.7727,2.2379L34.1824,44.4041A11.28,11.28,0,0,0,39.71,46.7V61.1092a8.5091,8.5091,0,1,0,2.8364,0V46.7a11.28,11.28,0,0,0,5.5281-2.2962L58.9509,55.28a5.5954,5.5954,0,0,0-.8055,2.8649,5.6728,5.6728,0,1,0,5.6727-5.6729,5.6006,5.6006,0,0,0-2.8633.8039L50.0788,42.4005a11.273,11.273,0,0,0,0-13.8913L63.7855,14.8024A8.5032,8.5032,0,1,0,69.4909,0ZM15.6,12.7632A2.8363,2.8363,0,1,1,18.4363,15.6,2.8392,2.8392,0,0,1,15.6,12.7632ZM8.509,72.3268a5.6726,5.6726,0,1,1,5.6728-5.6724A5.6783,5.6783,0,0,1,8.509,72.3268ZM46.8,69.49a5.6728,5.6728,0,1,1-5.6728-5.6728A5.6786,5.6786,0,0,1,46.8,69.49ZM41.1272,43.963a8.5091,8.5091,0,1,1,8.5091-8.5088A8.5173,8.5173,0,0,1,41.1272,43.963ZM66.6545,58.1452a2.8364,2.8364,0,1,1-2.8364-2.8365A2.8393,2.8393,0,0,1,66.6545,58.1452Zm2.8364-43.964a5.6726,5.6726,0,1,1,5.6727-5.6728A5.6783,5.6783,0,0,1,69.4909,14.1812Z" transform="translate(0 0.0005)"/></svg>