<svg id="search" width="29" height="30" xmlns="http://www.w3.org/2000/svg" viewBox="0 0 28.9784 28.9795"><defs><style>.cls-1{fill:#fff;fill-rule:evenodd;}</style></defs><title>search</title><path class="cls-1" d="M28.6989,27.9061l-7.482-7.3631a11.833,11.833,0,0,0,3.163-8.0412A12.0976,12.0976,0,0,0,12.1866.5035,12.096,12.096,0,0,0-.0056,12.5018,12.0963,12.0963,0,0,0,12.1866,24.5a12.267,12.267,0,0,0,7.674-2.6788l7.5109,7.3912a.9486.9486,0,0,0,1.3264,0A.9147.9147,0,0,0,28.6989,27.9061ZM12.1866,22.6542A10.2355,10.2355,0,0,1,1.87,12.5018,10.2353,10.2353,0,0,1,12.1866,2.3494,10.2352,10.2352,0,0,1,22.5029,12.5018,10.2354,10.2354,0,0,1,12.1866,22.6542Z" transform="translate(0.0056 -0.5035)"/></svg>