<svg id="fracns_exchange" width="66" height="67" xmlns="http://www.w3.org/2000/svg" viewBox="0 0 65.7 64.8"><defs><style>.cls-1,.cls-2{fill:#3856a3;}.cls-2{fill-rule:evenodd;}</style></defs><title>francs_exchange</title><path class="cls-1" d="M15.28,37.3c-.25,5.48,3.66,7.87,9,7.87,8,0,8.6-4.88,8.6-6.42,0-3.69-2.64-5.08-5.83-5.93l-5.48-1.35c-1.82-.44-3.4-1.32-3.4-3.44,0-3.33,2.71-4.47,5.64-4.47,3.18,0,6,1.73,6.14,5.17h2.15c0-4.6-3.88-7-8.32-7-6.33,0-7.75,4.13-7.75,6.34,0,3.49,2.42,4.75,5.07,5.41l5,1.23c2.08.51,4.63,1.52,4.63,4.07,0,3.27-3.59,4.57-5.95,4.57-4.1,0-7.44-1.42-7.34-6.05Z" transform="translate(-0.65 -0.6)"/><path class="cls-1" d="M36.26,44.7h2.15V34H49.18V32.16H38.41V24H50.53V22.21H36.26Z" transform="translate(-0.65 -0.6)"/><path class="cls-2" d="M42.79,4.22l.65-1.92a33.34,33.34,0,0,1,3.92,1.62l-.9,1.82A28.64,28.64,0,0,0,42.79,4.22ZM37,2.88l.26-2a32.54,32.54,0,0,1,4.16.82l-.52,2A30.55,30.55,0,0,0,37,2.88Zm-3.94-.26a30.39,30.39,0,0,0-24.78,48L12.8,55.1V46.16h2V57.3l-1,1H2.68v-2h8.45L6.67,51.81A32.4,32.4,0,0,1,33.05.6c.7,0,1.4,0,2.09.07l-.13,2C34.36,2.65,33.71,2.62,33.05,2.62Z" transform="translate(-0.65 -0.6)"/><path class="cls-2" d="M24.21,61.78l-.65,1.92a33.34,33.34,0,0,1-3.92-1.62l.9-1.82A30.16,30.16,0,0,0,24.21,61.78ZM30,63.12l-.26,2a32.54,32.54,0,0,1-4.16-.82l.52-2A30.55,30.55,0,0,0,30,63.12Zm3.94.25A30.38,30.38,0,0,0,58.73,15.43L54.2,10.9v8.94h-2V8.7l1-1H64.32v2H55.87l4.46,4.48A32.4,32.4,0,0,1,34,65.4c-.7,0-1.4,0-2.09-.07l.13-2C32.64,63.35,33.29,63.37,34,63.37Z" transform="translate(-0.65 -0.6)"/></svg>