<svg id="grow" width="76" height="76" xmlns="http://www.w3.org/2000/svg" viewBox="0 0 76.0007 76.0009"><defs><style>.cls-1{fill:#fff;fill-rule:evenodd;}</style></defs><title>grow</title><path class="cls-1" d="M69.6207,12.7587a6.35,6.35,0,0,1-3.23-.8816L44.2962,34.015a6.38,6.38,0,1,1-11.0178-.0188L28.5526,29.288a6.3616,6.3616,0,0,1-6.41.0072L11.8963,39.5412a6.3871,6.3871,0,1,1-2.3181-2.3178L19.8245,26.977a6.3795,6.3795,0,1,1,11.0414-.0117l4.74,4.7221a6.3649,6.3649,0,0,1,6.3713.0112L64.0847,9.5468a6.3787,6.3787,0,1,1,5.536,3.2119ZM6.3794,39.6389A3.1015,3.1015,0,1,0,9.4809,42.74,3.0993,3.0993,0,0,0,6.3794,39.6389ZM25.3416,20.6767a3.1015,3.1015,0,1,0,3.1016,3.1013A3.0993,3.0993,0,0,0,25.3416,20.6767Zm13.44,13.44a3.1015,3.1015,0,1,0,3.1015,3.1012A3.0992,3.0992,0,0,0,38.7816,34.1168ZM69.6207,3.2779a3.1015,3.1015,0,1,0,3.1016,3.1012A3.0994,3.0994,0,0,0,69.6207,3.2779ZM4.74,55.3986H8.0183V72.7221H23.7027v-31.57h3.2781v31.57H37.95V50.6581h3.2781v22.064H67.9815V26.93H71.26V72.7221h4.69V76H.05V72.7221H4.74Z" transform="translate(0.0003 0.0005)"/></svg>