<svg id="increase" width="76" height="76" xmlns="http://www.w3.org/2000/svg" viewBox="0 0 76.0007 76.001"><defs><style>.cls-1{fill:#fff;fill-rule:evenodd;}</style></defs><title>increase</title><path class="cls-1" d="M69.6207,12.758a6.35,6.35,0,0,1-3.23-.8813L44.2962,34.0145a6.38,6.38,0,1,1-11.0178-.0191l-4.7258-4.708a6.36,6.36,0,0,1-6.41.0071L11.8963,39.5406a6.3888,6.3888,0,1,1-2.3181-2.3175L19.8245,26.9766a6.38,6.38,0,1,1,11.0414-.012l4.74,4.7222a6.3645,6.3645,0,0,1,6.3713.0115l22.108-22.152a6.3787,6.3787,0,1,1,5.536,3.2117ZM6.3794,39.6384A3.1015,3.1015,0,1,0,9.4809,42.74,3.0994,3.0994,0,0,0,6.3794,39.6384ZM25.3416,20.6759a3.1017,3.1017,0,1,0,3.1016,3.1019A3.1,3.1,0,0,0,25.3416,20.6759Zm13.44,13.44a3.1015,3.1015,0,1,0,3.1015,3.1015A3.0993,3.0993,0,0,0,38.7816,34.1163ZM69.6207,3.2776a3.1012,3.1012,0,1,0,3.1016,3.101A3.0994,3.0994,0,0,0,69.6207,3.2776ZM4.74,55.3978H8.0183v17.324H23.7027v-31.57h3.2781v31.57H37.95V50.6578h3.2781v22.064H67.9815V26.9294H71.26V72.7218h4.69V76H.05V72.7218H4.74Z" transform="translate(0.0003 0.0008)"/></svg>