<svg id="legal" width="78" height="73" xmlns="http://www.w3.org/2000/svg" viewBox="0 0 77.9839 72.9795"><defs><style>.cls-1{fill:#1e7bb8;fill-rule:evenodd;}</style></defs><title>legal</title><path class="cls-1" d="M77.7063,32.4253,65.05,5.465a1.4392,1.4392,0,0,0-.38-.4866,1.3464,1.3464,0,0,0-.9009-.34H45.012a5.9464,5.9464,0,0,0-11.5927,0H14.61a1.38,1.38,0,0,0-1.2979.9173,1.3667,1.3667,0,0,0-.3721.4719L.2837,32.9877a2.2046,2.2046,0,0,0-.2806.9776c0,8.5981,6.6262,15.5915,14.77,15.5915s14.77-6.9934,14.77-15.5915a2.0794,2.0794,0,0,0-.3923-1.235l-13-25.3209h17.268a5.9953,5.9953,0,0,0,4.3858,4.4416V63.7617H24.6229a1.3837,1.3837,0,0,0-1.3847,1.3853v6.467a1.3842,1.3842,0,0,0,1.3847,1.3849H53.9266a1.3843,1.3843,0,0,0,1.3847-1.3849V65.147a1.3838,1.3838,0,0,0-1.3847-1.3853H40.5745V11.8653a5.9963,5.9963,0,0,0,4.4384-4.4559H61.535L48.8392,32.1679a2.0793,2.0793,0,0,0-.3923,1.2341c0,8.598,6.6262,15.5924,14.77,15.5924S77.987,42,77.987,33.402A2.2024,2.2024,0,0,0,77.7063,32.4253ZM14.7731,46.7848c-6.1785,0-11.2824-5.0153-11.9314-11.435H26.7045C26.0556,41.77,20.9516,46.7848,14.7731,46.7848ZM25.9808,32.58,3.379,32.8712,14.26,9.8217Zm26.5611,33.952v3.6949H26.0075V66.5315ZM42.3829,6.29a3.2335,3.2335,0,1,1,0-.5339,1.3429,1.3429,0,0,0,0,.5339ZM63.7311,9.2592l10.8809,23.05L52.01,32.0171Zm-.5142,36.9632c-6.1785,0-11.2824-5.0145-11.9314-11.4346H75.1483C74.4993,41.2071,69.3954,46.2224,63.2169,46.2224Z" transform="translate(-0.0031 -0.0194)"/></svg>