<svg width="48" height="48" id="location" data-name="location" xmlns="http://www.w3.org/2000/svg" viewBox="0 0 48.0013 48.001"><defs><style>.cls-1{fill:#5cdeff;fill-rule:evenodd;}</style></defs><title>location</title><path class="cls-1" d="M35.0407,38.083l-.64.843-.64-.8464c-.5272-.6967-12.9594-17.2258-12.9594-24.48a13.5993,13.5993,0,1,1,27.1985,0C48,20.8538,35.5679,37.3829,35.0407,38.083Zm-.64-36.484a12.0135,12.0135,0,0,0-11.9993,12c0,5.8352,9.4307,19.14,11.9993,22.654C36.9693,32.74,46.4,19.4345,46.4,13.5993A12.0136,12.0136,0,0,0,34.4006,1.599Zm0,17.6a5.6,5.6,0,1,1,5.6-5.6A5.6,5.6,0,0,1,34.4006,19.1994Zm0-9.6a4,4,0,1,0,4,4A4,4,0,0,0,34.4006,9.5991ZM24.5348,47.2a.8.8,0,0,1-.8.8H20.7134a.8.8,0,0,1,0-1.6h3.0215A.8.8,0,0,1,24.5348,47.2ZM17.69,48H14.669a.8.8,0,0,1,0-1.6H17.69a.8.8,0,1,1,0,1.6Zm-6.0436,0H8.6245a.8.8,0,0,1,0-1.6h3.0223a.8.8,0,0,1,0,1.6ZM4.8024,7.9192v.88a.8.8,0,1,1-1.6,0v-.88a4.0033,4.0033,0,1,1,1.6,0Zm-.8-6.32a2.4,2.4,0,1,0,2.4,2.4A2.4,2.4,0,0,0,4.0024,1.599Zm0,9.7457a.8.8,0,0,1,.8.8v3.3458a.8.8,0,0,1-1.6,0V12.1447A.8.8,0,0,1,4.0024,11.3447Zm0,6.6914a.8.8,0,0,1,.8.8v3.3456a.8.8,0,0,1-1.6,0V18.8361A.8.8,0,0,1,4.0024,18.0361Zm0,6.6906a.8.8,0,0,1,.8.8v3.3456a.8.8,0,0,1-1.6,0V25.5266A.8.8,0,0,1,4.0024,24.7267Zm0,6.6905a.8.8,0,0,1,.8.8v3.3465a.8.8,0,0,1-1.6,0V32.2172A.8.8,0,0,1,4.0024,31.4172Zm0,6.6921a.8.8,0,0,1,.8.8v3.3449a.8.8,0,1,1-1.6,0V38.9093A.8.8,0,0,1,4.0024,38.1093Zm0,6.6905a.8.8,0,0,1,.8.8v.8h.8a.8.8,0,0,1,0,1.6h-1.6a.8.8,0,0,1-.8-.8V45.6A.8.8,0,0,1,4.0024,44.8Zm22.7547,1.6h3.0223a.8.8,0,0,1,0,1.6H26.7571a.8.8,0,0,1,0-1.6Zm7.6435-3.2a.8.8,0,0,1-.8-.8V40.8a.8.8,0,1,1,1.6,0v1.6A.8.8,0,0,1,34.4006,43.2Zm-1.6,3.2h.8v-.8a.8.8,0,1,1,1.6,0v1.6a.8.8,0,0,1-.8.8h-1.6a.8.8,0,1,1,0-1.6Z" transform="translate(0.0014 0.001)"/></svg>