<svg id="logo-footer" height="55" xmlns="http://www.w3.org/2000/svg" viewBox="0 0 411.1849 62.0246"><title>logo_footer</title><path d="M77.8487,33.7891A4.1631,4.1631,0,0,0,80.02,33.18a4.0469,4.0469,0,0,0,1.573-1.7391l-.5539-1.0855a6.1683,6.1683,0,0,1-1.584,2.3483,2.9139,2.9139,0,0,1-1.8941.8419,1.8144,1.8144,0,0,1-1.44-.6757,2.8312,2.8312,0,0,1-.576-1.8942V20.8068h3.4339V20.541H75.5446l-.0221-4.9625h-.2659a8.6349,8.6349,0,0,1-1.2627,4.9625H72.4431v.2658h1.3292v8.9724a3.9247,3.9247,0,0,0,.576,2.1489,3.8189,3.8189,0,0,0,1.5065,1.3847,4.3153,4.3153,0,0,0,1.9939.4763Z" transform="translate(-3.7 -0.9748)"/><path d="M84.672,33.346V28.5829a13.5165,13.5165,0,0,1,1.0745-4.2868,7.11,7.11,0,0,1,1.85-2.581,3.2268,3.2268,0,0,1,1.9939-.8418,2.2583,2.2583,0,0,1,1.7945.8308,3.3507,3.3507,0,0,1,.7089,2.2486l-.0443,9.3933h1.7723V24.1078a4.5391,4.5391,0,0,0-.4652-2.1157A3.3027,3.3027,0,0,0,92.1047,20.63a3.3531,3.3531,0,0,0-1.7391-.4652,4.1836,4.1836,0,0,0-2.3594.7643,6.6511,6.6511,0,0,0-2.005,2.26,11.78,11.78,0,0,0-1.2849,3.6H84.672V17.7939H82.9V33.346Z" transform="translate(-3.7 -0.9748)"/><path d="M102.6834,33.6561a7.6244,7.6244,0,0,0,2.6363-.4873,8.8144,8.8144,0,0,0,2.5477-1.4844l-.3766-1.3292a9.5889,9.5889,0,0,1-2.4924,2.2929,4.7685,4.7685,0,0,1-2.448.7644,3.8585,3.8585,0,0,1-2.3483-.7865,5.3637,5.3637,0,0,1-1.6948-2.2376,8.8148,8.8148,0,0,1-.6757-3.3341H107.69a7.0947,7.0947,0,0,0,.1772-1.4844,5.5564,5.5564,0,0,0-.7532-2.9575,4.778,4.778,0,0,0-1.9939-1.8388,6.0019,6.0019,0,0,0-2.6806-.6092,6.6371,6.6371,0,0,0-3.0794.7532,6.038,6.038,0,0,0-2.3816,2.2265,6.498,6.498,0,0,0-.9194,3.5114,7.2817,7.2817,0,0,0,.8972,3.6332,6.4872,6.4872,0,0,0,5.7269,3.3674Zm-4.8518-6.8677a8.0786,8.0786,0,0,1,.6757-3.456,5.2659,5.2659,0,0,1,1.7391-2.1711,3.887,3.887,0,0,1,2.2376-.7311,3.4274,3.4274,0,0,1,1.8941.5649,3.9622,3.9622,0,0,1,1.4068,1.6837,6.89,6.89,0,0,1,.3766,4.11Z" transform="translate(-3.7 -0.9748)"/><path d="M126.5059,46.57a20.0112,20.0112,0,0,0,6.403-.931,9.0734,9.0734,0,0,0,4.237-2.736,6.2657,6.2657,0,0,0,1.406-4.313,5.6738,5.6738,0,0,0-1.672-3.838,16.34,16.34,0,0,0-3.914-3.04q-2.28-1.2914-5.852-2.964a49.8657,49.8657,0,0,1-5.757-3.059q-1.881-1.2343-1.919-2.603a2.7876,2.7876,0,0,1,1.596-2.717,9.3687,9.3687,0,0,1,4.332-.855,15.3515,15.3515,0,0,1,5.244,1.14,31.5253,31.5253,0,0,1,6.346,3.344l.304-3.8A37.8784,37.8784,0,0,0,127,18.678a19.55,19.55,0,0,0-8.721,1.71q-3.44,1.71-3.439,4.94a4.2218,4.2218,0,0,0,1.254,2.964,12.6878,12.6878,0,0,0,3.097,2.356q1.8427,1.026,4.921,2.432a50.8642,50.8642,0,0,1,6.156,3.192,6.5649,6.5649,0,0,1,2.85,3.23,4.1522,4.1522,0,0,1-.494,3.857,5.1308,5.1308,0,0,1-2.147,1.71,7.5331,7.5331,0,0,1-3.135.627,14.8545,14.8545,0,0,1-5.434-1.216,29.8792,29.8792,0,0,1-6.46-3.724l-.266,3.8a35.1757,35.1757,0,0,0,11.324,2.014Z" transform="translate(-3.7 -0.9748)"/><path d="M148.1656,55.272a17.8835,17.8835,0,0,0,7.847-1.672,13.18,13.18,0,0,0,5.453-4.693,12.4514,12.4514,0,0,0,1.976-6.973V24.036h-6.08V38.704a10.7533,10.7533,0,0,1-1.501,3.287,7.5491,7.5491,0,0,1-2.071,2.09,3.9145,3.9145,0,0,1-2.09.703,2.987,2.987,0,0,1-2.584-1.748,10.0159,10.0159,0,0,1-1.026-5.016V24.036h-6.08v12.35a13.1131,13.1131,0,0,0,1.045,5.434,8.7,8.7,0,0,0,2.774,3.572,6.2463,6.2463,0,0,0,3.743,1.254,6.9649,6.9649,0,0,0,2.926-.703,9.0333,9.0333,0,0,0,2.812-2.09,9.4016,9.4016,0,0,0,1.976-3.325h.076V47.14a7.3594,7.3594,0,0,1-1.843,5.168,6.2582,6.2582,0,0,1-4.845,2.014q-3.306,0-7.752-3.762l-1.254,3.8a24.6462,24.6462,0,0,0,6.498.912Z" transform="translate(-3.7 -0.9748)"/><path d="M184.1892,23.39a9.903,9.903,0,0,0-5.32,1.71,17.1207,17.1207,0,0,0-4.978,5.168V24.074h-6.08V46h6.08V31.37a17.2911,17.2911,0,0,1,3.686-4.351,6.0808,6.0808,0,0,1,3.648-1.691,2.1806,2.1806,0,0,1,1.919,1.083,6.129,6.129,0,0,1,.703,3.287V46h6.08V29.356a6.2808,6.2808,0,0,0-.836-3.363,5.0994,5.0994,0,0,0-2.147-1.976,6.3092,6.3092,0,0,0-2.755-.627Z" transform="translate(-3.7 -0.9748)"/><path d="M205.621,46.57a15.6376,15.6376,0,0,0,4.902-.798,15.2007,15.2007,0,0,0,4.484-2.356l-1.254-3.8a20.648,20.648,0,0,1-4.522,4.655,7.4034,7.4034,0,0,1-4.18,1.577,4.5957,4.5957,0,0,1-3.173-1.254,8.5042,8.5042,0,0,1-2.204-3.667,19.6607,19.6607,0,0,1-.893-5.833h15.998a10.7476,10.7476,0,0,0,.38-2.812,8.2043,8.2043,0,0,0-1.425-4.864,8.7351,8.7351,0,0,0-3.781-3.021,12.8278,12.8278,0,0,0-5.092-1.007,13.9984,13.9984,0,0,0-5.871,1.273,10.9458,10.9458,0,0,0-4.541,3.8,10.3885,10.3885,0,0,0-1.748,6.061,11.4116,11.4116,0,0,0,1.786,6.384,11.8025,11.8025,0,0,0,4.75,4.199,14.2332,14.2332,0,0,0,6.384,1.463Zm-6.84-12.122a16.1264,16.1264,0,0,1,.931-5.567,8.6257,8.6257,0,0,1,2.28-3.534,4.3619,4.3619,0,0,1,2.869-1.197,3.5775,3.5775,0,0,1,2.318.874,5.9923,5.9923,0,0,1,1.71,2.66,12.8024,12.8024,0,0,1,.646,4.332,13.5867,13.5867,0,0,1-.228,2.432Z" transform="translate(-3.7 -0.9748)"/><path d="M224.2787,46V36.386a17.7721,17.7721,0,0,1,2.964-6.897,5.6823,5.6823,0,0,1,4.598-2.413,7.5421,7.5421,0,0,1,3.192.76l.646-3.8a6.0551,6.0551,0,0,0-2.356-.532,5.9454,5.9454,0,0,0-3.762,1.425,12.5793,12.5793,0,0,0-3.135,3.914,23.0986,23.0986,0,0,0-2.109,5.681h-.038V24.036h-6.08V46Z" transform="translate(-3.7 -0.9748)"/><path d="M241.759,55.31a18.2672,18.2672,0,0,0,7.923-1.634,12.5367,12.5367,0,0,0,5.358-4.674,12.9615,12.9615,0,0,0,1.919-7.068V24.036h-6.08v.988a10.6471,10.6471,0,0,0-5.32-1.52,9.2834,9.2834,0,0,0-5.035,1.444,10.0869,10.0869,0,0,0-3.648,4.123,13.5493,13.5493,0,0,0-1.349,6.175,15.0962,15.0962,0,0,0,1.197,6.422,8.3341,8.3341,0,0,0,3.135,3.724,7.843,7.843,0,0,0,4.142,1.178,7.6738,7.6738,0,0,0,4.009-1.102,7.0735,7.0735,0,0,0,2.793-3.078h.076v3.534a11.4987,11.4987,0,0,1-1.463,6.194,4.78,4.78,0,0,1-4.313,2.318q-3.23,0-8.208-3.61l-1.14,3.8a28.7175,28.7175,0,0,0,6.004.684Zm4.446-10.526a3.3625,3.3625,0,0,1-2.603-1.292,9.0387,9.0387,0,0,1-1.748-3.496,19.1213,19.1213,0,0,1,.076-9.994,9.5973,9.5973,0,0,1,2.071-3.876,4.2967,4.2967,0,0,1,3.268-1.482,6.6173,6.6173,0,0,1,3.61,1.216V40.414a6.9928,6.9928,0,0,1-1.919,3.23,4.0585,4.0585,0,0,1-2.755,1.14Z" transform="translate(-3.7 -0.9748)"/><path d="M267.0287,55.272a17.8838,17.8838,0,0,0,7.847-1.672,13.18,13.18,0,0,0,5.453-4.693,12.4522,12.4522,0,0,0,1.976-6.973V24.036h-6.08V38.704a10.7557,10.7557,0,0,1-1.501,3.287,7.5491,7.5491,0,0,1-2.071,2.09,3.9148,3.9148,0,0,1-2.09.703,2.9869,2.9869,0,0,1-2.584-1.748,10.0159,10.0159,0,0,1-1.026-5.016V24.036h-6.08v12.35a13.1115,13.1115,0,0,0,1.045,5.434,8.6989,8.6989,0,0,0,2.774,3.572,6.2461,6.2461,0,0,0,3.743,1.254,6.9652,6.9652,0,0,0,2.926-.703,9.0345,9.0345,0,0,0,2.812-2.09,9.4031,9.4031,0,0,0,1.976-3.325h.076V47.14a7.3594,7.3594,0,0,1-1.843,5.168,6.2584,6.2584,0,0,1-4.845,2.014q-3.306,0-7.752-3.762l-1.254,3.8a24.6451,24.6451,0,0,0,6.498.912Z" transform="translate(-3.7 -0.9748)"/><path d="M309.8541,46.57a28.9,28.9,0,0,0,10.488-2.128V32.054h-6.08V45.202a10.0154,10.0154,0,0,1-3.572.646,9.9048,9.9048,0,0,1-9.405-6.118,17.8408,17.8408,0,0,1-1.425-7.524,18.1673,18.1673,0,0,1,1.159-6.821,9.785,9.785,0,0,1,3.249-4.389,7.9926,7.9926,0,0,1,4.826-1.52,12.4456,12.4456,0,0,1,5.016,1.197,23.7155,23.7155,0,0,1,5.548,3.591l.19-3.8a29.6625,29.6625,0,0,0-9.69-1.672,21.25,21.25,0,0,0-8.36,1.577,13.3848,13.3848,0,0,0-5.871,4.617,12.1918,12.1918,0,0,0-2.147,7.22,13.8878,13.8878,0,0,0,2.109,7.733,13.44,13.44,0,0,0,5.757,4.94,19.2983,19.2983,0,0,0,8.208,1.691Z" transform="translate(-3.7 -0.9748)"/><path d="M330.1454,46V36.386a17.7706,17.7706,0,0,1,2.964-6.897,5.6822,5.6822,0,0,1,4.598-2.413,7.5424,7.5424,0,0,1,3.192.76l.646-3.8a6.0551,6.0551,0,0,0-2.356-.532,5.9454,5.9454,0,0,0-3.762,1.425,12.5765,12.5765,0,0,0-3.135,3.914,23.0986,23.0986,0,0,0-2.109,5.681h-.038V24.036h-6.08V46Z" transform="translate(-3.7 -0.9748)"/><path d="M353.0977,46.646a13.41,13.41,0,0,0,6.175-1.349,9.5615,9.5615,0,0,0,4.085-3.933,12.51,12.51,0,0,0,1.444-6.194,13.0111,13.0111,0,0,0-1.444-6.327,9.7171,9.7171,0,0,0-4.085-4.028,13.1009,13.1009,0,0,0-6.175-1.387,13.2991,13.2991,0,0,0-6.232,1.387,9.6855,9.6855,0,0,0-4.104,4.028,13.0044,13.0044,0,0,0-1.444,6.327,12.5037,12.5037,0,0,0,1.444,6.194,9.5321,9.5321,0,0,0,4.104,3.933,13.6134,13.6134,0,0,0,6.232,1.349Zm0-.684a4.1887,4.1887,0,0,1-3.268-1.577,10.4329,10.4329,0,0,1-2.071-4.047,18.7689,18.7689,0,0,1-.703-5.168,19.4611,19.4611,0,0,1,.703-5.13,11.5125,11.5125,0,0,1,2.071-4.275,4.09,4.09,0,0,1,3.268-1.691,4.0107,4.0107,0,0,1,3.192,1.71,11.9294,11.9294,0,0,1,2.09,4.294,18.8825,18.8825,0,0,1,.722,5.092,18.4011,18.4011,0,0,1-.722,5.149,10.6292,10.6292,0,0,1-2.09,4.066,4.118,4.118,0,0,1-3.192,1.577Z" transform="translate(-3.7 -0.9748)"/><path d="M374.6433,46.608a7.1757,7.1757,0,0,0,4.788-1.862,12.1324,12.1324,0,0,0,3.382-5.358h.114V46h6.08V24.036h-6.08V36.69a14.608,14.608,0,0,1-1.482,4.465,9.725,9.725,0,0,1-2.451,3.097,4.322,4.322,0,0,1-2.641,1.102,2.2059,2.2059,0,0,1-1.767-.779,3.4553,3.4553,0,0,1-.665-2.299V24.036h-6.08V39.54a7.4863,7.4863,0,0,0,.931,3.838,6.1539,6.1539,0,0,0,2.489,2.413,7.1738,7.1738,0,0,0,3.382.817Z" transform="translate(-3.7 -0.9748)"/><path d="M399.1149,52.422V45.544a10.44,10.44,0,0,0,4.446.988,10.568,10.568,0,0,0,5.681-1.615,11.4441,11.4441,0,0,0,4.123-4.503,13.6574,13.6574,0,0,0,1.52-6.46,12.1962,12.1962,0,0,0-1.2539-5.757,8.7613,8.7613,0,0,0-3.2871-3.572,8.5023,8.5023,0,0,0-4.389-1.197,9.2365,9.2365,0,0,0-3.648.76,9.759,9.759,0,0,0-3.192,2.204V24.036h-6.08V52.422Zm2.964-6.84a7.3772,7.3772,0,0,1-2.964-.684V27.228a8.1847,8.1847,0,0,1,2.261-1.691,5.3464,5.3464,0,0,1,2.375-.589,3.8963,3.8963,0,0,1,2.831,1.235,8.0626,8.0626,0,0,1,1.9,3.401,16.4169,16.4169,0,0,1,.665,4.826,17.5711,17.5711,0,0,1-.836,5.51,9.9522,9.9522,0,0,1-2.432,4.104,5.2513,5.2513,0,0,1-3.8,1.558Z" transform="translate(-3.7 -0.9748)"/><path d="M51.8363,30.9815l6.7128-9.349c2.7,7.1418,2.97,14.435-.0612,21.6369l8.572-5.1649c-.77,17.54-14.5617,25.16-31.213,24.8879H34.913C18.2613,63.2647,4.47,55.6445,3.7,38.1045l8.5683,5.1629c-3.0292-7.2032-2.757-14.4935-.0575-21.6349l6.7132,9.349a28.8119,28.8119,0,0,1,6.61-15.2468l2.5244,10.8468a29.4615,29.4615,0,0,1,6.4045-9.0468V13.8359c-1.1321-.5959-2.03-2.2689-2.3707-4.4045l1.7763,1.9057L31.9455,7.6477a10.5081,10.5081,0,0,1,.9092-4.5632L34.16,5.0815l-.8768-2.7443c1.262-1.8568,2.9868-1.7758,4.1937,0L36.6,5.0815l1.3052-1.997a10.51,10.51,0,0,1,.91,4.5632L36.891,11.3371,38.6656,9.433c.0152-.016-.4666,3.4015-2.369,4.4029v3.6988a29.4645,29.4645,0,0,1,6.4045,9.0464l2.5248-10.8464a28.8181,28.8181,0,0,1,6.61,15.2468ZM18.7279,33.8406,12.7933,25.576C11.401,30.9318,9.0772,47.7353,30.376,58.78,21.1943,49.6517,18.61,40.922,18.7279,33.8406Zm12.15,22.8428c-4.6459-8.3588-6.9754-17.7519-3.9911-27.0631L24.65,20.0117C21.6337,24.8876,14.7282,39.9189,30.8775,56.6834ZM56.9743,46.32c-2.9926,5.2069-8.2259,10.4591-17.0985,14.7608,20.1655-1.25,24.2553-14.6641,25.0778-19.5688ZM13.7786,46.316,5.8067,41.5121c.8218,4.9026,4.9123,18.3054,25.0577,19.5643-8.8673-4.3022-14.0969-9.5535-17.0858-14.76ZM43.8739,29.62c2.984,9.31.6549,18.7039-3.99,27.0618,16.1477-16.764,9.2426-31.7949,6.2265-36.67L43.8739,29.62Zm-3.49,29.16C61.6827,47.7357,59.359,30.9318,57.9666,25.576L52.032,33.8406C52.1492,40.922,49.566,49.6517,40.3839,58.78ZM35.38,19.1789c-12.16,12.1687-8.9745,28.1908,0,41.2975C44.3549,47.37,47.5394,31.3476,35.38,19.1789Z" transform="translate(-3.7 -0.9748)"/></svg>