<svg id="marketing" width="76" height="76" xmlns="http://www.w3.org/2000/svg" viewBox="0 0 76.0001 76.0002"><defs><style>.cls-1{fill:#1e7bb8;fill-rule:evenodd;}</style></defs><title>marketing</title><path class="cls-1" d="M69.8709,60.0637a3.6816,3.6816,0,0,1-3.6775-3.6776v-.478a58.7319,58.7319,0,0,0-12.258-4.8407V66.1927H46.5806v9.8066H6.1289A6.1359,6.1359,0,0,1,0,69.87V15.9347a6.1355,6.1355,0,0,1,6.129-6.129H19.6128V-.0009H47.8064a6.136,6.136,0,0,1,6.129,6.1294V24.931A58.875,58.875,0,0,0,66.1934,20.09v-.4784a3.6812,3.6812,0,0,1,3.6775-3.6772A6.1357,6.1357,0,0,1,76,22.0641V53.9347A6.1356,6.1356,0,0,1,69.8709,60.0637Zm-23.29,3.6772h4.9032V50.47q-2.4228-.5421-4.9032-.8762Zm0-16.6219c.8213.1083,1.6391.2275,2.4515.3666V28.5124c-.8124.14-1.63.2591-2.4515.3662ZM2.4516,69.87a3.6814,3.6814,0,0,0,3.6773,3.6772h38V22.0641h-38a6.1031,6.1031,0,0,1-3.6773-1.2285ZM47.8064,2.4509H22.0644V9.8057h25.742a3.6774,3.6774,0,1,0,0-7.3548ZM51.4838,11a6.0648,6.0648,0,0,1-3.6774,1.2571H6.1289a3.6777,3.6777,0,0,0,0,7.3553H46.5806v6.7924q2.4766-.3387,4.9032-.8754Zm14.71,11.848a61.0589,61.0589,0,0,1-14.71,5.2008V47.95a61.1133,61.1133,0,0,1,14.71,5.2Zm7.355-.7834a3.6817,3.6817,0,0,0-3.6775-3.6777,1.2279,1.2279,0,0,0-1.2259,1.2255V56.3861a1.228,1.228,0,0,0,1.2259,1.2259,3.6816,3.6816,0,0,0,3.6775-3.6773ZM41.6773,41.6768H4.9032V24.5154H41.6773Zm-2.4516-14.71H7.3547V39.2251h31.871ZM7.3547,46.58H4.9032V44.1277H7.3547Zm19.613-2.4522V46.58H9.8064V44.1277Zm0,7.3553H4.9032V49.0312H26.9677Zm0,4.9031H4.9032V53.9347H26.9677Zm1.2258,7.3548a3.6775,3.6775,0,1,1-3.6774,3.6772A3.6817,3.6817,0,0,1,28.1935,63.7409Zm0,4.9031a1.2257,1.2257,0,1,0-1.2258-1.2259A1.2279,1.2279,0,0,0,28.1935,68.644ZM38,63.7409a3.6775,3.6775,0,1,1-3.6775,3.6772A3.6817,3.6817,0,0,1,38,63.7409Zm0,4.9031a1.2257,1.2257,0,1,0-1.2259-1.2259A1.2279,1.2279,0,0,0,38,68.644Z" transform="translate(0.0001 0.0009)"/></svg>