<svg id="mission" width="91" height="90" xmlns="http://www.w3.org/2000/svg" viewBox="0 0 90.5995 88.6901"><defs><style>.cls-1{fill:#fff;}</style></defs><title>mission</title><path class="cls-1" d="M68.8311,43.7784,78.43,30.41c3.8607,10.2128,4.2463,20.6412-.0875,30.94L90.6,53.9634c-1.1009,25.081-20.8221,35.977-44.632,35.5879H44.632C20.8215,89.94,1.1015,79.0444,0,53.9634l12.252,7.3823C7.9206,51.0459,8.31,40.6215,12.17,30.41l9.5994,13.3688c1.0421-8.6687,4.2062-15.1712,9.4523-21.8018l3.61,15.51A42.13,42.13,0,0,1,43.989,24.55V19.2612c-1.6188-.852-2.9026-3.2442-3.39-6.298l2.54,2.7252-2.75-5.2756a15.0237,15.0237,0,0,1,1.3-6.5248l1.8663,2.8556L42.3014,2.8194c1.8045-2.6553,4.2709-2.5392,5.9967,0L47.0443,6.7436,48.9105,3.888a15.0229,15.0229,0,0,1,1.3009,6.5248l-2.7509,5.2756,2.5375-2.7229c.0218-.0229-.6671,4.8637-3.3875,6.2957V24.55a42.131,42.131,0,0,1,9.1579,12.9359l3.61-15.51c5.2455,6.6306,8.41,13.1331,9.4525,21.8018ZM21.4887,47.8662l-8.486-11.8175c-1.9909,7.6584-5.3138,31.6861,25.1418,47.4789C25.0154,70.4752,21.3194,57.9921,21.4887,47.8662ZM38.8616,80.53c-6.6432-11.9524-9.9743-25.3835-5.7069-38.6981L29.9565,28.0922C25.6438,35.0644,15.7694,56.5582,38.8616,80.53ZM76.1779,65.7115C71.8988,73.157,64.4155,80.6665,51.7285,86.818,80.5635,85.03,86.4115,65.85,87.5877,58.8361Zm-61.7663-.0059-11.3992-6.87c1.175,7.01,7.0242,26.1751,35.83,27.9756-12.6794-6.1523-20.1573-13.661-24.4312-21.1061ZM57.4454,41.8317c4.2668,13.3119.9364,26.7453-5.7057,38.6963,23.09-23.9711,13.216-45.4641,8.9033-52.4358l-3.1976,13.74Zm-4.99,41.6959C82.9106,67.7352,79.5877,43.7071,77.5968,36.0487l-8.486,11.8175C69.2784,57.9921,65.5847,70.4752,52.455,83.5276ZM45.3,26.9017c-17.3871,17.4-12.8328,40.31,0,59.0517C58.1332,67.2121,62.6868,44.3014,45.3,26.9017Z" transform="translate(0 -0.8712)"/></svg>