<svg id="network" width="75" height="75" xmlns="http://www.w3.org/2000/svg" viewBox="0 0 75 75"><defs><style>.cls-1{fill:#fff;fill-rule:evenodd;}</style></defs><title>network</title><path class="cls-1" d="M60,29.9992A15,15,0,1,0,46.4216,8.6666L42.4048,7.1841A6.087,6.087,0,0,0,42.5,6.249a6.3038,6.3038,0,1,0-.9552,3.2829l4.01,1.48a14.7284,14.7284,0,0,0,.205,8.6739L32.0123,25.5121a14.9277,14.9277,0,0,0-18.55-7.0329l-3.4576-7.2656A6.2188,6.2188,0,1,0,6.25,12.4989a6.1278,6.1278,0,0,0,1.5026-.2037l3.4534,7.2587a14.9745,14.9745,0,0,0-.8008,25.4011l-2.2863,4.11A6.1922,6.1922,0,0,0,6.25,48.7492a6.3251,6.3251,0,1,0,4.0538,1.5327l2.2913-4.1188a14.8751,14.8751,0,0,0,15.27-1.7792l4.92,5.4126A14.9293,14.9293,0,0,0,28.75,59.9992a15.0957,15.0957,0,0,0,.186,2.2433L23.1476,63.617a6.213,6.213,0,1,0,.6024,2.6321c0-.0689-.019-.1335-.02-.2028l5.7777-1.3689A14.9939,14.9939,0,1,0,56.961,52.9065l7.3426-4.7739a6.3723,6.3723,0,1,0-1.3575-2.0995l-7.36,4.7844A15.0777,15.0777,0,0,0,50,46.3806l6.101-16.9135A14.9423,14.9423,0,0,0,60,29.9992Zm-23.75-20A3.75,3.75,0,1,1,40,6.249a3.7551,3.7551,0,0,1-3.75,3.75ZM2.5,6.249a3.75,3.75,0,1,1,3.75,3.75A3.7544,3.7544,0,0,1,2.5,6.249Zm3.75,52.5A3.75,3.75,0,1,1,10,54.999a3.7551,3.7551,0,0,1-3.75,3.75Zm11.25,11.25a3.75,3.75,0,1,1,3.75-3.75,3.7549,3.7549,0,0,1-3.75,3.75ZM68.75,40A3.75,3.75,0,1,1,65,43.749,3.7547,3.7547,0,0,1,68.75,40Zm-16.1115-14.92a6.2681,6.2681,0,0,1,6.1115-5.08h2.5a6.2677,6.2677,0,0,1,6.1113,5.08,12.4059,12.4059,0,0,1-14.7228,0ZM60,17.499A3.75,3.75,0,1,1,63.75,13.75,3.7547,3.7547,0,0,1,60,17.499ZM60,2.5A12.481,12.481,0,0,1,69.4348,23.173a8.8551,8.8551,0,0,0-4.9775-5.056,6.25,6.25,0,1,0-8.9147,0,8.8551,8.8551,0,0,0-4.9775,5.056A12.481,12.481,0,0,1,60,2.5Zm-53.75,30a12.5,12.5,0,1,1,21.9176,8.1938,8.8573,8.8573,0,0,0-4.984-5.0764,6.2507,6.2507,0,1,0-8.9161,0,8.8539,8.8539,0,0,0-4.9713,5.0365A12.4351,12.4351,0,0,1,6.25,32.499Zm8.7249-1.25a3.75,3.75,0,1,1,3.75,3.75,3.7547,3.7547,0,0,1-3.75-3.75ZM11.3678,42.5626a6.2661,6.2661,0,0,1,6.1071-5.0634h2.5a6.2659,6.2659,0,0,1,6.1139,5.0963,12.4048,12.4048,0,0,1-14.721-.0329Zm25,27.5a6.2657,6.2657,0,0,1,6.1071-5.0635h2.5a6.2655,6.2655,0,0,1,6.1139,5.0964,12.4052,12.4052,0,0,1-14.721-.0329Zm7.3571-7.5637a3.75,3.75,0,1,1,3.75-3.75,3.7549,3.7549,0,0,1-3.75,3.75Zm12.5251-2.5a12.4358,12.4358,0,0,1-3.0824,8.1938,8.8537,8.8537,0,0,0-4.984-5.076,6.2507,6.2507,0,1,0-8.9161,0,8.8522,8.8522,0,0,0-4.9713,5.0357A12.4935,12.4935,0,1,1,56.25,59.9992ZM47.6489,45.5309A14.794,14.794,0,0,0,34.635,48.1144l-4.92-5.4123a14.8921,14.8921,0,0,0,3.2752-14.89l13.7475-5.826a15.0778,15.0778,0,0,0,7.0136,6.6311Z" transform="translate(0 0.0008)"/></svg>