<svg id="operations" width="78" height="78" xmlns="http://www.w3.org/2000/svg" viewBox="0 0 78.0024 77.9995"><defs><style>.cls-1{fill:#1e7bb8;fill-rule:evenodd;}</style></defs><title>operations</title><path class="cls-1" d="M74.8506,28.0918a6.2405,6.2405,0,0,1-8.0739-1.5773L52.8354,33.4858V44.5105l9.1255,4.5642a8.7869,8.7869,0,1,1-1.1293,2.2473l-7.9962-3.9979v8.0295h-12.58V65.545a6.29,6.29,0,1,1-2.516,0V55.3536h-12.58V47.3241l-7.9983,3.997a8.8442,8.8442,0,1,1-1.1287-2.249l9.127-4.5624V33.4854L11.2175,26.5145a6.3717,6.3717,0,1,1,1.1252-2.2511l12.8167,6.408V22.6445h12.58V17.5113a8.806,8.806,0,1,1,2.516,0v5.1332h12.58v8.0286l12.8169-6.41a6.2759,6.2759,0,1,1,9.1983,3.8284Zm-8.8044,31.45a6.29,6.29,0,1,0-2.3024-8.5933A6.2939,6.2939,0,0,0,66.0462,59.5422ZM14.251,50.9489a6.2466,6.2466,0,0,0-3.819-2.93,6.3171,6.3171,0,0,0-1.6381-.2179,6.2929,6.2929,0,1,0,5.4571,3.1481ZM9.9349,21.6678a3.7741,3.7741,0,1,0-.3768,2.8634A3.75,3.75,0,0,0,9.9349,21.6678ZM35.2234,71.7086a3.7741,3.7741,0,1,0,3.774-3.7742A3.7783,3.7783,0,0,0,35.2234,71.7086ZM45.2875,8.8053a6.29,6.29,0,1,0-6.29,6.2906A6.2971,6.2971,0,0,0,45.2875,8.8053ZM50.32,25.16H27.6754V52.8377H50.32Zm24.6547-4.4013a3.7732,3.7732,0,1,0,.3767,2.8625A3.7748,3.7748,0,0,0,74.9742,20.7591ZM32.7075,30.1926h-2.516V27.6762h2.516Zm15.0959,5.0318H30.1915V32.7085H47.8034Zm-12.58,5.0326h5.032V37.7411h7.548V50.3219H30.1915v-7.549h5.0319Zm7.5481,7.5481h2.516V40.257h-2.516Zm-5.0321,0h2.516V42.7729h-2.516Zm-5.0319-2.5159v2.5159h2.5159V45.2892Zm2.5159-17.613h12.58v2.5164h-12.58Zm0-18.8709a3.7741,3.7741,0,1,1,3.774,3.7743A3.7782,3.7782,0,0,1,35.2234,8.8053Zm5.032,0a1.258,1.258,0,1,0-1.258,1.2584A1.2594,1.2594,0,0,0,40.2554,8.8053Zm-29.5629,48.56a3.7759,3.7759,0,1,1,1.3817-5.1583A3.7743,3.7743,0,0,1,10.6925,57.3651Zm-.7987-3.9a1.2573,1.2573,0,1,0-.4594,1.7194A1.26,1.26,0,0,0,9.8938,53.4652Zm61.1827-2.6411a3.7754,3.7754,0,0,1-3.7723,6.541h-.0017a3.7758,3.7758,0,0,1,3.774-6.541ZM68.563,55.1846a1.2582,1.2582,0,1,0-.46-1.7194A1.2562,1.2562,0,0,0,68.563,55.1846Z" transform="translate(0.0038 0.0007)"/></svg>