<svg id="payment" width="92" height="74" xmlns="http://www.w3.org/2000/svg" viewBox="0 0 92.0004 74.0001"><defs><style>.cls-1{fill:#fff;fill-rule:evenodd;}</style></defs><title>payment</title><path class="cls-1" d="M91.7505,45.0691a1.8076,1.8076,0,0,0-.8844-.7568L84.2679,41.64l6.8339-3.9823a1.7832,1.7832,0,0,0,.6487-2.454,1.8112,1.8112,0,0,0-.8844-.7568l-6.5982-2.6724,6.8339-3.9818a1.8107,1.8107,0,0,0-.2538-3.2291L64.872,14.0347,52.0743,8.6536a1.84,1.84,0,0,0-.6525-.1254L30.5757.1341a1.8284,1.8284,0,0,0-1.577.0893L1.0649,15.7569a1.7847,1.7847,0,0,0-.8036,2.4086,1.8044,1.8044,0,0,0,.9849.8738L7.99,21.8019l-6.9246,3.82A1.7835,1.7835,0,0,0,.38,28.0666a1.8032,1.8032,0,0,0,.866.7661L7.99,31.5949,1.1012,35.4158a1.7869,1.7869,0,0,0-.9569,2.3535,1.8052,1.8052,0,0,0,1.1019,1L7.99,41.5142,1.1012,45.335a1.7836,1.7836,0,0,0-.6848,2.4443,1.809,1.809,0,0,0,.8661.7666l23.4382,9.8472a1.79,1.79,0,0,0,.2719.1614l12.8158,5.3807,23.5651,9.9193a1.8306,1.8306,0,0,0,1.6314-.1076L91.1018,57.3882a1.7831,1.7831,0,0,0,.6487-2.454,1.8112,1.8112,0,0,0-.8844-.7568L84.2679,51.505l6.8339-3.9818A1.7835,1.7835,0,0,0,91.7505,45.0691Zm-2.9574-8.8939L61.9355,51.5971,40.328,42.7129V35.398l21.0274,8.8428a1.82,1.82,0,0,0,1.6314-.1077L82.2589,33.076Zm.0725-9.8832-26.93,15.6134L41.1492,33.08,68.2679,18.27ZM23.8324,55.502,2.9705,46.6806l7.4561-4.1571,13.424,5.6813Zm0-9.8655L2.9705,36.8151l7.2636-4.1931,13.6165,5.6818Zm0-9.865L2.9705,26.9679l7.2636-4.1571,13.6165,5.6813ZM3.5479,17.4861,30.0138,2.625l22.3877,9.35L25.5,26.6232ZM38.4625,31.5842a1.7892,1.7892,0,0,0-.7976,1.4887V61.32L26.5137,56.679V29.2534l28.83-16.03,9.8989,3.9707ZM88.7931,55.9057,61.9355,71.31,40.328,62.4256V55.1285l21.0274,8.7534a1.8293,1.8293,0,0,0,1.6314-.1076L82.2589,52.7171Zm-26.8576,5.539L40.328,52.5606V45.2634l21.0455,8.8428a1.8287,1.8287,0,0,0,1.6314-.1076L82.277,42.9415,88.7931,46.04Z" transform="translate(0.0013 0.0033)"/></svg>