<svg id="personal" width="79" height="79" xmlns="http://www.w3.org/2000/svg" viewBox="0 0 79 78.9989"><defs><style>.cls-1{fill:#1e7bb9;fill-rule:evenodd;}</style></defs><title>personal</title><path class="cls-1" d="M76.4516,48.4064H68.8064V44.5818a3.828,3.828,0,0,0-3.8225-3.8236H52.2419A3.8031,3.8031,0,0,0,49.46,41.9754L35.6774,39.6783V36.4838a12.7436,12.7436,0,0,0,6.371-11.0225h1.2742a3.8239,3.8239,0,0,0,0-7.6477h-.6117l.6982-1.6207A10.2948,10.2948,0,0,0,38.2245,2.7455l-3.5563-1.621A13.0615,13.0615,0,0,0,21.632,2.54l-2.01,1.5071.0025.0039a7.93,7.93,0,0,0-5.1133,11.2309l1.2653,2.532H15.29a3.8239,3.8239,0,0,0,0,7.6477h1.2741a12.7436,12.7436,0,0,0,6.371,11.0225v3.1945L7.4527,42.26A8.8932,8.8932,0,0,0,0,51.0614V77.7243a1.2737,1.2737,0,0,0,1.2741,1.2744H76.4516A2.5512,2.5512,0,0,0,79,76.45V50.9552A2.5512,2.5512,0,0,0,76.4516,48.4064ZM66.258,44.5818v3.8246H58.19a8.9288,8.9288,0,0,0-4.1271-5.099H64.9839A1.2757,1.2757,0,0,1,66.258,44.5818Zm-15.29.2488a6.3651,6.3651,0,0,1,4.4979,3.5758H50.9677Zm-6.371-23.1934a1.2759,1.2759,0,0,1-1.2741,1.2744H42.0484V20.3628h1.2742A1.2765,1.2765,0,0,1,44.5967,21.6372ZM16.99,8.9577a5.4178,5.4178,0,0,1,4.62-2.6164,5.9544,5.9544,0,0,1,4.9617,2.655l.4.6,2.12-1.4135-.4-.6006A8.49,8.49,0,0,0,23.886,4.11a10.4676,10.4676,0,0,1,9.7259-.6665l3.5562,1.6207A7.7456,7.7456,0,0,1,41.07,15.1824l-.0853.1989-1.6182-3.2378a1.2755,1.2755,0,0,0-1.9049-.45l-2.0388,1.53a10.1885,10.1885,0,0,1-12.2322.0013l-2.0388-1.53a1.2748,1.2748,0,0,0-1.9049.45L17.52,15.6006l-.7288-1.4582A5.3679,5.3679,0,0,1,16.99,8.9577Zm-1.7,13.9539a1.2744,1.2744,0,0,1,0-2.5488h1.2741v2.5488Zm3.8226,2.55v-7.347l1.73-3.4631.8181.6127a12.7365,12.7365,0,0,0,15.29,0l.8181-.6127,1.73,3.4631v7.347a10.1935,10.1935,0,1,1-20.387,0ZM29.3064,38.2085a12.6867,12.6867,0,0,0,3.8226-.5872V40.23l-3.8226,3.8246L25.4838,40.23V37.6213a12.6867,12.6867,0,0,0,3.8226.5872ZM28.8948,52.23h.8232l2.0794,5.2012-2.491,10.8-2.491-10.8Zm2.8275-5.2857-1.8234,2.7365h-1.185l-1.8246-2.7365.4256-1.2766,1.0907,1.0916a1.2746,1.2746,0,0,0,1.8016-.0013l1.0907-1.0916ZM15.29,76.45V54.78H12.7419V76.45H2.5483V51.0614a6.3545,6.3545,0,0,1,5.3236-6.288l15.9007-2.65L25.3,43.6511l-1.0257,3.0774a1.27,1.27,0,0,0,.1491,1.11L26.6,51.1047l-2.3,5.752a1.2774,1.2774,0,0,0-.0586.7591l3.8226,16.5713a1.275,1.275,0,0,0,2.4846,0l3.8226-16.5713a1.2787,1.2787,0,0,0-.0586-.7591l-2.3-5.752,2.1763-3.266a1.2782,1.2782,0,0,0,.1491-1.11l-1.0257-3.0774,1.5277-1.528L48.4384,44.39c-.0025.065-.0191.1261-.0191.1919v3.8246H40.7742a2.5512,2.5512,0,0,0-2.5485,2.5488V76.45Zm26.7581,0H40.7742V73.9H76.4528v2.55ZM76.4528,71.351H40.7742v-10.34a8.8822,8.8822,0,0,0,6.3709,2.6914H54.79v1.2744a3.8226,3.8226,0,1,0,7.6451,0V63.7028h7.6452a8.889,8.889,0,0,0,6.3722-2.6914ZM57.3387,64.9772V58.6034H59.887v6.3738a1.2742,1.2742,0,1,1-2.5483,0ZM76.4516,54.78a6.3793,6.3793,0,0,1-6.371,6.3729H62.4354V57.3294a1.2745,1.2745,0,0,0-1.2742-1.2753H56.0645A1.2745,1.2745,0,0,0,54.79,57.3294v3.8232H47.1451A6.3792,6.3792,0,0,1,40.7742,54.78V50.9552H76.4516Z" transform="translate(0 0.0002)"/></svg>