<svg id="profile" width="53" height="80" xmlns="http://www.w3.org/2000/svg" viewBox="0 0 52.9999 79.0277"><defs><style>.cls-1{fill:#fff;fill-rule:evenodd;}</style></defs><title>profile</title><path class="cls-1" d="M49.0249,80.0021H3.975A3.9681,3.9681,0,0,1,0,76.0505V10.1932A3.9681,3.9681,0,0,1,3.975,6.2416H20.3811L18.6891,2.88a1.3138,1.3138,0,0,1,.5923-1.7675,1.3309,1.3309,0,0,1,1.7781.5887l2.2843,4.54h6.4687l3.5775-4.74a1.3306,1.3306,0,0,1,1.855-.2637A1.31,1.31,0,0,1,35.51,3.0806L33.125,6.2416h15.9A3.9681,3.9681,0,0,1,53,10.1932V76.0505A3.9681,3.9681,0,0,1,49.0249,80.0021ZM23.85,15.4619a2.65,2.65,0,1,0,2.8144-2.6176l1.02,2.0289a1.3139,1.3139,0,0,1-.5922,1.7675,1.3332,1.3332,0,0,1-1.7782-.59L24.29,14.0128A2.6093,2.6093,0,0,0,23.85,15.4619Zm26.5-5.2687a1.3214,1.3214,0,0,0-1.325-1.317H24.6688l.7235,1.4367A5.264,5.264,0,1,1,21.2,15.4619,5.2209,5.2209,0,0,1,23.0311,11.51l-1.325-2.6341H3.975a1.3223,1.3223,0,0,0-1.325,1.317V76.0505A1.3225,1.3225,0,0,0,3.975,77.368h45.05a1.3216,1.3216,0,0,0,1.325-1.3175ZM46.64,73.4163a1.3173,1.3173,0,1,1,1.325-1.317A1.321,1.321,0,0,1,46.64,73.4163Zm0-46.1a1.3171,1.3171,0,1,1,1.325-1.3167A1.321,1.321,0,0,1,46.64,27.3159Zm-5.2721,29.88-1.1064,1.4624c-.0278.0378-.0623.0694-.0914.1076q-.5129.6664-1.0865,1.2775c-.07.0738-.1365.1534-.2067.2255a17.3329,17.3329,0,0,1-1.272,1.1881c-.0477.0409-.0915.0867-.1392.1263a17.116,17.116,0,0,1-1.42,1.0484c-.2518.1677-.5142.314-.7739.4678-.2517.1485-.5021.3006-.7631.4376-.2915.1525-.59.2908-.89.4264-.253.116-.5074.2254-.7658.3277-.2995.1191-.6016.2308-.909.3321-.2888.0961-.5829.1792-.88.2606-.2863.0783-.5711.1574-.8613.2205-.3644.08-.7354.1366-1.1077.1935-.2358.0355-.4691.0813-.7076.1076a17.5062,17.5062,0,0,1-1.8868.1085,17.847,17.847,0,0,1-1.8867-.1072c-.2385-.0262-.4718-.072-.7076-.1076-.3723-.0569-.7433-.1134-1.1077-.1934-.2915-.0623-.575-.1423-.8613-.2206-.2955-.0813-.59-.1645-.88-.26-.3074-.1014-.6082-.213-.909-.3322-.26-.1023-.5128-.213-.7658-.3277-.3008-.1356-.5989-.2739-.89-.4269-.26-.1365-.51-.2872-.7632-.437-.26-.1539-.5221-.3-.7739-.4678a17.4575,17.4575,0,0,1-1.42-1.0485c-.0477-.0409-.0915-.0854-.1392-.1263a17.1778,17.1778,0,0,1-1.272-1.1881c-.0715-.072-.1377-.15-.2066-.2254q-.5745-.6117-1.0865-1.2775c-.0292-.0383-.0624-.07-.0915-.1076l-1.1064-1.4625.102-.0342A16.9229,16.9229,0,0,1,9.275,48.3905a17.2253,17.2253,0,0,1,34.45,0,16.9148,16.9148,0,0,1-2.4592,8.7708Zm-24.38,2.15c.0637.0551.122.1143.1869.1681.208.1743.4293.3281.6466.49.1776.132.3485.2716.5314.3953.0211.0146.0437.0253.0649.0395A14.6,14.6,0,0,0,34.58,60.44c.0212-.0143.0438-.0249.065-.04.1841-.1236.3537-.2632.5313-.3953.2173-.1605.4385-.3157.6466-.49.0649-.0538.1232-.113.1868-.1681.3127-.27.6187-.5469.91-.8462l-7.693-2.5483,1.28-1.4882A5.1632,5.1632,0,0,0,31.8,51.0606V45.7564a5.3,5.3,0,0,0-10.6,0v5.3042a5.1664,5.1664,0,0,0,1.2919,3.4034L23.77,55.9509l-7.6929,2.5483C16.369,58.7985,16.6751,59.0755,16.9877,59.3454ZM26.5,33.9016A14.5493,14.5493,0,0,0,11.925,48.3905a14.3227,14.3227,0,0,0,2.385,7.9184l5.1144-1.6937a7.7373,7.7373,0,0,1-.8745-3.5546V45.7564a7.95,7.95,0,0,1,15.9,0v5.3042a7.7389,7.7389,0,0,1-.8746,3.5546L38.69,56.3089a14.3332,14.3332,0,0,0,2.3851-7.9184A14.5494,14.5494,0,0,0,26.5,33.9016ZM41.605,27.3159a1.3171,1.3171,0,1,1,1.325-1.3167A1.3209,1.3209,0,0,1,41.605,27.3159Zm-5.035,0a1.3171,1.3171,0,1,1,1.325-1.3167A1.3209,1.3209,0,0,1,36.57,27.3159Zm-5.0351,0a1.3171,1.3171,0,1,1,1.325-1.3167A1.3209,1.3209,0,0,1,31.5349,27.3159Zm-5.035,0a1.3171,1.3171,0,1,1,1.3251-1.3167A1.321,1.321,0,0,1,26.5,27.3159Zm-5.0349,0a1.3171,1.3171,0,1,1,1.325-1.3167A1.3209,1.3209,0,0,1,21.465,27.3159Zm-5.035,0a1.3171,1.3171,0,1,1,1.325-1.3167A1.3209,1.3209,0,0,1,16.43,27.3159Zm-5.0351,0a1.3171,1.3171,0,1,1,1.325-1.3167A1.3209,1.3209,0,0,1,11.3949,27.3159Zm-5.035,46.1a1.3173,1.3173,0,1,1,1.325-1.317A1.321,1.321,0,0,1,6.36,73.4163Zm0-46.1a1.3171,1.3171,0,1,1,1.325-1.3167A1.321,1.321,0,0,1,6.36,27.3159Zm5.035,43.4659a1.3173,1.3173,0,1,1-1.325,1.3175A1.3213,1.3213,0,0,1,11.3949,70.7818Zm5.0351,0a1.3173,1.3173,0,1,1-1.325,1.3175A1.3213,1.3213,0,0,1,16.43,70.7818Zm5.035,0a1.3173,1.3173,0,1,1-1.325,1.3175A1.3214,1.3214,0,0,1,21.465,70.7818Zm5.0349,0a1.3173,1.3173,0,1,1-1.325,1.3175A1.3214,1.3214,0,0,1,26.5,70.7818Zm5.035,0a1.3173,1.3173,0,1,1-1.325,1.3175A1.3213,1.3213,0,0,1,31.5349,70.7818Zm5.0351,0a1.3173,1.3173,0,1,1-1.325,1.3175A1.3213,1.3213,0,0,1,36.57,70.7818Zm5.035,0a1.3173,1.3173,0,1,1-1.325,1.3175A1.3214,1.3214,0,0,1,41.605,70.7818Z" transform="translate(0 -0.9744)"/></svg>