<svg id="relations" width="77" height="77" xmlns="http://www.w3.org/2000/svg" viewBox="0 0 76.9999 77.0003"><defs><style>.cls-1{fill:#1e7bb9;fill-rule:evenodd;}</style></defs><title>relations</title><path class="cls-1" d="M75.7968,76.9994H54.1406a1.202,1.202,0,0,1-1.2032-1.2034V72.1808A4.8171,4.8171,0,0,1,57.75,67.37a1.2749,1.2749,0,0,1,.1288.0069h2.2774v-2.51a9.6252,9.6252,0,0,1-4.8122-8.3151l0-.0057v-.0151c0-.01,0-.02,0-.03V50.5257l0-.0047a8.4329,8.4329,0,0,1,8.4216-8.4126h6.0156a1.2018,1.2018,0,0,1,1.2031,1.2029V45.87a4.8222,4.8222,0,0,1,3.6118,4.6613c0,.016-.0018.0307-.0024.0468v5.9677l0,.0057a9.6254,9.6254,0,0,1-4.8122,8.3151v2.51h2.2775a1.2717,1.2717,0,0,1,.1288-.0069A4.817,4.817,0,0,1,77,72.1808V75.796A1.2019,1.2019,0,0,1,75.7968,76.9994ZM72.1875,56.2283V50.5257l.0009-.02a2.4089,2.4089,0,0,0-2.4072-2.3811,1.2018,1.2018,0,0,1-1.2031-1.203V44.5151H63.7656A6.0222,6.0222,0,0,0,57.75,50.53v5.7a8.5992,8.5992,0,0,0,14.4375-.0017Zm-1.605,4.8411a11.3076,11.3076,0,0,1-11.2278,0,7.21,7.21,0,0,0,11.2278,0Zm-8.02,4.7874v1.5115H67.375V65.8568a9.657,9.657,0,0,1-4.8126,0Zm12.0313,6.324a2.4056,2.4056,0,0,0-2.3364-2.4015c-.0232.0008-.0463.0034-.07.0034H68.5781a1.2778,1.2778,0,0,1-.1365-.0082H61.4958a1.2775,1.2775,0,0,1-.1364.0082H57.75c-.0237,0-.0466-.0026-.07-.0034a2.4056,2.4056,0,0,0-2.3364,2.4015v2.4123h19.25Zm1.2031-33.6816H27.6718a1.2016,1.2016,0,0,1-1.2031-1.2033V31.2805H24.0625v6.0154a1.2032,1.2032,0,1,1-2.4063,0V30.0767a1.2017,1.2017,0,0,1,1.2031-1.2025h6.0156a7.2258,7.2258,0,0,0,7.2188-7.2188,1.2031,1.2031,0,0,0-2.4062,0,4.817,4.817,0,0,1-4.8126,4.8125l-1.1934,0-.01,0-.0131,0-9.114-.0052-.8188.819-.0039.0039-.0276.0273c-.005.0056-.011.0082-.016.013a1.1358,1.1358,0,0,1-.1517.1239c-.0116.0083-.0227.0169-.0345.0243a1.2192,1.2192,0,0,1-.185.0975c-.0142.0056-.0288.01-.0431.0151a1.1182,1.1182,0,0,1-.1575.0464c-.02.0048-.04.0095-.06.013a1.24,1.24,0,0,1-.2.0191h-.0041a1.1946,1.1946,0,0,1-.2065-.02c-.012-.0018-.0238-.0035-.0358-.0065a1.2142,1.2142,0,0,1-.1944-.0572l-.0341-.0147c-.0219-.0091-.0441-.0174-.0655-.0282l-1.87-.9351-1.8675.9342c-.0187.0091-.0379.0165-.0569.0243l-.0477.0208a1.1857,1.1857,0,0,1-.1886.0554c-.0125.0031-.0251.0052-.0378.0074a1.2229,1.2229,0,0,1-.2055.0191h-.004a1.2408,1.2408,0,0,1-.2-.0191c-.02-.0035-.04-.0082-.06-.013a1.0975,1.0975,0,0,1-.1565-.0464c-.0148-.0052-.03-.01-.0444-.0151a1.2915,1.2915,0,0,1-.1837-.0966l-.0371-.0265a1.1111,1.1111,0,0,1-.1465-.12.1816.1816,0,0,1-.0194-.0156l-.8424-.842H6.0156l-.0232-.0013a3.6132,3.6132,0,0,0-3.5862,3.6075v7.2192a1.2031,1.2031,0,1,1-2.4062,0V30.0767a6.0225,6.0225,0,0,1,6.0156-6.0146c.0157,0,.031.0013.0466.0017H9.625v-1.306a9.6259,9.6259,0,0,1-4.8123-8.3151l0-.0061V12.036c-.0409-.0056-.0815-.0117-.1223-.0177l-.0263-.0035c-.013-.0026-.0256-.0039-.0388-.0061l-.0022,0a1.07,1.07,0,0,1-.1178-.0247l-.0008,0c-.0386-.01-.0764-.0226-.1134-.036l-.0025-.0009a1.1091,1.1091,0,0,1-.1044-.045l-.0064-.0031c-.0323-.016-.0638-.0338-.0944-.0524l-.01-.0056c-.0293-.0187-.0576-.0386-.0851-.059l-.0114-.0086c-.0266-.0208-.0522-.0421-.077-.0655l-.0115-.01c-.0242-.0234-.0472-.0468-.07-.0711l-.0108-.0121c-.0217-.0247-.0422-.0507-.0618-.0772l-.01-.0134c-.0189-.026-.0364-.0537-.0531-.081l-.01-.0169c-.0156-.0269-.03-.0542-.0434-.0819l-.0107-.0221c-.0121-.0265-.023-.0538-.0332-.0819l-.0108-.0291c-.0087-.0255-.0163-.0515-.0233-.0775l-.01-.0377c-.0057-.0243-.01-.0494-.0147-.075L3.62,10.977c-.0032-.0252-.0054-.0507-.007-.0754l-.0022-.0434c0-.0125-.0019-.0242-.0019-.0368v-.5967A10.2194,10.2194,0,0,1,21.2564,3.2a1.1827,1.1827,0,0,1,.1284.1348,10.1844,10.1844,0,0,1,2.6777,6.89v4.2119l0,.0061A9.6255,9.6255,0,0,1,19.25,22.7578v1.2987l7.2187.0043V1.2024A1.2019,1.2019,0,0,1,27.6718-.0009h48.125A1.2019,1.2019,0,0,1,77,1.2024V37.2959A1.2016,1.2016,0,0,1,75.7968,38.4992ZM12.0312,24.7606l.2366.2366,1.63-.8155A1.2049,1.2049,0,0,1,14.51,24.06l.0192.0017a.8167.8167,0,0,1,.091.01l.0374.0065c.0246.0043.049.0095.0732.0152l.048.0138c.0209.0061.0417.0126.0623.02.0176.0065.0351.013.0526.02s.0371.0156.0553.0247a.2636.2636,0,0,1,.0277.0117l1.63.8147.2373-.2375V23.748a9.672,9.672,0,0,1-4.8125,0ZM13.8347,2.4049A7.8283,7.8283,0,0,0,6.0293,9.7771a17.5226,17.5226,0,0,0,9.6788-1.2579c.5252-.2089,1.0188-.3948,1.4948-.5348l1.7853-3.6338A7.7838,7.7838,0,0,0,13.8347,2.4049Zm6.8224,4.0044-.7257,1.4768a4.9636,4.9636,0,0,1,1.5784.8358A7.7628,7.7628,0,0,0,20.6571,6.4093Zm.9991,8.0213V12.286c-2.1233-2.6944-2.7921-2.43-5.0628-1.5313a19.4174,19.4174,0,0,1-9.3747,1.5487v2.1272a7.2188,7.2188,0,0,0,14.4375,0ZM74.5937,2.4049H28.8749V24.0621h0a2.4091,2.4091,0,0,0,2.4062-2.4067,1.2258,1.2258,0,0,1,.0063-.1235,3.6051,3.6051,0,0,1,7.2062,0,1.2259,1.2259,0,0,1,.0062.1235,9.6362,9.6362,0,0,1-9.625,9.6251V36.093H74.5937ZM42.1093,26.4679h19.25a1.2032,1.2032,0,0,1,0,2.4063h-19.25a1.2032,1.2032,0,0,1,0-2.4063Zm4.8125,3.6088h9.625a1.2034,1.2034,0,0,1,0,2.4067h-9.625a1.2034,1.2034,0,0,1,0-2.4067Zm11.6171-8.8351c-.0087.0087-.0192.0143-.0282.0225a9.6394,9.6394,0,1,1,.0507-.0507C58.5532,21.223,58.5475,21.2325,58.5389,21.2416ZM50.5312,7.32a7.2178,7.2178,0,1,0,5.3828,12.998L53.2865,17.69a3.6054,3.6054,0,1,1-2.7553-6.6525Zm1.2031,5.914a1.203,1.203,0,1,0,1.2031,1.2029A1.2035,1.2035,0,0,0,51.7343,13.2337ZM52.9374,7.32v3.7179a3.5935,3.5935,0,0,1,2.05,4.9512l2.6272,2.6277A7.2122,7.2122,0,0,0,52.9374,7.32ZM4.8124,37.2959V31.2805a1.2032,1.2032,0,1,1,2.4063,0v6.0154a1.2032,1.2032,0,1,1-2.4063,0Zm0,30.0737a1.2753,1.2753,0,0,1,.1289.0069H7.2187v-2.51a9.625,9.625,0,0,1-4.8122-8.3151l0-.0057v-.0151c0-.01,0-.02,0-.03V51.7291a9.625,9.625,0,0,1,19.25,0v4.8168l0,.0057a9.625,9.625,0,0,1-4.8122,8.3151v2.51h2.2774A1.2753,1.2753,0,0,1,19.25,67.37a4.8171,4.8171,0,0,1,4.8125,4.8112V75.796a1.2019,1.2019,0,0,1-1.2032,1.2034H1.2031A1.2019,1.2019,0,0,1,0,75.796V72.1808A4.817,4.817,0,0,1,4.8124,67.37ZM19.25,56.2283V51.7291a7.2188,7.2188,0,0,0-14.4376,0V56.23a8.3354,8.3354,0,0,0,7.2188,3.9255A8.3761,8.3761,0,0,0,19.25,56.2283Zm-1.6049,4.8411a10.7945,10.7945,0,0,1-5.6139,1.492,10.7951,10.7951,0,0,1-5.614-1.492,7.21,7.21,0,0,0,11.2279,0Zm-8.02,4.7874v1.5115h4.8124V65.8568a9.6562,9.6562,0,0,1-4.8124,0ZM2.4062,74.5931h19.25V72.1808A2.4056,2.4056,0,0,0,19.32,69.7793c-.0233.0008-.0463.0034-.07.0034H15.6406a1.2828,1.2828,0,0,1-.1366-.0082H8.5584a1.2828,1.2828,0,0,1-.1366.0082H4.8124c-.0236,0-.0466-.0026-.07-.0034a2.4056,2.4056,0,0,0-2.3363,2.4015ZM38.5,40.9562A12.0444,12.0444,0,0,1,50.5312,52.9875V64.9681a1.2015,1.2015,0,0,1-1.2031,1.2029H43.25a1.2006,1.2006,0,0,1,.063.3822v.8233H45.59a1.2733,1.2733,0,0,1,.1288-.0069,4.8171,4.8171,0,0,1,4.8125,4.8112V75.796a1.2019,1.2019,0,0,1-1.2031,1.2034H27.6718a1.202,1.202,0,0,1-1.2031-1.2034V72.1808A4.817,4.817,0,0,1,31.2812,67.37a1.2733,1.2733,0,0,1,.1288.0069h2.2775v-.8233a1.1978,1.1978,0,0,1,.0629-.3822H27.6718a1.2015,1.2015,0,0,1-1.2031-1.2029V52.9875A12.0444,12.0444,0,0,1,38.5,40.9562ZM31.2812,69.7827c-.0236,0-.0467-.0026-.07-.0034a2.4056,2.4056,0,0,0-2.3364,2.4015v2.4123h19.25V72.1808a2.4056,2.4056,0,0,0-2.3364-2.4015c-.0233.0008-.0463.0034-.07.0034H42.2774L38.8813,70.915l-.0035.0009a1.1192,1.1192,0,0,1-.1648.04l-.0248.0061a1.166,1.166,0,0,1-.5679-.0473H38.12l-3.3961-1.1323Zm9.6879-3.6117H36.0308a1.2005,1.2005,0,0,1,.0629.3822v1.15l2.4068.8029,2.4057-.8025v-1.15A1.2005,1.2005,0,0,1,40.9691,66.171ZM28.8749,63.7647h19.25V52.9875a9.6251,9.6251,0,1,0-19.25,0Z" transform="translate(0 0.0009)"/></svg>