<svg id="resources" width="76" height="75" xmlns="http://www.w3.org/2000/svg" viewBox="0 0 75.9999 75"><defs><style>.cls-1{fill:#fff;fill-rule:evenodd;}</style></defs><title>resources</title><path class="cls-1" d="M73.4666,66.1015V40.6776H76V66.1015ZM70.9332,30.5082H57.38L50.1024,35.38a1.2659,1.2659,0,0,1-1.9692-1.0578V30.5082H46.8666A5.0758,5.0758,0,0,1,41.8,25.4235V5.0843A5.0761,5.0761,0,0,1,46.8666,0H70.9332A5.0761,5.0761,0,0,1,76,5.0843V25.4235A5.0758,5.0758,0,0,1,70.9332,30.5082ZM73.4666,5.0843A2.5375,2.5375,0,0,0,70.9332,2.542H46.8666a2.5374,2.5374,0,0,0-2.5333,2.5423V25.4235a2.5375,2.5375,0,0,0,2.5333,2.5424H49.4a1.2692,1.2692,0,0,1,1.2667,1.2711v2.7087l5.6308-3.7665A1.2644,1.2644,0,0,1,57,27.9659H70.9332a2.5376,2.5376,0,0,0,2.5334-2.5424ZM48.1332,21.61H69.6666v2.5424H48.1332Zm0-5.0847H69.6666v2.5424H48.1332Zm0-5.0847H69.6666V13.983H48.1332ZM53.2,6.3555H69.6666V8.8983H53.2Zm-5.0667,0h2.5334V8.8983H48.1332ZM38,68.6438H12.6666A1.27,1.27,0,0,1,11.4,67.3726V58.4744a1.2692,1.2692,0,0,1,1.2667-1.2711H38a1.2692,1.2692,0,0,1,1.2667,1.2711v8.8982A1.27,1.27,0,0,1,38,68.6438Zm-1.2666-8.8982h-22.8v6.3559h22.8Zm-15.2-10.17H39.2666v2.5428H21.5333ZM38,45.7623H12.6666A1.2693,1.2693,0,0,1,11.4,44.4911V24.1524a1.2692,1.2692,0,0,1,1.2667-1.2712H38a1.2692,1.2692,0,0,1,1.2667,1.2712V44.4911A1.2692,1.2692,0,0,1,38,45.7623ZM36.7333,25.4235h-22.8V43.22h22.8ZM20.867,29.4266A1.2641,1.2641,0,0,1,22.1,29.37l7.6,3.8135a1.2743,1.2743,0,0,1,0,2.2761l-7.6,3.8135a1.2675,1.2675,0,0,1-1.8333-1.1381v-7.627A1.2725,1.2725,0,0,1,20.867,29.4266ZM22.8,36.0788l3.5014-1.7571L22.8,32.5647ZM19,48.3051V53.39H16.4666V52.1186H11.4V49.5758h5.0667V48.3051ZM50.6666,67.3726A1.27,1.27,0,0,1,49.4,68.6438H44.3333a1.27,1.27,0,0,1-1.2668-1.2712V62.288a1.2693,1.2693,0,0,1,1.2668-1.2712H49.4a1.2692,1.2692,0,0,1,1.2667,1.2712Zm-2.5334-3.8135H45.6v2.5424h2.5332ZM49.4,45.7623H44.3333a1.2694,1.2694,0,0,1-1.2668-1.2712V39.4064a1.27,1.27,0,0,1,1.2668-1.2712H49.4a1.27,1.27,0,0,1,1.2667,1.2712v5.0847A1.2693,1.2693,0,0,1,49.4,45.7623Zm-1.2667-5.0847H45.6V43.22h2.5332Zm2.5334,15.2545A1.27,1.27,0,0,1,49.4,57.2033H44.3333a1.27,1.27,0,0,1-1.2668-1.2712V50.8474a1.27,1.27,0,0,1,1.2668-1.2716H49.4a1.27,1.27,0,0,1,1.2667,1.2716Zm-2.5334-3.8135H45.6v2.5423h2.5332ZM64.6,68.6438H53.2V66.1015H64.6Zm0-5.0847H53.2V61.0168H64.6Zm0-6.3558H53.2V54.6609H64.6Zm0-5.0847H53.2V49.5758H64.6ZM53.2,38.1352H64.6v2.5424H53.2Zm11.4,7.6271H53.2V43.22H64.6ZM12.6666,11.4406V13.983H10.1332V11.4406Zm5.0667,0V13.983H15.2V11.4406Zm5.0667,0V13.983H20.2666V11.4406ZM7.6,69.915a2.5375,2.5375,0,0,0,2.5333,2.5423H65.8665A2.5374,2.5374,0,0,0,68.4,69.915V33.0506h2.5333V69.915A5.0759,5.0759,0,0,1,65.8665,75H10.1332A5.0759,5.0759,0,0,1,5.0666,69.915V11.4406a5.0762,5.0762,0,0,1,5.0666-5.0851H39.2666V8.8983H10.1332A2.5372,2.5372,0,0,0,7.6,11.4406v5.0847H39.2666v2.5424H7.6ZM0,52.1186H2.5332v2.5423H0ZM0,13.983H2.5332V49.5758H0Z" transform="translate(0 0.0003)"/></svg>