<svg id="reviews" width="79" height="79" xmlns="http://www.w3.org/2000/svg" viewBox="0 0 79 79.0002"><defs><style>.cls-1{fill:#fff;fill-rule:evenodd;}</style></defs><title>reviews</title><path class="cls-1" d="M63.2,31.6A15.8,15.8,0,1,0,48.8974,9.13l-4.231-1.562a6.3913,6.3913,0,0,0,.1-.9845,6.64,6.64,0,1,0-1.0061,3.4576l4.2239,1.5585A15.5125,15.5125,0,0,0,48.2,20.7359L33.72,26.873A15.7224,15.7224,0,0,0,14.18,19.4655l-3.642-7.6538a6.55,6.55,0,1,0-3.9551,1.3545,6.47,6.47,0,0,0,1.5828-.2148l3.6376,7.6458A15.7735,15.7735,0,0,0,10.96,47.3536L8.5519,51.6822A6.5307,6.5307,0,0,0,6.5833,51.35a6.6615,6.6615,0,1,0,4.27,1.6141l2.4135-4.338a15.6671,15.6671,0,0,0,16.0842-1.8742l5.1824,5.7013A15.7246,15.7246,0,0,0,30.2833,63.2a15.8942,15.8942,0,0,0,.196,2.3629L24.3821,67.01a6.545,6.545,0,1,0,.6345,2.7728c0-.072-.02-.1405-.0212-.213l6.0858-1.4428A15.7934,15.7934,0,1,0,59.999,55.729L67.733,50.7a6.71,6.71,0,1,0-1.43-2.2112l-7.752,5.04a15.8851,15.8851,0,0,0-5.8845-4.6737l6.4265-17.8158A15.7473,15.7473,0,0,0,63.2,31.6ZM38.1833,10.5329a3.95,3.95,0,1,1,3.95-3.95,3.9553,3.9553,0,0,1-3.95,3.95Zm-35.55-3.95a3.95,3.95,0,1,1,3.95,3.95,3.9552,3.9552,0,0,1-3.95-3.95Zm3.95,55.3a3.95,3.95,0,1,1,3.95-3.95,3.9555,3.9555,0,0,1-3.95,3.95Zm11.85,11.85a3.95,3.95,0,1,1,3.95-3.95,3.9552,3.9552,0,0,1-3.95,3.95Zm53.9834-31.6a3.95,3.95,0,1,1-3.95,3.95,3.9551,3.9551,0,0,1,3.95-3.95ZM55.446,26.4167a6.6026,6.6026,0,0,1,6.4373-5.35h2.6333a6.6026,6.6026,0,0,1,6.4373,5.35,13.0652,13.0652,0,0,1-15.5079,0ZM63.2,18.4326a3.95,3.95,0,1,1,3.95-3.95,3.9548,3.9548,0,0,1-3.95,3.95Zm0-15.8a13.1468,13.1468,0,0,1,9.938,21.7763,9.3265,9.3265,0,0,0-5.243-5.3255,6.5834,6.5834,0,1,0-9.39,0,9.3265,9.3265,0,0,0-5.243,5.3255A13.1468,13.1468,0,0,1,63.2,2.6328Zm-56.6167,31.6A13.1667,13.1667,0,1,1,29.67,42.8639a9.3274,9.3274,0,0,0-5.25-5.3473,6.5839,6.5839,0,1,0-9.3916,0A9.3254,9.3254,0,0,0,9.792,42.8212a13.0964,13.0964,0,0,1-3.2087-8.5884Zm9.19-1.3166a3.95,3.95,0,1,1,3.95,3.95,3.9549,3.9549,0,0,1-3.95-3.95ZM11.9741,44.8333A6.6,6.6,0,0,1,18.407,39.5H21.04a6.6,6.6,0,0,1,6.44,5.3683,13.0667,13.0667,0,0,1-15.5062-.0347ZM38.3074,73.8A6.6,6.6,0,0,1,44.74,68.4665h2.6333a6.6,6.6,0,0,1,6.44,5.3682A13.0669,13.0669,0,0,1,38.3074,73.8Zm7.7495-7.9673a3.95,3.95,0,1,1,3.95-3.95,3.955,3.955,0,0,1-3.95,3.95ZM59.25,63.2a13.1,13.1,0,0,1-3.2467,8.6311,9.3274,9.3274,0,0,0-5.25-5.3474,6.584,6.584,0,1,0-9.3917,0,9.3256,9.3256,0,0,0-5.2364,5.3047A13.16,13.16,0,1,1,59.25,63.2ZM50.19,47.96a15.5823,15.5823,0,0,0-13.7081,2.7208L31.3,44.98a15.6854,15.6854,0,0,0,3.45-15.6829L49.23,23.16a15.8882,15.8882,0,0,0,7.3876,6.985Z" transform="translate(0 0.0004)"/></svg>