<?xml version="1.0" encoding="utf-8"?>
<!-- Generator: Adobe Illustrator 22.1.0, SVG Export Plug-In . SVG Version: 6.00 Build 0)  -->
<svg width="74" height="81" version="1.1" id="sales" xmlns="http://www.w3.org/2000/svg" xmlns:xlink="http://www.w3.org/1999/xlink" x="0px" y="0px"
	 viewBox="0 0 74 81" style="enable-background:new 0 0 74 81;" xml:space="preserve">
<style type="text/css">
	.st0{fill-rule:evenodd;clip-rule:evenodd;fill:#1E7BB9;}
</style>
<path class="st0" d="M72.7,4h-0.8l1.7-1.8c0.5-0.5,0.5-1.3,0-1.9c-0.5-0.5-1.3-0.5-1.9,0L70,2.2V1.3C70,0.5,69.4,0,68.6,0
	c-0.8,0-1.3,0.5-1.3,1.3v3.5l-1.3,1.3V5.4c0-0.8-0.5-1.3-1.3-1.3c-0.8,0-1.3,0.5-1.3,1.3v3.5l-6.9,6.9C42.8,3.1,21.4,4,8.9,17.7
	s-11.7,34.9,1.9,47.6c3.8,3.5,8.3,6.1,13.2,7.6l-3.6,6.1c-0.4,0.7-0.3,1.5,0.4,1.9c0.7,0.4,1.5,0.3,1.9-0.4l4-6.7
	c4.6,0.9,9.3,0.9,13.9,0l4,6.7c0.4,0.7,1.2,0.8,1.9,0.4c0.7-0.4,0.8-1.2,0.4-1.8l-3.6-6.2c17.9-5.4,28-24.1,22.7-41.9
	c-1.5-5-4-9.4-7.5-13.2l6.9-6.9h3.4c0.8,0,1.3-0.5,1.3-1.3c0-0.8-0.5-1.3-1.3-1.3h-0.8l1.3-1.3h3.5c0.8,0,1.3-0.5,1.3-1.3
	C74,4.6,73.5,4,72.7,4z M64.6,40.5c0,17.1-13.9,31-30.9,31.2c-17.1,0.1-30.9-13.9-31.1-31c0-17.1,13.9-31,30.9-31.2
	c7.8,0,15.2,3,21,8.2l-6.7,6.7c-8.9-8-22.6-7-30.5,1.9c-7.9,8.9-7,22.7,1.9,30.6c8.9,8,22.6,7,30.5-1.9c7.3-8.2,7.3-20.5,0-28.6
	l6.7-6.7C61.6,25.2,64.6,32.6,64.6,40.5z M32.7,41.4c0.5,0.5,1.3,0.5,1.9,0l2.7-2.7c0.3,0.5,0.4,1.2,0.4,1.8c0,2.3-1.7,4-4,4
	s-4-1.8-4-4c0-2.3,1.7-4,4-4c0.5,0,1.2,0.1,1.7,0.4l-2.7,2.7C32.2,40,32.2,40.9,32.7,41.4z M37.4,34.8c-3.1-2-7.3-1.2-9.3,1.9
	c-2,3.1-1.2,7.3,1.9,9.3c3.1,2,7.3,1.2,9.3-1.9c1.5-2.3,1.5-5.3,0-7.4l8.6-8.6c6.9,8,5.9,19.8-1.9,26.7c-7.8,6.9-19.8,5.9-26.6-1.9
	C12.5,45,13.4,33,21.3,26.2c7.1-6.2,17.6-6.2,24.8,0L37.4,34.8z"/>
</svg>
