<svg id="search" width="25" height="25" xmlns="http://www.w3.org/2000/svg" viewBox="0 0 24.9879 24.9889"><defs><style>.cls-1{fill:none;fill-rule:evenodd;}</style></defs><title>search</title><path class="cls-1" d="M24.7525,23.6293,18.3008,17.281a10.2068,10.2068,0,0,0,2.7274-6.9345A10.4318,10.4318,0,0,0,10.514,0,10.43,10.43,0,0,0,.0008,10.3465,10.43,10.43,0,0,0,10.514,20.6925a10.5748,10.5748,0,0,0,6.6172-2.31l6.4767,6.3738a.8184.8184,0,0,0,1.1437,0A.7889.7889,0,0,0,24.7525,23.6293ZM10.514,19.1a8.8255,8.8255,0,0,1-8.8958-8.7539A8.8255,8.8255,0,0,1,10.514,1.5922,8.8253,8.8253,0,0,1,19.41,10.3465,8.8253,8.8253,0,0,1,10.514,19.1Z" transform="translate(-0.0008 -0.0001)"/></svg>