<svg id="stars" width="194" height="32" xmlns="http://www.w3.org/2000/svg" viewBox="0 0 193.9955 31.9986"><defs><style>.cls-1{fill:#ffba00;fill-rule:evenodd;}</style></defs><title>stars5</title><path class="cls-1" d="M183.8377,19.9469l3.8032,12.052L177.355,24.9308l-10.2861,7.0681,3.8032-12.052-10.16-7.7238,12.4624-.1941L177.355,0l4.18,12.0287,12.4626.1941Zm-36.3743,12.052-10.286-7.0681-10.286,7.0681,3.8032-12.052-10.16-7.7238,12.4624-.1941L137.1774,0l4.18,12.0287,12.4626.1941-10.16,7.7238Zm-40.1775,0L97,24.9308l-10.286,7.0681,3.8031-12.052-10.16-7.7238L92.82,12.029,97,0l4.18,12.0287,12.4626.1941-10.16,7.7238Zm-40.1776,0L56.8224,24.9308,46.5363,31.9989,50.34,19.9469,40.18,12.2231l12.4625-.1941L56.8224,0l4.18,12.0287,12.4626.1941-10.16,7.7238Zm-40.1775,0L16.6449,24.9308,6.3588,31.9989l3.8032-12.052L.0022,12.2231l12.4624-.1941L16.6449,0l4.18,12.0287,12.4626.1941-10.16,7.7238Z" transform="translate(-0.0022 -0.0003)"/></svg>