<svg id="stars" height="32" xmlns="http://www.w3.org/2000/svg" viewBox="0 0 196.91 34.76"><defs><style>.cls-1{fill:#ffba00;stroke:#ffba00;stroke-miterlimit:10;}</style></defs><title>stars</title><path class="cls-1" d="M183.84,20,187.64,32l-10.28-7.07L167.07,32l3.8-12-10.16-7.73L173.18,12l4.18-12,4.18,12,12.46.19ZM147.46,32l-10.28-7.07L126.89,32l3.81-12-10.16-7.73L133,12l4.18-12,4.18,12,12.46.19L143.66,20Zm-40.17,0L97,24.93,86.71,32l3.81-12L80.36,12.22,92.82,12,97,0l4.18,12,12.46.19L103.48,20ZM67.11,32,56.82,24.93,46.54,32l3.8-12L40.18,12.22,52.64,12,56.82,0,61,12l12.46.19L63.3,20ZM26.93,32,16.64,24.93,6.36,32l3.8-12L0,12.22,12.46,12,16.64,0l4.18,12,12.47.19L23.13,20Z" transform="translate(1.45 1.52)"/></svg>