<svg id="support" width="73" height="73" xmlns="http://www.w3.org/2000/svg" viewBox="0 0 72.9999 73.0001"><defs><style>.cls-1{fill:#fff;fill-rule:evenodd;}</style></defs><title>support</title><path class="cls-1" d="M69.35,60.59c-7.2615-3.8511-12.8315-6.01-17.79-6.8382l.5131-.7053a.9461.9461,0,0,0,.2434-.9733l-1.14-4.5608q.62-.8757,1.1682-1.8088c4.534-1.543,6.8268-4.1517,7.212-7.9917a4.0121,4.0121,0,0,0,3.71-3.8889V24.698a3.9234,3.9234,0,0,0-3.6713-3.8867C59.3273,13.7827,56.2282-.0006,36.5-.0006S13.6725,13.7836,13.4046,20.8117a3.9213,3.9213,0,0,0-3.6712,3.8858v9.1252a4.0277,4.0277,0,0,0,4.0149,3.8933h1.8251a3.7048,3.7048,0,0,0,1.8767-.5229,26.605,26.605,0,0,0,4.3734,10.319l-1.14,4.5608a1.6357,1.6357,0,0,0,.2434.9733l.5131.7053c-4.9582.8279-10.5282,2.9871-17.79,6.8382A6.47,6.47,0,0,0,0,66.5512v5.2313A1.1494,1.1494,0,0,0,1.2166,73H71.7832A1.1493,1.1493,0,0,0,73,71.7829V66.5512A6.9748,6.9748,0,0,0,69.35,60.59Zm-32.8433-2.783L39.42,64.4831H33.5393Zm-3.8514,9.11H40.34l.7121,3.65H31.9252Zm16.62-17.0332.4867,2.19L48.5187,53.78a1.077,1.077,0,0,0-.2171.24l-5.0609,7.0072-1.6056,2.205-3.28-7.38a17.6554,17.6554,0,0,0,10.4192-5.4478Q49.0274,50.1483,49.2749,49.883Zm4.7509-7.5684a26.327,26.327,0,0,0,1.5305-5.1553,3.8179,3.8179,0,0,0,1.5593.5318A5.9383,5.9383,0,0,1,54.0258,42.3146Zm6.6858-17.7385v9.1252a1.48,1.48,0,0,1-1.46,1.46H57.4265a1.48,1.48,0,0,1-1.46-1.46V24.5761a1.4791,1.4791,0,0,1,1.46-1.46h1.8251A1.4793,1.4793,0,0,1,60.7116,24.5761ZM36.5,2.433c7.4991,0,20.12,2.4482,20.6629,18.3916a3.8614,3.8614,0,0,0-1.44.4451,19.4654,19.4654,0,0,0-38.4455-.004,3.816,3.816,0,0,0-1.4407-.4415C16.38,4.8812,29.0009,2.433,36.5,2.433ZM16.9116,33.7013a1.48,1.48,0,0,1-1.46,1.46h-1.825a1.48,1.48,0,0,1-1.46-1.46V24.5761a1.4792,1.4792,0,0,1,1.46-1.46h1.825a1.4793,1.4793,0,0,1,1.46,1.46Zm2.555-9.3684a17.0334,17.0334,0,0,1,34.0667,0v8.5164a22.5178,22.5178,0,0,1-2.7468,10.82c-2.9041.8422-7.0818,1.3464-13.07,1.3464a1.2168,1.2168,0,0,0,0,2.4336,61.2328,61.2328,0,0,0,11.0519-.8319c-.0745.0747-.1491.1489-.2237.2236a20.3719,20.3719,0,0,1-1.933,2.2313,15.5587,15.5587,0,0,1-9.5745,4.4461,1.3627,1.3627,0,0,0-.5374-.1072,1.1625,1.1625,0,0,0-.5068.1085A13.7549,13.7549,0,0,1,29.96,51.6954a19.7645,19.7645,0,0,1-5.5049-4.8543q-.1824-.1827-.365-.365l-.0711-.024a22.4148,22.4148,0,0,1-4.5523-13.6028V24.3329ZM34.6447,55.8515l-3.28,7.38-1.6057-2.205L24.6982,54.02c-.0388-.0392-.0816-.0769-.126-.1147l-1.334-1.832.4866-2.19c.1647.1774.3318.35.5.52A17.6549,17.6549,0,0,0,34.6447,55.8515Zm-32.2114,10.7A4.1763,4.1763,0,0,1,4.745,62.78c7.7552-4.12,13.3378-6.1877,18.311-6.8053l7.26,9.9828-.9218,4.6093H2.4333Zm68.1333,4.0152H43.6054l-.9218-4.6093,7.3391-10.0909c4.9555.7475,10.6384,2.8138,18.2324,6.7916a4.5012,4.5012,0,0,1,2.3116,3.8934v4.0152Z" transform="translate(0.0001 0.0006)"/></svg>