<svg id="technical-support" width="75" height="75" xmlns="http://www.w3.org/2000/svg" viewBox="0 0 74.9994 75.0001"><defs><style>.cls-1{fill:#1e7bb8;fill-rule:evenodd;}</style></defs><title>technical_support</title><path class="cls-1" d="M75,67.4981a7.5083,7.5083,0,0,1-7.5,7.5H60a2.5025,2.5025,0,0,1-2.5-2.5v-3.75h-29.36L15.18,74.6592a3.7409,3.7409,0,0,1-1.5535.34c-.0366,0-.0733-.0087-.11-.01a3.7074,3.7074,0,0,1-.4795-.0429c-.0772-.0121-.1527-.0325-.23-.05a3.7447,3.7447,0,0,1-.3691-.1014c-.0418-.0134-.0846-.0195-.1265-.0351-.0331-.0121-.0623-.0329-.0955-.0468a3.6922,3.6922,0,0,1-.4686-.2292c-.04-.023-.083-.04-.1213-.0646a3.8036,3.8036,0,0,1-.4938-.3765c-.0561-.05-.1065-.1032-.1591-.1565a3.6775,3.6775,0,0,1-.301-.3414c-.0429-.0564-.0875-.11-.1275-.1677a3.7325,3.7325,0,0,1-.3319-.5737l-1.85-4.0555H7.5c-.0348,0-.0652-.0178-.0995-.02a7.7585,7.7585,0,0,1-7.4-7.4749V7.4993a7.48,7.48,0,0,1,7.5-7.5h7.5005a2.5029,2.5029,0,0,1,2.5,2.5V6.25h50a7.4793,7.4793,0,0,1,7.4952,7.2278c.0022.0772-.004.1534-.004.23.0006.0147.0085.0269.0085.0416Zm-45.9716-4.65-9.0992,4.15,1.038,2.275,6.3978-2.9185.0228-.01,16.3249-7.4458-1.0374-2.2754-7.961,3.6321a1.25,1.25,0,1,1-1.0374-2.2745l7.961-3.63L40.6,52.0751,17.8549,62.4494l1.0374,2.2745,9.0985-4.15a1.25,1.25,0,0,1,1.0375,2.2736ZM45.7543,57.35l5.6081-5.66-.2529-.67-8.0023.5273ZM10.4128,67.2177l2.0754,4.549a1.25,1.25,0,0,0,1.6554.618l4.549-2.0757-1.5552-3.41-.0012-.0017v-.0009L15.581,63.4855l-4.55,2.0752A1.2524,1.2524,0,0,0,10.4128,67.2177ZM15.0008,2.5H7.5a4.9809,4.9809,0,0,0-5,5V55.6618a7.497,7.497,0,0,1,5-1.9136h7.5005ZM72.4977,13.5668A4.98,4.98,0,0,0,67.5,8.75h-50V53.7482a2.5029,2.5029,0,0,1-2.5,2.5H7.5a4.9857,4.9857,0,0,0-5,4.8177v.1824a5.24,5.24,0,0,0,5.3,5h.04a3.7393,3.7393,0,0,1,2.1527-2.9617L40.7012,49.2819c.0137-.0061.0291-.0043.0434-.01a1.2379,1.2379,0,0,1,.3926-.1l9.7583-.6422a2.4831,2.4831,0,0,1,2.49,1.4543l.2895.6339a2.4963,2.4963,0,0,1-.5716,2.8673l-6.8458,6.9116a1.2124,1.2124,0,0,1-.1928.13,1.1844,1.1844,0,0,1-.1769.1283L33.6218,66.2483H57.5V21.2492a2.5024,2.5024,0,0,1,2.5-2.5h7.1983A5.4656,5.4656,0,0,0,71.105,17.08,4.8023,4.8023,0,0,0,72.4977,13.5668ZM72.5,19.1931a7.9666,7.9666,0,0,1-5.3014,2.0561H60V72.4978h7.5a5.0046,5.0046,0,0,0,5-5ZM53.0287,34.2524a2.5131,2.5131,0,0,1-1.7693.7467l-2.3094.0021a12.41,12.41,0,0,1-1.3939,2.4132l1.1495,1.9924a2.5038,2.5038,0,0,1-.9161,3.4146l-4.3293,2.5a2.4758,2.4758,0,0,1-1.2438.3341,2.5176,2.5176,0,0,1-.653-.0862,2.4834,2.4834,0,0,1-1.5186-1.1635l-1.149-1.9924a12.3107,12.3107,0,0,1-2.7877.0017l-1.1565,1.9968a2.513,2.513,0,0,1-1.5312,1.16,2.4639,2.4639,0,0,1-1.8911-.263L27.215,42.8223a2.515,2.515,0,0,1-.9339-3.4l1.1564-2.005a12.7248,12.7248,0,0,1-1.3927-2.4127l-2.298-.0017A2.5175,2.5175,0,0,1,21.2515,32.49l.0029-4.9911a2.4564,2.4564,0,0,1,.7175-1.7541A2.5154,2.5154,0,0,1,23.7411,25l2.3094-.0039a12.4976,12.4976,0,0,1,1.395-2.4132L26.2949,20.591a2.5034,2.5034,0,0,1,.916-3.4146l4.3293-2.5a2.5036,2.5036,0,0,1,3.4155.9148l1.15,1.9924a12.3362,12.3362,0,0,1,2.7873-.0022l1.1569-1.9959A2.5146,2.5146,0,0,1,41.58,14.4247a2.4655,2.4655,0,0,1,1.89.2626l4.3161,2.4882a2.5147,2.5147,0,0,1,.9321,3.4012L47.563,22.5808a12.7525,12.7525,0,0,1,1.3932,2.4123l2.2975.0013h.016a2.5165,2.5165,0,0,1,2.4793,2.5138l-.0023,4.9906A2.4584,2.4584,0,0,1,53.0287,34.2524Zm-1.78-6.7577-3.1437-.0017a1.2506,1.2506,0,0,1-1.1793-.8368,10.0521,10.0521,0,0,0-1.8184-3.1481,1.25,1.25,0,0,1-.1351-1.4395l1.573-2.7269-4.335-2.4968L40.63,19.5718a1.2492,1.2492,0,0,1-1.3172.6,9.8483,9.8483,0,0,0-3.6346.0017,1.2454,1.2454,0,0,1-1.3121-.6031l-1.5752-2.7283-4.33,2.5L30.0359,22.07a1.25,1.25,0,0,1-.1339,1.4382,9.8326,9.8326,0,0,0-1.8173,3.1447,1.2485,1.2485,0,0,1-1.1793.8419l-3.1586.0043.0057,4.9972,3.1437.0091a1.25,1.25,0,0,1,1.1794.8363A10.0474,10.0474,0,0,0,29.8923,36.49a1.25,1.25,0,0,1,.135,1.44l-1.5729,2.7265,4.3361,2.4964,1.5809-2.7256a1.2456,1.2456,0,0,1,1.3167-.601,9.9022,9.9022,0,0,0,3.6346-.0009,1.2093,1.2093,0,0,1,.23-.0212,1.2513,1.2513,0,0,1,1.0826.6248L42.21,43.1564l4.33-2.5-1.5748-2.7273a1.2511,1.2511,0,0,1,.1334-1.4387,9.8369,9.8369,0,0,0,1.8179-3.1459,1.25,1.25,0,0,1,1.1787-.8411l3.1586-.0043ZM37.5,34.9991a5,5,0,1,1,5-5A5,5,0,0,1,37.5,34.9991Zm0-7.5a2.5,2.5,0,1,0,2.5,2.5A2.5,2.5,0,0,0,37.5,27.499ZM6.2507,43.7492A1.25,1.25,0,0,1,5,42.4986V14.9993a1.25,1.25,0,1,1,2.5,0V42.4986A1.25,1.25,0,0,1,6.2507,43.7492Zm0-32.5A1.25,1.25,0,0,1,5,10v-2.5a1.25,1.25,0,0,1,2.5,0V10A1.25,1.25,0,0,1,6.2507,11.2493Z" transform="translate(-0.0005 0.0007)"/></svg>