<svg id="wallet" width="80" height="81" xmlns="http://www.w3.org/2000/svg" viewBox="0 0 80.0018 80.9982"><defs><style>.cls-1{fill:#fff;fill-rule:evenodd;}</style></defs><title>wallet</title><path class="cls-1" d="M79.6,71.1844a1.36,1.36,0,0,1-.9842.3976H32.3516A17.1052,17.1052,0,1,1,10.2074,48.1774V19.73a1.4027,1.4027,0,0,1,1.3319-1.476h.0064l19.94-5.7391L43.5983.4112a1.409,1.409,0,0,1,1.9909-.004L50.8664,5.646,65.054.6071a1.4312,1.4312,0,0,1,1.9039,1.3307V18.2542H78.6156A1.445,1.445,0,0,1,80,19.73v50.47A1.3651,1.3651,0,0,1,79.6,71.1844ZM6.968,53.72A14.3345,14.3345,0,0,0,17.0818,78.1844h.001A14.327,14.327,0,1,0,6.968,53.72ZM21.7056,18.2542h4.0185l1.633-1.636ZM44.5989,3.339,29.7127,18.2542H59.6182Zm19.5391.5988L53.1016,7.8213,63.6238,18.2542h.5142ZM77.18,35.9121H67.9658a9.0941,9.0941,0,0,0,0,18.1882H77.18Zm0,21.0133H67.9658a11.9193,11.9193,0,0,1,0-23.8385H77.18V21.0794H13.0273v26.124a16.2375,16.2375,0,0,1,4.095-.5141A17.1313,17.1313,0,0,1,33.4836,68.7564H77.18ZM64.3189,49.6323a4.98,4.98,0,1,1,5.4222-1.0806A4.9856,4.9856,0,0,1,64.3189,49.6323Zm4.06-4.606a2.1551,2.1551,0,1,0-1.331,1.996A2.1606,2.1606,0,0,0,68.3789,45.0263ZM18.3146,53.9237v1.0255a5.4965,5.4965,0,0,1,4.2473,5.3487,1.41,1.41,0,1,1-2.82,0,2.6582,2.6582,0,1,0-2.6592,2.6647A5.49,5.49,0,0,1,18.3146,73.8V74.937a1.41,1.41,0,1,1-2.82,0V73.7061a5.4974,5.4974,0,0,1-3.8912-5.2541,1.41,1.41,0,1,1,2.82,0,2.6638,2.6638,0,0,0,2.2207,2.6248,1.3775,1.3775,0,0,1,.6434.03,2.6635,2.6635,0,0,0-.2047-5.3186,5.491,5.491,0,0,1-1.5881-10.744v-1.12a1.41,1.41,0,1,1,2.82,0Z" transform="translate(0.0018 0.0026)"/></svg>